<svg xmlns="http://www.w3.org/2000/svg" xmlns:xlink="http://www.w3.org/1999/xlink" viewBox="813.012 5714.197 219.988 85.606"><defs><style>.a,.b{fill:none;}.a{clip-rule:evenodd;}.c{clip-path:url(#a);}.d{clip-path:url(#b);}.e{fill:#fff;}.f{clip-path:url(#c);}.g{clip-path:url(#e);}.h{clip-path:url(#g);}.i{clip-path:url(#i);}.j{clip-path:url(#k);}.k{clip-path:url(#m);}.l{clip-path:url(#o);}.m{clip-path:url(#q);}.n{clip-path:url(#s);}.o{clip-path:url(#u);}.p{clip-path:url(#w);}.q{clip-path:url(#y);}.r{clip-path:url(#aa);}.s{clip-path:url(#ac);}.t{clip-path:url(#ae);}.u{clip-path:url(#ag);}</style><clipPath id="a"><path class="a" d="M220.936-43.258l-.789-3.721a8.7,8.7,0,0,1-2.153.506c-2.067,0-2.65-.806-2.65-3.823V-62.159h3.826l1.569-4.32h-5.4V-73l-5.985.995v5.526H207v4.32h2.358v12.867c0,2.22,0,2.616.386,3.625.691,2.108,3.14,3.525,6.183,3.525a13.575,13.575,0,0,0,5.009-1.116" transform="translate(-207 73)"/></clipPath><clipPath id="b"><path class="b" d="M-610,451.274H823.408V-3403H-610Z" transform="translate(610 3403)"/></clipPath><clipPath id="c"><path class="a" d="M0-86v28.459L14.33-43.2,42.8-71.661,28.459-86Z" transform="translate(0 86)"/></clipPath><clipPath id="e"><path class="a" d="M0-28.649V-.2H28.459L42.8-14.525,14.33-43Z" transform="translate(0 43)"/></clipPath><clipPath id="g"><path class="a" d="M43-14.525,57.4-.2H85.8V-28.863L71.618-43Z" transform="translate(-43 43)"/></clipPath><clipPath id="i"><path class="a" d="M57.4-86,43-71.661,71.618-43.2,85.8-57.322V-86Z" transform="translate(-43 86)"/></clipPath><clipPath id="k"><path class="a" d="M124.886-43.146,113.56-60.267,123.757-75H115.98l-9.322,14.535V-75H100v31.853h6.658V-59.775l9.895,16.628Z" transform="translate(-100 75)"/></clipPath><clipPath id="m"><path class="a" d="M144.913-43.11V-60.228a10.313,10.313,0,0,0-.4-3.385C143.8-65.6,141.358-67,138.711-67a8.946,8.946,0,0,0-4.27,1,8.337,8.337,0,0,0-2.744,2.192l-.4-3.13L126-66.1v22.99h6.3V-56.946a4.915,4.915,0,0,1,1.323-3.68,4.478,4.478,0,0,1,2.952-1.2c1.729,0,2.233,1.1,2.233,3.779V-43.11Z" transform="translate(-126 67)"/></clipPath><clipPath id="o"><path class="a" d="M155.973-43.11V-67L150-66.012v22.9Z" transform="translate(-150 67)"/></clipPath><clipPath id="q"><path class="a" d="M174.122-52.416a7.7,7.7,0,0,1-.5,3.077,2.952,2.952,0,0,1-2.783,1.786c-3.678,0-4.075-2.576-4.075-7.44,0-4.371.795-6.949,3.978-6.949a4.549,4.549,0,0,1,3.382,1.483Zm1.232-13.856s-.337,1.31-.436,1.809a7.183,7.183,0,0,0-5.27-2.446c-7.261,0-9.649,6.558-9.649,12.708,0,5.756,2.486,11.413,9.349,11.413a6.139,6.139,0,0,0,4.773-2.283v1.99c0,3.568-.3,5.26-4.873,5.26a16.229,16.229,0,0,1-7.057-1.984L160.7-35.543a19.368,19.368,0,0,0,8.852,2.388c2.382,0,5.763-.4,7.95-2.286,2.284-1.882,2.384-5.259,2.384-8.537L179.908-67Z" transform="translate(-160 67)"/></clipPath><clipPath id="s"><path class="a" d="M203.908-43.151V-59.779a9.767,9.767,0,0,0-.611-4.329c-.713-2.116-3.146-3.42-6.2-3.42a8.855,8.855,0,0,0-6.8,2.912c0-.3.1-1.711.1-2.419V-76L184-74.97v31.819h6.4v-13.1c0-2.2.285-3.481,1.018-4.331a5.371,5.371,0,0,1,3.961-1.715c1.824,0,2.437,1.006,2.437,3.221v15.922Z" transform="translate(-184 76)"/></clipPath><clipPath id="u"><path class="a" d="M156.963-73.018a3.982,3.982,0,0,1-3.981,3.982A3.982,3.982,0,0,1,149-73.018,3.981,3.981,0,0,1,152.983-77a3.981,3.981,0,0,1,3.981,3.982" transform="translate(-149 77)"/></clipPath><clipPath id="w"><path class="a" d="M142.218-4.824a2.766,2.766,0,0,1-2.676-3.051c0-2.755,1.384-3.786,5.649-3.786h.353l.009,5.4a4.485,4.485,0,0,1-3.335,1.437M151.6-8.959l.037-7.873a12.4,12.4,0,0,0-.4-4.131c-.891-2.557-3.564-4.037-7.528-4.037a15.366,15.366,0,0,0-6.445,1.378,30.555,30.555,0,0,0-3.684,1.95l2.255,4.013c2.786-1.755,5-2.439,6.978-2.439,2.282,0,2.832,1,2.832,3.563v.884H144.2c-7.436,0-11.2,2.562-11.2,7.969,0,4.216,2.3,6.8,6.681,7.219h2.49a7.906,7.906,0,0,0,3.514-1.212,9.12,9.12,0,0,0,1.491-1.3,6.363,6.363,0,0,0,2.55,2.507l.718.348.327-.348L153.9-3.846c-2.084-1.57-2.307-2.721-2.307-5.114" transform="translate(-133 25)"/></clipPath><clipPath id="y"><path class="a" d="M116.922-32H100V-.146h6.161v-14.13h8.018v-5.167h-8.018v-7.463h9.979Z" transform="translate(-100 32)"/></clipPath><clipPath id="aa"><path class="a" d="M131.936-24.508A5.417,5.417,0,0,0,129.559-25c-2.369,0-4.745,2.073-5.774,3.649l-.623-3.157L118-23.7V-1.11h6.4V-15.55a4.018,4.018,0,0,1,.928-2.936,3.96,3.96,0,0,1,2.811-1.086,5.421,5.421,0,0,1,2.174.494Z" transform="translate(-118 25)"/></clipPath><clipPath id="ac"><path class="a" d="M180-32.017V-1.146h5.973V-33Z" transform="translate(-180 33)"/></clipPath><clipPath id="ae"><path class="a" d="M192.855-13.971,200.27-24H192.95L187-13.669,194.86-.11h7.072Z" transform="translate(-187 24)"/></clipPath><clipPath id="ag"><path class="a" d="M169.814-.11V-15.04c0-2.684-.51-3.787-2.238-3.787a4.492,4.492,0,0,0-2.949,1.2A4.965,4.965,0,0,0,163.3-13.94V-.11H157V-23.1l5.293-.841.4,3.126A8.3,8.3,0,0,1,165.437-23a8.908,8.908,0,0,1,4.27-1c2.643,0,5.086,1.394,5.8,3.387a10.131,10.131,0,0,1,.407,3.38V-.11Z" transform="translate(-157 24)"/></clipPath></defs><g transform="translate(813.012 5714.197)"><g class="c" transform="translate(206.052 12.94)"><g class="d" transform="translate(-813.26 -3314.755)"><path class="e" d="M202-78h23.89v40.812H202Z" transform="translate(606.283 3387.778)"/></g></g><g class="f"><g class="d" transform="translate(-607.207 -3301.815)"><path class="e" d="M-5-91H47.757v52.757H-5Z" transform="translate(607.23 3387.838)"/></g></g><g class="g" transform="translate(0 42.803)"><g class="d" transform="translate(-607.207 -3344.618)"><path class="e" d="M-5-48H47.757V4.757H-5Z" transform="translate(607.23 3387.641)"/></g></g><g class="h" transform="translate(42.803 42.803)"><g class="d" transform="translate(-650.011 -3344.618)"><path class="e" d="M38-48H90.757V4.757H38Z" transform="translate(607.034 3387.641)"/></g></g><g class="i" transform="translate(42.803)"><g class="d" transform="translate(-650.011 -3301.815)"><path class="e" d="M38-91H90.757v52.757H38Z" transform="translate(607.034 3387.838)"/></g></g><g class="j" transform="translate(99.542 10.95)"><g class="d" transform="translate(-706.75 -3312.764)"><path class="e" d="M95-80h34.84v41.808H95Z" transform="translate(606.773 3387.788)"/></g></g><g class="k" transform="translate(125.423 18.913)"><g class="d" transform="translate(-732.631 -3320.728)"><path class="e" d="M121-72h28.867v33.844H121Z" transform="translate(606.654 3387.751)"/></g></g><g class="l" transform="translate(149.313 18.913)"><g class="d" transform="translate(-756.521 -3320.728)"><path class="e" d="M145-72h15.927v33.844H145Z" transform="translate(606.544 3387.751)"/></g></g><g class="m" transform="translate(159.268 18.913)"><g class="d" transform="translate(-766.475 -3320.728)"><path class="e" d="M155-72h29.863v43.8H155Z" transform="translate(606.498 3387.751)"/></g></g><g class="n" transform="translate(183.158 9.954)"><g class="d" transform="translate(-790.365 -3311.769)"><path class="e" d="M179-81h29.863v42.8H179Z" transform="translate(606.388 3387.792)"/></g></g><g class="o" transform="translate(148.318 8.959)"><g class="d" transform="translate(-755.525 -3310.774)"><path class="e" d="M144-82h17.918v17.918H144Z" transform="translate(606.548 3387.797)"/></g></g><g class="p" transform="translate(132.391 60.721)"><g class="d" transform="translate(-739.599 -3362.535)"><path class="e" d="M128-30h30.858V4.84H128Z" transform="translate(606.621 3387.559)"/></g></g><g class="q" transform="translate(99.542 53.753)"><g class="d" transform="translate(-706.75 -3355.568)"><path class="e" d="M95-37h26.876V4.808H95Z" transform="translate(606.773 3387.591)"/></g></g><g class="r" transform="translate(117.46 60.721)"><g class="d" transform="translate(-724.667 -3362.535)"><path class="e" d="M113-30h23.89V3.844H113Z" transform="translate(606.69 3387.559)"/></g></g><g class="s" transform="translate(179.176 52.757)"><g class="d" transform="translate(-786.383 -3354.572)"><path class="e" d="M175-38h15.927V3.808H175Z" transform="translate(606.406 3387.595)"/></g></g><g class="t" transform="translate(186.144 61.716)"><g class="d" transform="translate(-793.351 -3363.531)"><path class="e" d="M182-29h24.886V4.844H182Z" transform="translate(606.374 3387.554)"/></g></g><g class="u" transform="translate(156.281 61.716)"><g class="d" transform="translate(-763.489 -3363.531)"><path class="e" d="M152-29h28.867V4.844H152Z" transform="translate(606.512 3387.554)"/></g></g></g></svg>