<?xml version="1.0" standalone="no"?>
<!DOCTYPE svg PUBLIC "-//W3C//DTD SVG 1.1//EN" "http://www.w3.org/Graphics/SVG/1.1/DTD/svg11.dtd" >
<svg xmlns="http://www.w3.org/2000/svg" xmlns:xlink="http://www.w3.org/1999/xlink" version="1.1">
<metadata>
 By Katja
Copyright (c) 2016 Swiss Typefaces Sa`rl. All rights reserved.
</metadata>
<defs>
<font id="Font" horiz-adv-x="620" >
  <font-face 
    font-family="Font"
    font-weight="300"
    font-stretch="normal"
    units-per-em="1000"
    panose-1="2 11 3 0 3 0 0 0 0 0"
    ascent="800"
    descent="-200"
    x-height="500"
    cap-height="710"
    bbox="-185 -230 1607 928"
    underline-thickness="50"
    underline-position="-90"
    unicode-range="U+0020-FB02"
  />
<missing-glyph horiz-adv-x="500" 
d="M0 710h500v-710h-500v710zM19 682v-654l220 327zM481 28v654l-221 -327zM34 691l216 -321l216 321h-432zM34 19h432l-216 320z" />
    <glyph glyph-name="uni0407_uni0407.liga" unicode="&#x407;&#x407;" horiz-adv-x="548" 
d="M27 791q-22 0 -37 15t-15 37t15 37t37 15t37 -15t15 -37t-15 -37t-37 -15zM106 710h62v-710h-62v710zM521 790q-22 0 -37 15t-15 37t15 37t37 15t37 -15t15 -37t-15 -37t-37 -15zM380 710h62v-710h-62v710zM275 790q-22 0 -37 15t-15 37t15 37t37 15t37 -15t15 -37
t-15 -37t-37 -15z" />
    <glyph glyph-name="uni0457_uni0457.liga" unicode="&#x457;&#x457;" horiz-adv-x="478" 
d="M-23 632q0 22 15 37t37 15t37 -15t15 -37t-15 -37t-37 -15t-37 15t-15 37zM91 500h57v-500h-57v500zM397 632q0 22 15 37t37 15t37 -15t15 -37t-15 -37t-37 -15t-37 15t-15 37zM330 500h57v-500h-57v500zM187 632q0 22 15 37t37 15t37 -15t15 -37t-15 -37t-37 -15t-37 15
t-15 37z" />
    <glyph glyph-name="f_t.liga" unicode="ft" horiz-adv-x="617" 
d="M23 500h91q-19 16 -29.5 39.5t-10.5 50.5q0 53 40.5 86.5t108.5 33.5h101v-54h-104q-36 0 -62 -18t-26 -56q0 -40 23.5 -60t52.5 -22h158v122l57 28v-150h149l-13 -55h-136v-311q0 -42 17.5 -60.5t63.5 -18.5h61v-55h-62q-67 0 -102 30t-35 102v313h-188v-445h-57v445
h-98v55z" />
    <glyph glyph-name="t_f.liga" unicode="tf" horiz-adv-x="611" 
d="M5 500h100v122l57 28v-150h208q-18 16 -28.5 39.5t-10.5 50.5q0 53 40.5 86.5t108.5 33.5h101v-54h-104q-36 0 -62 -18t-26 -56q0 -40 23.5 -60t52.5 -22h116v-55h-146v-445h-57v445h-216v-311q0 -42 17.5 -60.5t63.5 -18.5h61v-55h-62q-67 0 -102 30t-35 102v313h-87z
" />
    <glyph glyph-name="t_t.liga" unicode="tt" horiz-adv-x="628" 
d="M5 500h100v122l57 28v-150h215v122l57 28v-150h149l-13 -55h-136v-311q0 -42 17.5 -60.5t63.5 -18.5h61v-55h-62q-67 0 -102 30t-35 102v313h-215v-311q0 -42 17.5 -60.5t63.5 -18.5h61v-55h-62q-67 0 -102 30t-35 102v313h-87z" />
    <glyph glyph-name=".notdef" horiz-adv-x="500" 
d="M0 710h500v-710h-500v710zM19 682v-654l220 327zM481 28v654l-221 -327zM34 691l216 -321l216 321h-432zM34 19h432l-216 320z" />
    <glyph glyph-name="glyph1" horiz-adv-x="0" 
 />
    <glyph glyph-name="glyph2" horiz-adv-x="0" 
 />
    <glyph glyph-name="space" unicode=" " horiz-adv-x="255" 
 />
    <glyph glyph-name="exclam" unicode="!" horiz-adv-x="233" 
d="M89 415v295h57v-295l-11 -211h-36zM116 -7q-23 0 -40 19.5t-17 43.5q0 17 8 30t22 20h56q13 -8 21 -24t8 -32q0 -24 -17.5 -40.5t-40.5 -16.5z" />
    <glyph glyph-name="quotedbl" unicode="&#x22;" horiz-adv-x="413" 
d="M77 710h57v-225h-57v225zM279 710h57v-225h-57v225z" />
    <glyph glyph-name="numbersign" unicode="#" horiz-adv-x="793" 
d="M450 209h-202l-65 -209h-58l65 209h-130v55h147l61 193h-135v55h152l62 198h58l-62 -198h202l62 198h57l-62 -198h131v-55h-148l-61 -193h137v-55h-154l-65 -209h-57zM265 264h202l61 193h-202z" />
    <glyph glyph-name="dollar" unicode="$" horiz-adv-x="522" 
d="M229 -7q-68 5 -120.5 34.5t-80.5 63.5l44 37q26 -32 72 -57.5t104 -25.5q77 0 122 36t45 92q0 29 -10 51t-28 39.5t-42.5 32t-54.5 29.5l-75 37q-40 20 -68.5 40t-47 42.5t-27 48.5t-8.5 58q0 34 14.5 63t38.5 50.5t55.5 34.5t66.5 17v82h52v-81q55 -5 99 -29.5t74 -59.5
l-42 -37q-28 34 -66 54t-93 20q-30 0 -56 -8.5t-45.5 -24t-30.5 -36.5t-11 -46q0 -47 28.5 -77t87.5 -59l75 -38q35 -18 66 -36t54.5 -40.5t37.5 -51t14 -66.5t-13 -70.5t-37.5 -57.5t-60 -40.5t-81.5 -19.5v-82h-52v81z" />
    <glyph glyph-name="percent" unicode="%" horiz-adv-x="472" 
d="M235 45q40 0 64 25.5t24 63.5q0 37 -24 63t-64 26q-38 0 -61.5 -26t-23.5 -63q0 -38 23.5 -63.5t61.5 -25.5zM235 -8q-30 0 -56.5 11t-46 30t-31 45t-11.5 56t11.5 56t31 45t46 29.5t56.5 10.5q31 0 57.5 -10.5t46.5 -29.5t31.5 -45t11.5 -56t-11.5 -56t-31.5 -45
t-46.5 -30t-57.5 -11zM101 380h280v-55h-280v55zM235 487q40 0 64 26t24 63q0 38 -24 63.5t-64 25.5q-38 0 -61.5 -25.5t-23.5 -63.5q0 -37 23.5 -63t61.5 -26zM235 435q-30 0 -56.5 11t-46 29.5t-31 44.5t-11.5 56t11.5 56t31 45t46 30t56.5 11q31 0 57.5 -11t46.5 -30
t31.5 -45t11.5 -56t-11.5 -56t-31.5 -44.5t-46.5 -29.5t-57.5 -11z" />
    <glyph glyph-name="ampersand" unicode="&#x26;" horiz-adv-x="612" 
d="M255 -8q-50 0 -91 17t-70.5 47t-46 70.5t-16.5 86.5t16.5 86t46 70t70.5 47.5t91 17.5q20 0 37 -3.5t34 -8.5l-152 288h341v-55h-252l349 -655h-62l-83 155q-9 -35 -28 -65t-46 -52t-62 -34t-76 -12zM255 45q36 0 66 12t51.5 34.5t34 53t12.5 68.5q0 37 -12.5 68.5
t-34 53.5t-51.5 34.5t-66 12.5t-66.5 -12.5t-52 -34.5t-34 -53.5t-12.5 -68.5q0 -38 12.5 -68.5t34 -53t52 -34.5t66.5 -12z" />
    <glyph glyph-name="quotesingle" unicode="'" horiz-adv-x="211" 
d="M77 710h57v-225h-57v225z" />
    <glyph glyph-name="parenleft" unicode="(" horiz-adv-x="233" 
d="M169 -136q-27 56 -47 106t-33.5 101t-20.5 106.5t-7 122.5t7 122.5t20.5 106.5t33.5 101t47 106l50 -21q-27 -54 -46 -104t-31.5 -100t-18.5 -102t-6 -109t6 -109t18.5 -102t31.5 -100t46 -104l-50 -21v0z" />
    <glyph glyph-name="parenright" unicode=")" horiz-adv-x="233" 
d="M64 -136l-50 21q27 54 46 104t31.5 100t18.5 102t6 109t-6 109t-18.5 102t-31.5 100t-46 104l50 21q27 -56 47 -106t33.5 -101t20.5 -106.5t7 -122.5t-7 -122.5t-20.5 -106.5t-33.5 -101t-47 -106z" />
    <glyph glyph-name="asterisk" unicode="*" horiz-adv-x="443" 
d="M106 441l73 101l-119 40l14 49l121 -40v119h50v-119l122 39l16 -48l-121 -39l74 -102l-40 -29l-76 101l-73 -101z" />
    <glyph glyph-name="plus" unicode="+" horiz-adv-x="664" 
d="M112 298h191v183h58v-183h191v-55h-191v-189h-58v189h-191v55z" />
    <glyph glyph-name="comma" unicode="," horiz-adv-x="237" 
d="M113 0h-42v103h96v-104l-54 -137h-44z" />
    <glyph glyph-name="hyphen" unicode="-" horiz-adv-x="329" 
d="M51 303h227v-65h-227v65z" />
    <glyph glyph-name="period" unicode="." horiz-adv-x="244" 
d="M122 -8q-25 0 -42 18t-17 41q0 25 17 43t42 18t42 -18t17 -43q0 -23 -17 -41t-42 -18z" />
    <glyph glyph-name="slash" unicode="/" horiz-adv-x="406" 
d="M349 710h57l-349 -710h-57z" />
    <glyph glyph-name="zero" unicode="0" horiz-adv-x="818" 
d="M409 46q66 0 121.5 23.5t96 65t63.5 98t23 122.5t-23 122.5t-63.5 98t-96 65t-121.5 23.5t-121 -23.5t-95.5 -65t-63 -98t-22.5 -122.5t22.5 -122.5t63 -98t95.5 -65t121 -23.5zM409 -8q-77 0 -143 27.5t-115 76.5t-77 115.5t-28 143.5t28 143.5t77 115t115 76.5t143 28
q76 0 142.5 -28t115.5 -76.5t77 -115t28 -143.5t-28 -143.5t-77 -115.5t-115.5 -76.5t-142.5 -27.5z" />
    <glyph glyph-name="one" unicode="1" horiz-adv-x="261" 
d="M102 661l57 57v-718h-57v661z" />
    <glyph glyph-name="two" unicode="2" horiz-adv-x="538" 
d="M337 320q-13 -5 -30 -9t-37 -4q-43 0 -80.5 15.5t-65.5 43t-44 65t-16 81.5q0 43 16 81t44 65.5t65.5 43.5t80.5 16q42 0 79.5 -16t65.5 -43.5t44.5 -65.5t16.5 -81q0 -35 -8 -66.5t-25 -64t-45 -67.5t-67 -77l-173 -182h319v-55h-446zM270 359q31 0 58.5 11.5t47 32
t31 48.5t11.5 61t-11.5 61t-31 48.5t-47 32t-58.5 11.5q-32 0 -59 -11.5t-47 -32t-31 -48.5t-11 -61t11 -61t31 -48.5t47 -32t59 -11.5z" />
    <glyph glyph-name="three" unicode="3" horiz-adv-x="523" 
d="M238 -8q-63 0 -117 32t-83 83l49 31q9 -19 24.5 -36t35 -29.5t43 -20t49.5 -7.5q37 0 68.5 13t55 36t37 55t13.5 70q0 40 -13 73t-36.5 57t-56.5 37.5t-73 13.5h-59l159 255h-268v55h362q-37 -61 -70 -113q-14 -22 -28 -44.5t-26 -42.5t-22 -35.5t-15 -23.5q49 -6 87 -27
t64 -52.5t40 -71t14 -81.5q0 -45 -17 -86t-48 -72.5t-74 -50t-95 -18.5z" />
    <glyph glyph-name="four" unicode="4" horiz-adv-x="589" 
d="M417 210h-419l476 508v-453h103v-55h-103v-210h-57v210zM417 265v315l-295 -315h295z" />
    <glyph glyph-name="five" unicode="5" horiz-adv-x="544" 
d="M258 -8q-63 0 -117 32t-83 83l49 31q19 -38 60 -65.5t92 -27.5q37 0 68.5 13t55 36t37 55t13.5 71t-13 72t-36.5 57t-56.5 37.5t-73 13.5q-42 0 -71.5 -18t-47.5 -35l-43 19v344h345v-55h-288v-231q21 12 48 20.5t57 8.5q56 0 100.5 -19t75 -51.5t47 -74.5t16.5 -88
q0 -45 -17 -86.5t-48 -73t-74.5 -50t-95.5 -18.5z" />
    <glyph glyph-name="six" unicode="6" horiz-adv-x="561" 
d="M281 -8q-48 0 -90 18t-73 49.5t-49 73t-18 89.5q0 35 11 67.5t28 61.5l220 359h64l-167 -270q17 6 35.5 9.5t38.5 3.5q48 0 90 -18t73.5 -49.5t49.5 -73.5t18 -90t-18 -89.5t-49.5 -73t-73.5 -49.5t-90 -18zM281 45q37 0 68.5 14t54.5 38t36 56t13 69t-13 69.5t-36 56.5
t-54.5 38t-68.5 14t-68.5 -14t-54 -38t-35.5 -56.5t-13 -69.5t13 -69t35.5 -56t54 -38t68.5 -14z" />
    <glyph glyph-name="seven" unicode="7" horiz-adv-x="504" 
d="M398 655h-367v55h454l-349 -710h-60z" />
    <glyph glyph-name="eight" unicode="8" horiz-adv-x="563" 
d="M281 -8q-48 0 -90 18t-73 49.5t-49 73t-18 89.5q0 70 37 126t97 83q-29 22 -46 54.5t-17 73.5q0 34 12.5 63t34 50.5t50.5 33.5t62 12t62 -12t51 -33.5t34.5 -50.5t12.5 -63q0 -41 -17.5 -73.5t-46.5 -54.5q60 -27 97.5 -83t37.5 -126q0 -48 -18 -89.5t-49.5 -73
t-73.5 -49.5t-90 -18zM281 45q37 0 68.5 14t54.5 38t36 56t13 69t-13 69.5t-36 57t-54.5 38.5t-68.5 14t-68.5 -14t-54 -38.5t-35.5 -57t-13 -69.5t13 -69t35.5 -56t54 -38t68.5 -14zM281 452h4q45 2 71 32.5t26 74.5q0 45 -27 75.5t-74 30.5t-73.5 -30.5t-26.5 -75.5
q0 -44 25 -74.5t70 -32.5h5z" />
    <glyph glyph-name="nine" unicode="9" horiz-adv-x="561" 
d="M354 270q-17 -6 -35.5 -9.5t-38.5 -3.5q-48 0 -90 18t-73.5 49.5t-49.5 73.5t-18 90t18 89.5t49.5 73t73.5 49.5t90 18t89.5 -18t73 -49.5t49.5 -73t18 -89.5q0 -35 -11 -67.5t-28 -61.5l-221 -359h-63zM280 310q37 0 68.5 14t54 38t35.5 56.5t13 69.5t-13 69t-35.5 56
t-54 38t-68.5 14t-68.5 -14t-54.5 -38t-36 -56t-13 -69t13 -69.5t36 -56.5t54.5 -38t68.5 -14z" />
    <glyph glyph-name="colon" unicode=":" horiz-adv-x="244" 
d="M122 388q-25 0 -42 18t-17 41q0 25 17 43t42 18t42 -18t17 -43q0 -23 -17 -41t-42 -18zM122 -8q-25 0 -42 18t-17 41q0 25 17 43t42 18t42 -18t17 -43q0 -23 -17 -41t-42 -18z" />
    <glyph glyph-name="semicolon" unicode=";" horiz-adv-x="244" 
d="M116 0h-42v103h96v-104l-54 -137h-44zM122 388q-25 0 -42 18t-17 41q0 25 17 43t42 18t42 -18t17 -43q0 -23 -17 -41t-42 -18z" />
    <glyph glyph-name="less" unicode="&#x3c;" horiz-adv-x="481" 
d="M70 262l289 271l36 -39l-248 -232l248 -232l-36 -38z" />
    <glyph glyph-name="equal" unicode="=" horiz-adv-x="673" 
d="M112 187h449v-54h-449v54zM112 408h449v-54h-449v54z" />
    <glyph glyph-name="greater" unicode="&#x3e;" horiz-adv-x="481" 
d="M86 30l249 232l-249 232l36 39l289 -271l-289 -270z" />
    <glyph glyph-name="question" unicode="?" horiz-adv-x="456" 
d="M163 361h55q35 0 64 11t50 31.5t32.5 48t11.5 60.5t-11.5 61t-31 48.5t-47 32t-58.5 11.5q-32 0 -59 -11.5t-47 -32t-31 -48.5t-11 -61h-59q0 43 16 81t44 65.5t65.5 43.5t80.5 16q42 0 79.5 -16t65.5 -43.5t44.5 -65.5t16.5 -81q0 -44 -16.5 -81.5t-45.5 -65t-69 -43.5
t-86 -16h-53v55zM220 -8q-25 0 -42 18t-17 41q0 17 9 31.5t23 22.5h54q14 -8 23 -22.5t9 -31.5q0 -23 -17 -41t-42 -18z" />
    <glyph glyph-name="at" unicode="@" horiz-adv-x="811" 
d="M370 164q-35 0 -64.5 13t-51.5 36.5t-34.5 55t-12.5 68.5q0 45 17 85t46.5 69.5t69.5 46.5t87 17q33 0 61 -11t48 -28l7 30h54l-52 -252q-3 -17 -3 -31t5.5 -25t17 -17t31.5 -6q24 0 46 12.5t38.5 36.5t26 60t9.5 84q0 58 -21 106.5t-59 82.5t-90.5 53t-114.5 19
q-67 0 -128 -23.5t-107 -66.5t-73 -104.5t-27 -137.5q0 -63 19.5 -116.5t57 -93t92 -61.5t125.5 -22q45 0 96 10t92 32l21 -50q-47 -21 -103.5 -32.5t-105.5 -11.5q-81 0 -145.5 27t-110 73.5t-69.5 109.5t-24 135q0 85 32.5 155.5t87 120.5t125 77.5t146.5 27.5
q71 0 132.5 -22t107.5 -62.5t72 -98t26 -129.5q0 -65 -17 -111.5t-43.5 -75.5t-58.5 -42.5t-62 -13.5q-32 0 -57 13.5t-36 35.5q-23 -22 -56 -35t-70 -13zM381 215q26 0 53.5 10.5t47.5 36.5l42 194q-16 26 -44 37t-57 11q-32 0 -61.5 -11.5t-51.5 -32.5t-35 -51.5
t-13 -68.5q0 -59 31.5 -92t87.5 -33z" />
    <glyph glyph-name="A" unicode="A" horiz-adv-x="705" 
d="M352 718l343 -718h-65l-104 217h-348l-103 -217h-65zM206 276h292l-146 307z" />
    <glyph glyph-name="B" unicode="B" horiz-adv-x="613" 
d="M102 710h217q52 0 91.5 -14.5t66.5 -39.5t40.5 -57t13.5 -66q0 -60 -24 -98t-62 -58q27 -8 51.5 -23t42.5 -37.5t28.5 -53t10.5 -68.5q0 -49 -19 -85.5t-53.5 -61t-83 -36.5t-107.5 -12h-213v710zM342 57q88 0 131 39t43 102q0 31 -10.5 57t-32 45t-54 30t-76.5 11h-179
v-284h178zM328 396q68 0 104.5 36.5t36.5 91.5q0 26 -9.5 49.5t-27.5 41t-44 28t-60 10.5h-164v-257h164z" />
    <glyph glyph-name="C" unicode="C" horiz-adv-x="667" 
d="M404 -8q-77 0 -143 27.5t-115 76.5t-77 115.5t-28 143.5t28 143.5t77 115t115 76.5t143 28q65 0 122 -19.5t103 -57.5l-34 -50q-38 32 -86 50t-105 18q-64 0 -119 -23.5t-95 -64t-62.5 -96.5t-22.5 -120q0 -65 22.5 -120.5t62.5 -96t95 -64t119 -23.5q57 0 105.5 18
t86.5 50l33 -50q-45 -37 -102.5 -57t-122.5 -20z" />
    <glyph glyph-name="D" unicode="D" horiz-adv-x="725" 
d="M299 59q73 0 132 22t101 61.5t65 93.5t23 119q0 64 -23 118.5t-65 94t-101 61.5t-132 22h-135v-592h135zM102 710h197q85 0 155.5 -26.5t121.5 -74t79.5 -112.5t28.5 -142t-28.5 -142.5t-79.5 -112.5t-121.5 -73.5t-155.5 -26.5h-197v710z" />
    <glyph glyph-name="E" unicode="E" horiz-adv-x="555" 
d="M102 710h398v-59h-336v-255h276v-60h-276v-277h336v-59h-398v710z" />
    <glyph glyph-name="F" unicode="F" horiz-adv-x="494" 
d="M102 710h384v-59h-322v-255h252v-60h-252v-336h-62v710z" />
    <glyph glyph-name="G" unicode="G" horiz-adv-x="729" 
d="M404 -8q-77 0 -143 27.5t-115 76.5t-77 115.5t-28 143.5t28 143.5t77 115t115 76.5t143 28q69 0 128 -20t107 -56l-35 -50q-38 31 -88 49t-112 18q-64 0 -119 -23.5t-95 -64t-62.5 -96.5t-22.5 -120q0 -65 22.5 -120.5t62.5 -96t95 -64t119 -23.5q48 0 96 11t86 32v242
h-206l27 60h241v-335q-50 -32 -114.5 -50.5t-129.5 -18.5z" />
    <glyph glyph-name="H" unicode="H" horiz-adv-x="765" 
d="M102 710h62v-314h437v314h62v-710h-62v336h-437v-336h-62v710z" />
    <glyph glyph-name="I" unicode="I" horiz-adv-x="266" 
d="M102 710h62v-710h-62v710z" />
    <glyph glyph-name="J" unicode="J" horiz-adv-x="494" 
d="M206 -8q-42 0 -77.5 13.5t-62 38.5t-41.5 61t-15 82h62q0 -35 10.5 -60t28.5 -41.5t42.5 -25t51.5 -9.5q60 0 97.5 33.5t37.5 102.5v523h62v-533q0 -46 -15.5 -80.5t-42 -58t-62 -35t-76.5 -11.5z" />
    <glyph glyph-name="K" unicode="K" horiz-adv-x="636" 
d="M102 710h62v-355l352 355h80l-358 -362l385 -348h-87l-372 338v-338h-62v710z" />
    <glyph glyph-name="L" unicode="L" horiz-adv-x="501" 
d="M102 710h62v-651h327v-59h-389v710z" />
    <glyph glyph-name="M" unicode="M" horiz-adv-x="888" 
d="M102 718l342 -391l342 391v-718h-62v560l-280 -322l-280 322v-560h-62v718z" />
    <glyph glyph-name="N" unicode="N" horiz-adv-x="795" 
d="M164 565v-565h-62v718l529 -573v565h62v-718z" />
    <glyph glyph-name="O" unicode="O" horiz-adv-x="808" 
d="M404 51q64 0 119 23.5t95 64t62.5 96t22.5 120.5q0 64 -22.5 120t-62.5 96.5t-95 64t-119 23.5t-119 -23.5t-95 -64t-62.5 -96.5t-22.5 -120q0 -65 22.5 -120.5t62.5 -96t95 -64t119 -23.5zM404 -8q-77 0 -143 27.5t-115 76.5t-77 115.5t-28 143.5t28 143.5t77 115
t115 76.5t143 28q76 0 142.5 -28t115.5 -76.5t77 -115t28 -143.5t-28 -143.5t-77 -115.5t-115.5 -76.5t-142.5 -27.5z" />
    <glyph glyph-name="P" unicode="P" horiz-adv-x="554" 
d="M102 710h186q116 0 181 -53.5t65 -153.5q0 -97 -65 -152t-181 -55h-124v-296h-62v710zM288 353q91 0 136 38.5t45 111.5t-45 112t-136 39h-124v-301h124z" />
    <glyph glyph-name="Q" unicode="Q" horiz-adv-x="808" 
d="M641 77q-48 -40 -108 -62.5t-129 -22.5q-77 0 -143 27.5t-115 76.5t-77 115.5t-28 143.5t28 143.5t77 115t115 76.5t143 28q76 0 142.5 -28t115.5 -76.5t77 -115t28 -143.5q0 -69 -22 -128.5t-62 -107.5l86 -85l-42 -42zM404 51q57 0 106.5 18.5t87.5 50.5l-88 89l42 42
l87 -88q30 39 47 87.5t17 104.5q0 64 -22.5 120t-62.5 96.5t-95 64t-119 23.5t-119 -23.5t-95 -64t-62.5 -96.5t-22.5 -120q0 -65 22.5 -120.5t62.5 -96t95 -64t119 -23.5z" />
    <glyph glyph-name="R" unicode="R" horiz-adv-x="628" 
d="M256 321h-92v-321h-62v710h188q110 0 170.5 -51.5t60.5 -143.5q0 -82 -50.5 -133t-142.5 -60l269 -322h-77zM288 378q85 0 126.5 35.5t41.5 101.5t-41.5 101.5t-126.5 35.5h-124v-274h124z" />
    <glyph glyph-name="S" unicode="S" horiz-adv-x="524" 
d="M248 -8q-37 0 -70 8.5t-61.5 23t-51 32t-37.5 35.5l47 43q13 -16 31 -31t40 -26.5t47.5 -18.5t54.5 -7q73 0 117.5 33t44.5 89q0 59 -34.5 92t-95.5 60l-75 32q-81 35 -116 82t-35 112q0 38 17 69t45.5 52.5t65 33.5t74.5 12q63 0 114 -25.5t84 -64.5l-46 -43
q-28 33 -64 53.5t-91 20.5q-28 0 -53 -7.5t-43.5 -22t-29.5 -35.5t-11 -47q0 -45 24.5 -76t85.5 -57l75 -32q36 -15 67.5 -34t54.5 -43t36.5 -54.5t13.5 -68.5q0 -41 -15 -75.5t-44 -60t-71 -40t-95 -14.5z" />
    <glyph glyph-name="T" unicode="T" horiz-adv-x="505" 
d="M221 651h-201v59h465v-59h-202v-651h-62v651z" />
    <glyph glyph-name="U" unicode="U" horiz-adv-x="743" 
d="M371 -8q-62 0 -113 18t-87.5 52.5t-57 85t-20.5 115.5v447h62v-450q0 -53 15.5 -92t44 -65t68.5 -39t88 -13q49 0 89 13t68.5 39t44 65t15.5 92v450h62v-447q0 -65 -20.5 -115.5t-57.5 -85t-88.5 -52.5t-112.5 -18z" />
    <glyph glyph-name="V" unicode="V" horiz-adv-x="675" 
d="M15 710h65l257 -579l257 579h65l-322 -718z" />
    <glyph glyph-name="W" unicode="W" horiz-adv-x="916" 
d="M22 710h64l178 -549l194 557l194 -557l178 549h64l-241 -718l-195 565l-195 -565z" />
    <glyph glyph-name="X" unicode="X" horiz-adv-x="670" 
d="M300 365l-255 345h70l220 -298l221 298h70l-255 -345l269 -365h-72l-233 317l-232 -317h-72z" />
    <glyph glyph-name="Y" unicode="Y" 
d="M279 302l-259 408h71l220 -350l219 350h70l-259 -408v-302h-62v302z" />
    <glyph glyph-name="Z" unicode="Z" horiz-adv-x="605" 
d="M456 651h-381v59h488l-425 -651h435v-59h-542z" />
    <glyph glyph-name="bracketleft" unicode="[" horiz-adv-x="280" 
d="M83 733h167v-55h-110v-756h110v-55h-167v866z" />
    <glyph glyph-name="backslash" unicode="\" horiz-adv-x="406" 
d="M0 710h57l349 -710h-57z" />
    <glyph glyph-name="bracketright" unicode="]" horiz-adv-x="280" 
d="M197 -133h-167v55h110v756h-110v55h167v-866z" />
    <glyph glyph-name="asciicircum" unicode="^" horiz-adv-x="634" 
d="M317 711l269 -387h-63l-206 294l-206 -294h-63z" />
    <glyph glyph-name="underscore" unicode="_" horiz-adv-x="419" 
d="M0 0h419v-55h-419v55z" />
    <glyph glyph-name="grave" unicode="`" horiz-adv-x="213" 
d="M30 710h81l91 -165h-54z" />
    <glyph glyph-name="a" unicode="a" horiz-adv-x="638" 
d="M489 68q-72 -76 -184 -76q-56 0 -102.5 20.5t-80.5 55.5t-52.5 82t-18.5 100t18.5 100t52.5 82t80.5 55.5t102.5 20.5q55 0 101.5 -19t82.5 -58v69h57v-500h-57v68zM305 45q67 0 114 29t70 71v211q-24 42 -71 70.5t-113 28.5q-43 0 -79 -16.5t-61.5 -44t-40 -65
t-14.5 -79.5t14.5 -79.5t40 -65t61.5 -44t79 -16.5z" />
    <glyph glyph-name="b" unicode="b" horiz-adv-x="639" 
d="M92 710h57v-280q72 78 185 78q56 0 102.5 -20.5t80.5 -55.5t52.5 -82t18.5 -100t-18.5 -100t-52.5 -82t-80.5 -55.5t-102.5 -20.5q-114 0 -185 77v-69h-57v710zM334 455q-67 0 -114.5 -29.5t-70.5 -71.5v-209q23 -42 70.5 -71t114.5 -29q43 0 79 16.5t61.5 44t40 65
t14.5 79.5t-14.5 79.5t-40 65t-61.5 44t-79 16.5z" />
    <glyph glyph-name="c" unicode="c" horiz-adv-x="537" 
d="M305 -8q-55 0 -101.5 20.5t-80.5 55.5t-53 82t-19 100t19 100t53 82t80.5 55.5t101.5 20.5q65 0 112 -22t79 -52l-36 -41q-28 26 -66 44t-89 18q-42 0 -78 -16.5t-62 -44t-40.5 -65t-14.5 -79.5t14.5 -79.5t40.5 -65t62 -44t78 -16.5q51 0 89 18t66 44l36 -41
q-32 -30 -79 -52t-112 -22z" />
    <glyph glyph-name="d" unicode="d" horiz-adv-x="638" 
d="M489 68q-72 -76 -184 -76q-56 0 -102.5 20.5t-80.5 55.5t-52.5 82t-18.5 100t18.5 100t52.5 82t80.5 55.5t102.5 20.5q55 0 101.5 -19t82.5 -58v279h57v-710h-57v68zM305 45q67 0 114 29t70 71v211q-24 42 -71 70.5t-113 28.5q-43 0 -79 -16.5t-61.5 -44t-40 -65
t-14.5 -79.5t14.5 -79.5t40 -65t61.5 -44t79 -16.5z" />
    <glyph glyph-name="e" unicode="e" horiz-adv-x="578" 
d="M305 -8q-56 0 -102.5 20.5t-80 55.5t-52.5 82t-19 100q0 54 19 101t52 82t77.5 55t95.5 20q49 0 91.5 -15.5t74.5 -48t50.5 -81t20.5 -114.5h-422q0 -42 14.5 -79t40.5 -65t62 -44t78 -16q51 0 89.5 17.5t66.5 43.5l36 -40q-32 -30 -79.5 -52t-112.5 -22zM293 455
q-32 0 -61.5 -11t-53.5 -31.5t-40.5 -49t-23.5 -63.5h355q-4 39 -19.5 68t-39 48.5t-54 29t-63.5 9.5z" />
    <glyph glyph-name="f" unicode="f" horiz-adv-x="354" 
d="M23 500h91q-19 16 -29.5 39.5t-10.5 50.5q0 53 40.5 86.5t108.5 33.5h101v-54h-104q-36 0 -62 -18t-26 -56q0 -41 25.5 -61.5t56.5 -20.5h110v-55h-146v-445h-57v445h-98v55z" />
    <glyph glyph-name="g" unicode="g" horiz-adv-x="626" 
d="M295 -194q-57 0 -113 16t-97 44l30 48q16 -12 37.5 -22t46 -17.5t51 -11.5t52.5 -4q36 0 70.5 8t61 26t43 46t16.5 68q0 17 -3.5 39.5t-11.5 38.5q-70 -76 -181 -76q-56 0 -101 19.5t-77.5 53.5t-50 79.5t-17.5 96.5q0 52 17.5 97.5t50 79.5t77.5 53.5t101 19.5
t100 -18.5t80 -56.5v67h57v-397q9 -25 13.5 -50t4.5 -47q0 -54 -22.5 -92t-58.5 -62t-82 -35t-94 -11zM297 62q66 0 111.5 28t68.5 69v199q-23 42 -68.5 69.5t-111.5 27.5q-43 0 -77.5 -15.5t-59 -42t-37.5 -62.5t-13 -77t13 -76.5t37.5 -62t59 -42t77.5 -15.5z" />
    <glyph glyph-name="h" unicode="h" horiz-adv-x="585" 
d="M92 710h57v-282q30 45 76 62.5t96 17.5q39 0 72.5 -13t58 -38t38.5 -60.5t14 -80.5v-316h-57v308q0 72 -39 109.5t-102 37.5q-65 0 -104 -34.5t-53 -88.5v-332h-57v710z" />
    <glyph glyph-name="i" unicode="i" horiz-adv-x="239" 
d="M92 627q-10 7 -16 17.5t-6 23.5q0 20 15 35t35 15t35 -15t15 -35q0 -13 -6 -23.5t-16 -17.5h-56zM91 500h57v-500h-57v500z" />
    <glyph glyph-name="j" unicode="j" horiz-adv-x="239" 
d="M-15 -129h34q42 0 57 19.5t15 61.5v548h57v-541q0 -72 -28.5 -107.5t-101.5 -35.5h-33v55zM92 627q-10 7 -16 17.5t-6 23.5q0 20 15 35t35 15t35 -15t15 -35q0 -13 -6 -23.5t-16 -17.5h-56z" />
    <glyph glyph-name="k" unicode="k" horiz-adv-x="505" 
d="M92 710h57v-438l249 228h75l-258 -237l281 -263h-79l-268 250v-250h-57v710z" />
    <glyph glyph-name="l" unicode="l" horiz-adv-x="241" 
d="M92 710h57v-710h-57v710z" />
    <glyph glyph-name="m" unicode="m" horiz-adv-x="881" 
d="M743 308q0 71 -36 109t-93 38t-91.5 -33.5t-48.5 -87.5q1 -5 1 -9v-9v-316h-57v308q0 71 -36.5 109t-93.5 38q-53 0 -88.5 -30t-50.5 -78v-347h-57v500h57v-65q30 41 71.5 57t82.5 16q48 0 87.5 -23.5t61.5 -68.5q16 27 37 44.5t43.5 28t45.5 15t44 4.5q39 0 72 -13
t56.5 -38t36.5 -60.5t13 -80.5v-316h-57v308z" />
    <glyph glyph-name="n" unicode="n" horiz-adv-x="585" 
d="M92 500h57v-72q30 45 76 62.5t96 17.5q39 0 72.5 -13t58 -38t38.5 -60.5t14 -80.5v-316h-57v308q0 72 -39 109.5t-102 37.5q-65 0 -104 -34.5t-53 -88.5v-332h-57v500z" />
    <glyph glyph-name="o" unicode="o" 
d="M310 45q45 0 82 16.5t63.5 44t40.5 65t14 79.5t-14 79.5t-40.5 65t-63.5 44t-82 16.5t-81.5 -16.5t-63 -44t-41 -65t-14.5 -79.5t14.5 -79.5t41 -65t63 -44t81.5 -16.5zM310 -8q-57 0 -104.5 20.5t-82 55.5t-53.5 82t-19 100t19 100t53.5 82t82 55.5t104.5 20.5
t104.5 -20.5t82 -55.5t53.5 -82t19 -100t-19 -100t-53.5 -82t-82 -55.5t-104.5 -20.5z" />
    <glyph glyph-name="p" unicode="p" horiz-adv-x="639" 
d="M92 500h57v-70q72 78 185 78q56 0 102.5 -20.5t80.5 -55.5t52.5 -82t18.5 -100t-18.5 -100t-52.5 -82t-80.5 -55.5t-102.5 -20.5q-114 0 -185 77v-253h-57v684zM334 455q-67 0 -114.5 -29.5t-70.5 -71.5v-209q23 -42 70.5 -71t114.5 -29q43 0 79 16.5t61.5 44t40 65
t14.5 79.5t-14.5 79.5t-40 65t-61.5 44t-79 16.5z" />
    <glyph glyph-name="q" unicode="q" horiz-adv-x="638" 
d="M489 68q-72 -76 -184 -76q-56 0 -102.5 20.5t-80.5 55.5t-52.5 82t-18.5 100t18.5 100t52.5 82t80.5 55.5t102.5 20.5q55 0 101.5 -19t82.5 -58v69h57v-684h-57v252zM305 45q67 0 114 29t70 71v211q-24 42 -71 70.5t-113 28.5q-43 0 -79 -16.5t-61.5 -44t-40 -65
t-14.5 -79.5t14.5 -79.5t40 -65t61.5 -44t79 -16.5z" />
    <glyph glyph-name="r" unicode="r" horiz-adv-x="356" 
d="M92 500h57v-76q26 38 65 58.5t85 20.5q16 0 33 -3v-59q-22 5 -39 5q-49 0 -88 -28t-56 -76v-342h-57v500z" />
    <glyph glyph-name="s" unicode="s" horiz-adv-x="425" 
d="M206 -8q-54 0 -99.5 25t-68.5 73l49 30q20 -36 49 -55.5t73 -19.5q23 0 43.5 5.5t35.5 16t24 26t9 34.5q0 37 -22.5 59t-76.5 41l-46 16q-34 12 -56 28t-35 35t-18.5 39t-5.5 40q0 25 11 47.5t31 39.5t48 26.5t61 9.5q48 0 85.5 -23.5t56.5 -68.5l-49 -21
q-11 27 -35 43.5t-60 16.5q-37 0 -63.5 -18.5t-26.5 -52.5q0 -29 16 -52.5t67 -41.5l49 -17q63 -23 95 -58t32 -87q0 -27 -11.5 -51.5t-33.5 -43t-54.5 -30t-73.5 -11.5z" />
    <glyph glyph-name="t" unicode="t" horiz-adv-x="356" 
d="M5 500h100v122l57 28v-150h149l-13 -55h-136v-311q0 -42 17.5 -60.5t63.5 -18.5h61v-55h-62q-67 0 -102 30t-35 102v313h-87z" />
    <glyph glyph-name="u" unicode="u" horiz-adv-x="567" 
d="M418 70q-31 -44 -77 -61t-94 -17q-39 0 -73 13t-58.5 38t-38.5 60.5t-14 80.5v316h57v-308q0 -72 39.5 -109.5t102.5 -37.5t102.5 34t53.5 88v333h57v-500h-57v70z" />
    <glyph glyph-name="v" unicode="v" horiz-adv-x="527" 
d="M10 500h64l190 -388l189 388h64l-253 -508z" />
    <glyph glyph-name="w" unicode="w" horiz-adv-x="721" 
d="M30 500h59l126 -400l146 408l145 -408l126 400h59l-159 -500h-41l-130 359l-128 -359h-43z" />
    <glyph glyph-name="x" unicode="x" horiz-adv-x="539" 
d="M236 255l-191 245h67l158 -201l158 201h67l-191 -245l201 -255h-67l-168 213l-168 -213h-67z" />
    <glyph glyph-name="y" unicode="y" horiz-adv-x="509" 
d="M224 55l-214 445h64l180 -389l181 389h64l-329 -684h-61z" />
    <glyph glyph-name="z" unicode="z" horiz-adv-x="505" 
d="M355 445h-290v55h393l-321 -445h315v-55h-417z" />
    <glyph glyph-name="braceleft" unicode="{" horiz-adv-x="283" 
d="M219 -133q-37 0 -60.5 9t-37 26.5t-18.5 44.5t-5 63v183q0 40 -10 59.5t-50 19.5h-18v55h18q40 0 50 19.5t10 59.5v184q0 36 5 63t18.5 44.5t37 26.5t60.5 9h33v-55h-33q-41 0 -52 -20t-11 -61v-182q0 -47 -9 -73t-41 -42q32 -18 41 -43.5t9 -72.5v-181q0 -42 11 -61.5
t52 -19.5h33v-55h-33v0z" />
    <glyph glyph-name="bar" unicode="|" horiz-adv-x="222" 
d="M83 710h57v-894h-57v894z" />
    <glyph glyph-name="braceright" unicode="}" horiz-adv-x="283" 
d="M64 -133h-33v55h33q41 0 52 19.5t11 61.5v181q0 47 9 72.5t41 43.5q-32 16 -41 42t-9 73v182q0 41 -11 61t-52 20h-33v55h33q37 0 60.5 -9t37 -26.5t18.5 -44.5t5 -63v-184q0 -40 10 -59.5t50 -19.5h18v-55h-18q-40 0 -50 -19.5t-10 -59.5v-183q0 -36 -5 -63t-18.5 -44.5
t-37 -26.5t-60.5 -9z" />
    <glyph glyph-name="asciitilde" unicode="~" horiz-adv-x="643" 
d="M112 267l108 73l198 -76l113 74v-60l-109 -76l-198 76l-112 -76v65z" />
    <glyph glyph-name="uni00A0" unicode="&#xa0;" horiz-adv-x="255" 
 />
    <glyph glyph-name="exclamdown" unicode="&#xa1;" horiz-adv-x="233" 
d="M87 86l11 211h36l10 -211v-270h-57v270zM88 395q-13 8 -21 24t-8 32q0 24 17.5 40.5t40.5 16.5t40 -19.5t17 -43.5q0 -17 -8 -30t-22 -20h-56z" />
    <glyph glyph-name="cent" unicode="&#xa2;" horiz-adv-x="537" 
d="M283 -7q-51 4 -93.5 25.5t-73.5 56t-48 79.5t-17 96t17 95.5t48 79t73.5 56.5t93.5 26v81h42v-81q57 -4 99.5 -24.5t71.5 -48.5l-36 -41q-28 26 -66 44t-89 18q-42 0 -78 -16.5t-62 -44t-40.5 -65t-14.5 -79.5t14.5 -79.5t40.5 -65t62 -44t78 -16.5q51 0 89 18t66 44
l36 -41q-29 -28 -71.5 -48.5t-99.5 -24.5v-81h-42v81z" />
    <glyph glyph-name="sterling" unicode="&#xa3;" horiz-adv-x="611" 
d="M82 365h105q-32 28 -50.5 67.5t-18.5 85.5q0 42 15 78.5t42 63.5t64.5 42.5t82.5 15.5q46 0 84 -16t65 -44t42 -65.5t15 -79.5h-59q0 31 -10.5 58.5t-29.5 48.5t-46 33t-61 12q-33 0 -60 -11.5t-46.5 -31t-30 -46.5t-10.5 -58t10.5 -59t30 -49t46.5 -33t60 -12h84v-54
h-166v-256h324v-55h-482v55h100v256h-100v54z" />
    <glyph glyph-name="currency" unicode="&#xa4;" horiz-adv-x="602" 
d="M40 135l69 70q-23 29 -35 65t-12 76q0 41 12 77t34 66l-68 69l43 42l68 -67q30 24 67.5 38t79.5 14q43 0 81.5 -14t69.5 -40l70 69l43 -42l-70 -72q21 -29 33 -65t12 -75t-12 -74.5t-34 -64.5l71 -72l-43 -43l-71 70q-31 -25 -69 -38.5t-81 -13.5q-42 0 -79 13.5
t-67 36.5l-69 -68zM297 163q40 0 74 14t58 39t37.5 58t13.5 72q0 40 -13.5 74t-37.5 59.5t-58 40t-74 14.5q-38 0 -70.5 -14.5t-55.5 -40t-36 -59.5t-13 -74q0 -39 13 -72t36 -58t55.5 -39t70.5 -14z" />
    <glyph glyph-name="yen" unicode="&#xa5;" 
d="M130 318h141l-249 392h66l222 -350l221 350h66l-249 -392h142v-55h-152v-75h152v-55h-152v-133h-57v133h-151v55h151v75h-151v55z" />
    <glyph glyph-name="brokenbar" unicode="&#xa6;" horiz-adv-x="222" 
d="M83 200h57v-384h-57v384zM83 710h57v-383h-57v383z" />
    <glyph glyph-name="section" unicode="&#xa7;" horiz-adv-x="568" 
d="M258 -194q-54 0 -97.5 27.5t-71.5 78.5l49 29q20 -39 49.5 -60.5t73.5 -21.5q23 0 43.5 7t35.5 19.5t24 30t9 38.5q0 35 -21.5 62t-69.5 44l-29 8q-79 20 -123.5 71t-44.5 131q0 30 9 58t25.5 52t39 42.5t49.5 27.5l-14 9q-36 26 -49.5 59t-13.5 65q0 28 11 52.5t31 43
t48 29t61 10.5q48 0 85.5 -26t56.5 -74l-48 -18q-12 29 -36 47t-60 18q-37 0 -63.5 -22.5t-26.5 -60.5q0 -23 11.5 -50t41.5 -45q9 -5 21.5 -9.5t26.5 -6.5q38 -7 72.5 -20.5t61 -37t42.5 -59t16 -84.5q0 -63 -33 -112.5t-92 -74.5l15 -10q58 -44 58 -118q0 -29 -11.5 -56
t-33.5 -47.5t-54.5 -33t-73.5 -12.5zM284 116q31 0 57 12t44.5 33t28.5 49t10 60q0 31 -10 58t-28.5 46t-44.5 30t-57 11t-57 -11t-44.5 -30t-29 -46t-10.5 -58q0 -32 10.5 -60t29 -49t44.5 -33t57 -12z" />
    <glyph glyph-name="dieresis" unicode="&#xa8;" horiz-adv-x="341" 
d="M61 580q-22 0 -37 15t-15 37t15 37t37 15t37 -15t15 -37t-15 -37t-37 -15zM281 580q-22 0 -37 15t-15 37t15 37t37 15t37 -15t15 -37t-15 -37t-37 -15z" />
    <glyph glyph-name="copyright" unicode="&#xa9;" horiz-adv-x="808" 
d="M421 144q-47 0 -86.5 17t-68 45.5t-44 67t-15.5 81.5q0 44 15.5 83t44 68t68 45.5t86.5 16.5q52 0 91 -19.5t68 -53.5l-38 -33q-20 26 -50.5 41.5t-70.5 15.5q-35 0 -64.5 -13t-50.5 -35t-33 -52t-12 -64t12 -63.5t33 -51t50.5 -34t64.5 -12.5q38 0 68 14.5t50 38.5
l37 -36q-29 -30 -67 -48.5t-88 -18.5zM403 49q63 0 119 24t98 66t66 97.5t24 118.5t-24 119t-66 98t-98 66t-119 24t-118.5 -24t-97.5 -66t-66 -98t-24 -119t24 -118.5t66 -97.5t97.5 -66t118.5 -24zM404 -8q-75 0 -141 28.5t-115.5 78t-78 115.5t-28.5 141t28.5 141
t78 115.5t115.5 78t141 28.5t141 -28.5t115.5 -78t78 -115.5t28.5 -141t-28.5 -141t-78 -115.5t-115.5 -78t-141 -28.5z" />
    <glyph glyph-name="ordfeminine" unicode="&#xaa;" horiz-adv-x="375" 
d="M279 442q-42 -37 -99 -37q-33 0 -61.5 12t-48.5 33t-31.5 49t-11.5 61t11.5 61t31.5 49t48.5 33t61.5 12q57 0 99 -37v32h47v-300h-47v32zM181 449q34 0 59 14.5t39 36.5v120q-14 22 -39 36.5t-59 14.5q-47 0 -76 -32.5t-29 -78.5t29 -78.5t76 -32.5z" />
    <glyph glyph-name="guillemotleft" unicode="&#xab;" horiz-adv-x="466" 
d="M221 250l147 213l46 -30l-126 -183l126 -183l-46 -30zM31 250l147 213l46 -30l-126 -183l126 -183l-46 -30z" />
    <glyph glyph-name="logicalnot" unicode="&#xac;" horiz-adv-x="664" 
d="M495 243h-383v55h440v-244h-57v189z" />
    <glyph glyph-name="uni00AD" unicode="&#xad;" horiz-adv-x="329" 
d="M51 303h227v-65h-227v65z" />
    <glyph glyph-name="registered" unicode="&#xae;" horiz-adv-x="808" 
d="M404 -8q-75 0 -141 28.5t-115.5 78t-78 115.5t-28.5 141t28.5 141t78 115.5t115.5 78t141 28.5t141 -28.5t115.5 -78t78 -115.5t28.5 -141t-28.5 -141t-78 -115.5t-115.5 -78t-141 -28.5zM403 49q63 0 119 24t98 66t66 97.5t24 118.5t-24 119t-66 98t-98 66t-119 24
t-118.5 -24t-97.5 -66t-66 -98t-24 -119t24 -118.5t66 -97.5t97.5 -66t118.5 -24zM398 328h-64v-181h-55v418h151q30 0 54 -9t41.5 -25t26.5 -37.5t9 -46.5q0 -45 -27 -77t-75 -40l134 -183h-65zM427 381q39 0 57.5 19t18.5 45t-18.5 45t-57.5 19h-93v-128h93z" />
    <glyph glyph-name="macron" unicode="&#xaf;" horiz-adv-x="322" 
d="M22 680h278v-51h-278v51z" />
    <glyph glyph-name="degree" unicode="&#xb0;" horiz-adv-x="388" 
d="M194 519q30 0 51.5 21.5t21.5 51.5t-21.5 51.5t-51.5 21.5t-51.5 -21.5t-21.5 -51.5t21.5 -51.5t51.5 -21.5zM194 470q-25 0 -47.5 9.5t-39 26t-26 39t-9.5 47.5t9.5 47.5t26 39t39 26t47.5 9.5t47.5 -9.5t39 -26t26 -39t9.5 -47.5t-9.5 -47.5t-26 -39t-39 -26
t-47.5 -9.5z" />
    <glyph glyph-name="plusminus" unicode="&#xb1;" horiz-adv-x="664" 
d="M112 347h191v153h58v-153h191v-55h-191v-159h-58v159h-191v55zM112 55h440v-55h-440v55z" />
    <glyph glyph-name="uni00B2" unicode="&#xb2;" horiz-adv-x="327" 
d="M164 631q35 0 58.5 23.5t23.5 59.5t-23.5 60t-58.5 24t-57.5 -24t-22.5 -60t22.5 -59.5t57.5 -23.5zM186 592q-14 -3 -26 -3q-27 1 -49.5 11t-39 27t-25.5 39t-9 48q0 27 10 50t27 40t40 27t50 10t50.5 -10t40.5 -27t27 -40t10 -50q0 -39 -18.5 -73t-58.5 -78l-100 -109
h178v-44h-277z" />
    <glyph glyph-name="uni00B3" unicode="&#xb3;" horiz-adv-x="312" 
d="M142 405q-38 0 -71 18.5t-51 48.5l37 27q11 -21 33 -36t51 -15q42 0 69 26.5t27 69.5t-27 70.5t-72 27.5h-37l89 150h-153v44h226q-25 -42 -44 -75l-16 -28t-15 -25t-11 -18.5t-5 -8.5q54 -9 83.5 -47.5t29.5 -89.5q0 -29 -10.5 -54t-29 -44t-45 -30t-58.5 -11z" />
    <glyph glyph-name="acute" unicode="&#xb4;" horiz-adv-x="213" 
d="M102 710h81l-118 -165h-54z" />
    <glyph glyph-name="mu" unicode="&#xb5;" horiz-adv-x="596" 
d="M92 316h57v-500h-57v500zM447 70q-31 -44 -77 -61t-94 -17q-39 0 -73 13t-58.5 38t-38.5 60.5t-14 80.5v316h57v-308q0 -72 39.5 -109.5t102.5 -37.5t102.5 34t53.5 88v333h57v-500h-57v70z" />
    <glyph glyph-name="mu" unicode="&#x3bc;" horiz-adv-x="596" 
d="M92 316h57v-500h-57v500zM447 70q-31 -44 -77 -61t-94 -17q-39 0 -73 13t-58.5 38t-38.5 60.5t-14 80.5v316h57v-308q0 -72 39.5 -109.5t102.5 -37.5t102.5 34t53.5 88v333h57v-500h-57v70z" />
    <glyph glyph-name="paragraph" unicode="&#xb6;" horiz-adv-x="634" 
d="M290 260q-47 0 -87.5 17.5t-71.5 48.5t-48.5 71.5t-17.5 87.5q0 46 17.5 87t48.5 72t71.5 48.5t87.5 17.5h232v-894h-57v839h-118v-839h-57v444z" />
    <glyph glyph-name="periodcentered" unicode="&#xb7;" horiz-adv-x="244" 
d="M122 207q-25 0 -42 18t-17 41q0 25 17 43t42 18t42 -18t17 -43q0 -23 -17 -41t-42 -18z" />
    <glyph glyph-name="cedilla" unicode="&#xb8;" horiz-adv-x="126" 
d="M61 0h40l-52 -137h-74z" />
    <glyph glyph-name="uni00B9" unicode="&#xb9;" horiz-adv-x="176" 
d="M65 798l47 52v-440h-47v388z" />
    <glyph glyph-name="ordmasculine" unicode="&#xba;" horiz-adv-x="365" 
d="M183 449q24 0 43.5 9t34 24t22 35t7.5 43t-7.5 43t-22 35t-34 24t-43.5 9t-43.5 -9t-34 -24t-22 -35t-7.5 -43t7.5 -43t22 -35t34 -24t43.5 -9zM183 405q-34 0 -62.5 12t-49.5 33t-32.5 49.5t-11.5 60.5t11.5 60.5t32.5 49.5t49.5 33t62.5 12t62.5 -12t49 -33t32 -49.5
t11.5 -60.5t-11.5 -60.5t-32 -49.5t-49 -33t-62.5 -12z" />
    <glyph glyph-name="guillemotright" unicode="&#xbb;" horiz-adv-x="466" 
d="M286 37l-46 30l126 183l-126 183l46 30l147 -213zM96 37l-46 30l126 183l-126 183l46 30l147 -213z" />
    <glyph glyph-name="onequarter" unicode="&#xbc;" horiz-adv-x="734" 
d="M78 677l47 47v-440h-47v393zM38 0l500 710h50l-500 -710h-50zM621 120h-243l290 320v-277h57v-43h-57v-120h-47v120zM621 163v161l-146 -161h146z" />
    <glyph glyph-name="onehalf" unicode="&#xbd;" horiz-adv-x="760" 
d="M78 677l47 47v-440h-47v393zM38 0l500 710h50l-500 -710h-50zM599 182q-14 -3 -26 -3q-27 1 -49.5 11t-39 27t-25.5 39t-9 48q0 27 10 50t27 40t40 27t50 10t50.5 -10t40.5 -27t27 -40t10 -50q0 -39 -18.5 -73t-58.5 -78l-100 -109h178v-44h-277zM577 221q35 0 58.5 23.5
t23.5 59.5t-23.5 60t-58.5 24t-57.5 -24t-22.5 -60t22.5 -59.5t57.5 -23.5z" />
    <glyph glyph-name="threequarters" unicode="&#xbe;" horiz-adv-x="839" 
d="M162 279q-38 0 -71 18.5t-51 48.5l37 27q11 -21 33 -36t51 -15q42 0 69 26.5t27 69.5t-27 70.5t-72 27.5h-37l89 150h-153v44h226q-25 -42 -44 -75l-16 -28t-15 -25t-11 -18.5t-5 -8.5q54 -9 83.5 -47.5t29.5 -89.5q0 -29 -10.5 -54t-29 -44t-45 -30t-58.5 -11zM143 0
l500 710h50l-500 -710h-50zM726 120h-243l290 320v-277h57v-43h-57v-120h-47v120zM726 163v161l-146 -161h146z" />
    <glyph glyph-name="questiondown" unicode="&#xbf;" horiz-adv-x="456" 
d="M229 -194q-42 0 -79.5 16t-65.5 43.5t-44.5 65t-16.5 81.5q0 43 16.5 81t45.5 65.5t68.5 43.5t86.5 16h53v-55h-55q-35 0 -64 -11t-50 -31.5t-32.5 -48t-11.5 -60.5t11.5 -61t31 -48.5t46.5 -32t59 -11.5t59 11.5t47 32t31 48.5t11 61h59q0 -44 -16 -81.5t-44 -65
t-65.5 -43.5t-80.5 -16zM209 395q-14 8 -23 22.5t-9 31.5q0 23 17 41t42 18t42 -18t17 -41q0 -17 -9 -31.5t-23 -22.5h-54z" />
    <glyph glyph-name="Agrave" unicode="&#xc0;" horiz-adv-x="705" 
d="M352 718l343 -718h-65l-104 217h-348l-103 -217h-65zM206 276h292l-146 307zM216 913h82l82 -145h-56z" />
    <glyph glyph-name="Aacute" unicode="&#xc1;" horiz-adv-x="705" 
d="M352 718l343 -718h-65l-104 217h-348l-103 -217h-65zM206 276h292l-146 307zM408 913h82l-109 -145h-55z" />
    <glyph glyph-name="Acircumflex" unicode="&#xc2;" horiz-adv-x="705" 
d="M352 718l343 -718h-65l-104 217h-348l-103 -217h-65zM206 276h292l-146 307zM180 816l172 112l173 -111l-32 -44l-141 93l-141 -93z" />
    <glyph glyph-name="Atilde" unicode="&#xc3;" horiz-adv-x="705" 
d="M352 718l343 -718h-65l-104 217h-348l-103 -217h-65zM206 276h292l-146 307zM418 789q-21 0 -39 7.5t-33.5 16.5t-30 16.5t-28.5 7.5q-21 0 -32 -11.5t-16 -34.5h-55l3 14q9 42 38 64.5t62 22.5q21 0 38 -7.5t32.5 -16t29.5 -16t28 -7.5q22 0 33.5 11t16.5 34h55l-3 -14
q-8 -40 -35.5 -63.5t-63.5 -23.5z" />
    <glyph glyph-name="Adieresis" unicode="&#xc4;" horiz-adv-x="705" 
d="M352 718l343 -718h-65l-104 217h-348l-103 -217h-65zM206 276h292l-146 307zM242 791q-22 0 -37 15t-15 37t15 37t37 15t37 -15t15 -37t-15 -37t-37 -15zM462 791q-22 0 -37 15t-15 37t15 37t37 15t37 -15t15 -37t-15 -37t-37 -15z" />
    <glyph glyph-name="Aring" unicode="&#xc5;" horiz-adv-x="705" 
d="M352 718l343 -718h-65l-104 217h-348l-103 -217h-65zM206 276h292l-146 307zM351 788q21 0 35.5 13t14.5 35t-14.5 35.5t-35.5 13.5q-20 0 -34.5 -13.5t-14.5 -35.5t14.5 -35t34.5 -13zM351 751q-37 0 -63 24t-26 61q0 38 26.5 61.5t62.5 23.5q38 0 64.5 -23.5
t26.5 -61.5q0 -37 -26.5 -61t-64.5 -24z" />
    <glyph glyph-name="AE" unicode="&#xc6;" horiz-adv-x="1041" 
d="M320 650l-29 60h401l28 -59h-336l122 -255h297l29 -60h-298l133 -277h336l28 -59h-401l-104 217h-348l-103 -217h-65zM206 276h292l-146 307z" />
    <glyph glyph-name="Ccedilla" unicode="&#xc7;" horiz-adv-x="667" 
d="M404 -8q-77 0 -143 27.5t-115 76.5t-77 115.5t-28 143.5t28 143.5t77 115t115 76.5t143 28q65 0 122 -19.5t103 -57.5l-34 -50q-38 32 -86 50t-105 18q-64 0 -119 -23.5t-95 -64t-62.5 -96.5t-22.5 -120q0 -65 22.5 -120.5t62.5 -96t95 -64t119 -23.5q57 0 105.5 18
t86.5 50l33 -50q-45 -37 -102.5 -57t-122.5 -20zM368 0h52l-40 -137h-83z" />
    <glyph glyph-name="Egrave" unicode="&#xc8;" horiz-adv-x="555" 
d="M102 710h398v-59h-336v-255h276v-60h-276v-277h336v-59h-398v710zM192 913h82l82 -145h-56z" />
    <glyph glyph-name="Eacute" unicode="&#xc9;" horiz-adv-x="555" 
d="M102 710h398v-59h-336v-255h276v-60h-276v-277h336v-59h-398v710zM329 913h82l-109 -145h-55z" />
    <glyph glyph-name="Ecircumflex" unicode="&#xca;" horiz-adv-x="555" 
d="M102 710h398v-59h-336v-255h276v-60h-276v-277h336v-59h-398v710zM129 816l172 112l173 -111l-32 -44l-141 93l-141 -93z" />
    <glyph glyph-name="Edieresis" unicode="&#xcb;" horiz-adv-x="555" 
d="M102 710h398v-59h-336v-255h276v-60h-276v-277h336v-59h-398v710zM191 791q-22 0 -37 15t-15 37t15 37t37 15t37 -15t15 -37t-15 -37t-37 -15zM411 791q-22 0 -37 15t-15 37t15 37t37 15t37 -15t15 -37t-15 -37t-37 -15z" />
    <glyph glyph-name="Igrave" unicode="&#xcc;" horiz-adv-x="266" 
d="M102 710h62v-710h-62v710zM26 913h82l82 -145h-56z" />
    <glyph glyph-name="Iacute" unicode="&#xcd;" horiz-adv-x="266" 
d="M102 710h62v-710h-62v710zM158 913h82l-109 -145h-55z" />
    <glyph glyph-name="Icircumflex" unicode="&#xce;" horiz-adv-x="266" 
d="M102 710h62v-710h-62v710zM-38 816l172 112l173 -111l-32 -44l-141 93l-141 -93z" />
    <glyph glyph-name="Idieresis" unicode="&#xcf;" horiz-adv-x="266" 
d="M102 710h62v-710h-62v710zM24 791q-22 0 -37 15t-15 37t15 37t37 15t37 -15t15 -37t-15 -37t-37 -15zM244 791q-22 0 -37 15t-15 37t15 37t37 15t37 -15t15 -37t-15 -37t-37 -15z" />
    <glyph glyph-name="Eth" unicode="&#xd0;" horiz-adv-x="740" 
d="M13 400h104v310h197q85 0 155.5 -26.5t121.5 -74t79.5 -112.5t28.5 -142t-28.5 -142.5t-79.5 -112.5t-121.5 -73.5t-155.5 -26.5h-197v342h-104v58zM314 59q73 0 132 22t101 61.5t65 93.5t23 119q0 64 -23 118.5t-65 94t-101 61.5t-132 22h-135v-251h140v-58h-140v-283
h135z" />
    <glyph glyph-name="Ntilde" unicode="&#xd1;" horiz-adv-x="795" 
d="M164 565v-565h-62v718l529 -573v565h62v-718zM463 789q-21 0 -39 7.5t-33.5 16.5t-30 16.5t-28.5 7.5q-21 0 -32 -11.5t-16 -34.5h-55l3 14q9 42 38 64.5t62 22.5q21 0 38 -7.5t32.5 -16t29.5 -16t28 -7.5q22 0 33.5 11t16.5 34h55l-3 -14q-8 -40 -35.5 -63.5
t-63.5 -23.5z" />
    <glyph glyph-name="Ograve" unicode="&#xd2;" horiz-adv-x="808" 
d="M404 51q64 0 119 23.5t95 64t62.5 96t22.5 120.5q0 64 -22.5 120t-62.5 96.5t-95 64t-119 23.5t-119 -23.5t-95 -64t-62.5 -96.5t-22.5 -120q0 -65 22.5 -120.5t62.5 -96t95 -64t119 -23.5zM404 -8q-77 0 -143 27.5t-115 76.5t-77 115.5t-28 143.5t28 143.5t77 115
t115 76.5t143 28q76 0 142.5 -28t115.5 -76.5t77 -115t28 -143.5t-28 -143.5t-77 -115.5t-115.5 -76.5t-142.5 -27.5zM295 913h82l82 -145h-56z" />
    <glyph glyph-name="Oacute" unicode="&#xd3;" horiz-adv-x="808" 
d="M404 51q64 0 119 23.5t95 64t62.5 96t22.5 120.5q0 64 -22.5 120t-62.5 96.5t-95 64t-119 23.5t-119 -23.5t-95 -64t-62.5 -96.5t-22.5 -120q0 -65 22.5 -120.5t62.5 -96t95 -64t119 -23.5zM404 -8q-77 0 -143 27.5t-115 76.5t-77 115.5t-28 143.5t28 143.5t77 115
t115 76.5t143 28q76 0 142.5 -28t115.5 -76.5t77 -115t28 -143.5t-28 -143.5t-77 -115.5t-115.5 -76.5t-142.5 -27.5zM429 913h82l-109 -145h-55z" />
    <glyph glyph-name="Ocircumflex" unicode="&#xd4;" horiz-adv-x="808" 
d="M404 51q64 0 119 23.5t95 64t62.5 96t22.5 120.5q0 64 -22.5 120t-62.5 96.5t-95 64t-119 23.5t-119 -23.5t-95 -64t-62.5 -96.5t-22.5 -120q0 -65 22.5 -120.5t62.5 -96t95 -64t119 -23.5zM404 -8q-77 0 -143 27.5t-115 76.5t-77 115.5t-28 143.5t28 143.5t77 115
t115 76.5t143 28q76 0 142.5 -28t115.5 -76.5t77 -115t28 -143.5t-28 -143.5t-77 -115.5t-115.5 -76.5t-142.5 -27.5zM232 816l172 112l173 -111l-32 -44l-141 93l-141 -93z" />
    <glyph glyph-name="Otilde" unicode="&#xd5;" horiz-adv-x="808" 
d="M404 51q64 0 119 23.5t95 64t62.5 96t22.5 120.5q0 64 -22.5 120t-62.5 96.5t-95 64t-119 23.5t-119 -23.5t-95 -64t-62.5 -96.5t-22.5 -120q0 -65 22.5 -120.5t62.5 -96t95 -64t119 -23.5zM404 -8q-77 0 -143 27.5t-115 76.5t-77 115.5t-28 143.5t28 143.5t77 115
t115 76.5t143 28q76 0 142.5 -28t115.5 -76.5t77 -115t28 -143.5t-28 -143.5t-77 -115.5t-115.5 -76.5t-142.5 -27.5zM470 789q-21 0 -39 7.5t-33.5 16.5t-30 16.5t-28.5 7.5q-21 0 -32 -11.5t-16 -34.5h-55l3 14q9 42 38 64.5t62 22.5q21 0 38 -7.5t32.5 -16t29.5 -16
t28 -7.5q22 0 33.5 11t16.5 34h55l-3 -14q-8 -40 -35.5 -63.5t-63.5 -23.5z" />
    <glyph glyph-name="Odieresis" unicode="&#xd6;" horiz-adv-x="808" 
d="M404 51q64 0 119 23.5t95 64t62.5 96t22.5 120.5q0 64 -22.5 120t-62.5 96.5t-95 64t-119 23.5t-119 -23.5t-95 -64t-62.5 -96.5t-22.5 -120q0 -65 22.5 -120.5t62.5 -96t95 -64t119 -23.5zM404 -8q-77 0 -143 27.5t-115 76.5t-77 115.5t-28 143.5t28 143.5t77 115
t115 76.5t143 28q76 0 142.5 -28t115.5 -76.5t77 -115t28 -143.5t-28 -143.5t-77 -115.5t-115.5 -76.5t-142.5 -27.5zM294 791q-22 0 -37 15t-15 37t15 37t37 15t37 -15t15 -37t-15 -37t-37 -15zM514 791q-22 0 -37 15t-15 37t15 37t37 15t37 -15t15 -37t-15 -37t-37 -15z
" />
    <glyph glyph-name="multiply" unicode="&#xd7;" horiz-adv-x="591" 
d="M112 124l146 146l-146 146l37 37l146 -146l146 146l37 -37l-146 -146l147 -146l-38 -38l-146 146l-146 -146z" />
    <glyph glyph-name="Oslash" unicode="&#xd8;" horiz-adv-x="808" 
d="M87 20l62 73q-51 49 -79.5 116t-28.5 146q0 77 28 143.5t77 115t115 76.5t143 28q62 0 116.5 -18.5t99.5 -50.5l69 81l38 -34l-68 -80q51 -49 79.5 -116t28.5 -145q0 -77 -28 -143.5t-77 -115.5t-115.5 -76.5t-142.5 -27.5q-62 0 -116.5 18t-99.5 50l-63 -74zM105 355
q0 -64 22 -118.5t62 -96.5l392 463q-37 26 -81.5 41t-95.5 15q-64 0 -119 -23.5t-95 -64t-62.5 -96.5t-22.5 -120zM404 51q64 0 119 23.5t95 64t62.5 96t22.5 120.5q0 64 -22.5 118.5t-61.5 95.5l-392 -462q37 -27 81.5 -41.5t95.5 -14.5z" />
    <glyph glyph-name="Ugrave" unicode="&#xd9;" horiz-adv-x="743" 
d="M371 -8q-62 0 -113 18t-87.5 52.5t-57 85t-20.5 115.5v447h62v-450q0 -53 15.5 -92t44 -65t68.5 -39t88 -13q49 0 89 13t68.5 39t44 65t15.5 92v450h62v-447q0 -65 -20.5 -115.5t-57.5 -85t-88.5 -52.5t-112.5 -18zM262 913h82l82 -145h-56z" />
    <glyph glyph-name="Uacute" unicode="&#xda;" horiz-adv-x="743" 
d="M371 -8q-62 0 -113 18t-87.5 52.5t-57 85t-20.5 115.5v447h62v-450q0 -53 15.5 -92t44 -65t68.5 -39t88 -13q49 0 89 13t68.5 39t44 65t15.5 92v450h62v-447q0 -65 -20.5 -115.5t-57.5 -85t-88.5 -52.5t-112.5 -18zM399 913h82l-109 -145h-55z" />
    <glyph glyph-name="Ucircumflex" unicode="&#xdb;" horiz-adv-x="743" 
d="M371 -8q-62 0 -113 18t-87.5 52.5t-57 85t-20.5 115.5v447h62v-450q0 -53 15.5 -92t44 -65t68.5 -39t88 -13q49 0 89 13t68.5 39t44 65t15.5 92v450h62v-447q0 -65 -20.5 -115.5t-57.5 -85t-88.5 -52.5t-112.5 -18zM199 816l172 112l173 -111l-32 -44l-141 93l-141 -93z
" />
    <glyph glyph-name="Udieresis" unicode="&#xdc;" horiz-adv-x="743" 
d="M371 -8q-62 0 -113 18t-87.5 52.5t-57 85t-20.5 115.5v447h62v-450q0 -53 15.5 -92t44 -65t68.5 -39t88 -13q49 0 89 13t68.5 39t44 65t15.5 92v450h62v-447q0 -65 -20.5 -115.5t-57.5 -85t-88.5 -52.5t-112.5 -18zM261 791q-22 0 -37 15t-15 37t15 37t37 15t37 -15
t15 -37t-15 -37t-37 -15zM481 791q-22 0 -37 15t-15 37t15 37t37 15t37 -15t15 -37t-15 -37t-37 -15z" />
    <glyph glyph-name="Yacute" unicode="&#xdd;" 
d="M279 302l-259 408h71l220 -350l219 350h70l-259 -408v-302h-62v302zM358 913h82l-109 -145h-55z" />
    <glyph glyph-name="Thorn" unicode="&#xde;" horiz-adv-x="554" 
d="M102 710h62v-146h116q119 0 186.5 -54.5t67.5 -152.5q0 -97 -67.5 -151.5t-186.5 -54.5h-116v-151h-62v710zM280 207q94 0 141.5 38.5t47.5 111.5t-47.5 112t-141.5 39h-116v-301h116z" />
    <glyph glyph-name="germandbls" unicode="&#xdf;" horiz-adv-x="524" 
d="M83 578q0 72 35 102t102 30h27v-55h-26q-46 0 -63.5 -18.5t-17.5 -60.5v-76h315l-161 -259q51 -5 89 -22.5t64 -45.5t39 -65t13 -80q0 -45 -17.5 -84t-49 -67.5t-75 -44.5t-95.5 -16h-31v53h32q37 0 69 10.5t56 30.5t38 50t14 68q0 80 -49.5 121t-129.5 41h-59l159 255
h-221v-445h-57v578z" />
    <glyph glyph-name="agrave" unicode="&#xe0;" horiz-adv-x="638" 
d="M489 68q-72 -76 -184 -76q-56 0 -102.5 20.5t-80.5 55.5t-52.5 82t-18.5 100t18.5 100t52.5 82t80.5 55.5t102.5 20.5q55 0 101.5 -19t82.5 -58v69h57v-500h-57v68zM305 45q67 0 114 29t70 71v211q-24 42 -71 70.5t-113 28.5q-43 0 -79 -16.5t-61.5 -44t-40 -65
t-14.5 -79.5t14.5 -79.5t40 -65t61.5 -44t79 -16.5zM184 710h81l91 -165h-54z" />
    <glyph glyph-name="aacute" unicode="&#xe1;" horiz-adv-x="638" 
d="M489 68q-72 -76 -184 -76q-56 0 -102.5 20.5t-80.5 55.5t-52.5 82t-18.5 100t18.5 100t52.5 82t80.5 55.5t102.5 20.5q55 0 101.5 -19t82.5 -58v69h57v-500h-57v68zM305 45q67 0 114 29t70 71v211q-24 42 -71 70.5t-113 28.5q-43 0 -79 -16.5t-61.5 -44t-40 -65
t-14.5 -79.5t14.5 -79.5t40 -65t61.5 -44t79 -16.5zM369 710h81l-118 -165h-54z" />
    <glyph glyph-name="acircumflex" unicode="&#xe2;" horiz-adv-x="638" 
d="M489 68q-72 -76 -184 -76q-56 0 -102.5 20.5t-80.5 55.5t-52.5 82t-18.5 100t18.5 100t52.5 82t80.5 55.5t102.5 20.5q55 0 101.5 -19t82.5 -58v69h57v-500h-57v68zM305 45q67 0 114 29t70 71v211q-24 42 -71 70.5t-113 28.5q-43 0 -79 -16.5t-61.5 -44t-40 -65
t-14.5 -79.5t14.5 -79.5t40 -65t61.5 -44t79 -16.5zM152 606l167 112l166 -111l-27 -44l-139 95l-140 -95z" />
    <glyph glyph-name="atilde" unicode="&#xe3;" horiz-adv-x="638" 
d="M489 68q-72 -76 -184 -76q-56 0 -102.5 20.5t-80.5 55.5t-52.5 82t-18.5 100t18.5 100t52.5 82t80.5 55.5t102.5 20.5q55 0 101.5 -19t82.5 -58v69h57v-500h-57v68zM305 45q67 0 114 29t70 71v211q-24 42 -71 70.5t-113 28.5q-43 0 -79 -16.5t-61.5 -44t-40 -65
t-14.5 -79.5t14.5 -79.5t40 -65t61.5 -44t79 -16.5zM156 585q9 42 36.5 64t60.5 22q21 0 38 -7.5t32.5 -16t29.5 -16t28 -7.5q22 0 33.5 12t16.5 35h52l-3 -14q-8 -37 -33.5 -61t-62.5 -24q-21 0 -39 7.5t-33.5 16t-30 16t-28.5 7.5q-21 0 -32 -12t-16 -35h-52z" />
    <glyph glyph-name="adieresis" unicode="&#xe4;" horiz-adv-x="638" 
d="M489 68q-72 -76 -184 -76q-56 0 -102.5 20.5t-80.5 55.5t-52.5 82t-18.5 100t18.5 100t52.5 82t80.5 55.5t102.5 20.5q55 0 101.5 -19t82.5 -58v69h57v-500h-57v68zM305 45q67 0 114 29t70 71v211q-24 42 -71 70.5t-113 28.5q-43 0 -79 -16.5t-61.5 -44t-40 -65
t-14.5 -79.5t14.5 -79.5t40 -65t61.5 -44t79 -16.5zM214 580q-22 0 -37 15t-15 37t15 37t37 15t37 -15t15 -37t-15 -37t-37 -15zM434 580q-22 0 -37 15t-15 37t15 37t37 15t37 -15t15 -37t-15 -37t-37 -15z" />
    <glyph glyph-name="aring" unicode="&#xe5;" horiz-adv-x="638" 
d="M489 68q-72 -76 -184 -76q-56 0 -102.5 20.5t-80.5 55.5t-52.5 82t-18.5 100t18.5 100t52.5 82t80.5 55.5t102.5 20.5q55 0 101.5 -19t82.5 -58v69h57v-500h-57v68zM305 45q67 0 114 29t70 71v211q-24 42 -71 70.5t-113 28.5q-43 0 -79 -16.5t-61.5 -44t-40 -65
t-14.5 -79.5t14.5 -79.5t40 -65t61.5 -44t79 -16.5zM305 610q22 0 37.5 15.5t15.5 38.5q0 22 -15.5 38t-37.5 16t-38 -16t-16 -38q0 -23 16 -38.5t38 -15.5zM305 573q-19 0 -36 7t-29.5 19.5t-19.5 29t-7 35.5t7 35.5t19.5 29t29.5 19.5t36 7q38 0 65 -26.5t27 -64.5
t-27 -64.5t-65 -26.5z" />
    <glyph glyph-name="ae" unicode="&#xe6;" horiz-adv-x="943" 
d="M670 -8q-69 0 -124 30.5t-88 81.5q-42 -54 -97 -83t-126 -29q-94 0 -144 46.5t-50 119.5q0 36 14 66t40.5 52t64.5 34.5t85 12.5q59 0 100 -12t70 -29v35q0 41 -12.5 67.5t-33.5 42.5t-48 22t-56 6q-51 0 -89.5 -17.5t-66.5 -43.5l-36 40q31 30 79 52t113 22
q31 0 61.5 -6.5t56 -20t45.5 -34.5t31 -51q33 51 85.5 81.5t115.5 30.5q49 0 91.5 -15.5t74.5 -48t50.5 -81t20.5 -114.5h-422q0 -42 14.5 -79t40.5 -65t62 -44t78 -16q51 0 89.5 17.5t66.5 43.5l36 -40q-32 -30 -79.5 -52t-112.5 -22zM236 45q66 0 111 27t68 69v78
q-29 23 -69.5 37.5t-98.5 14.5q-30 0 -56.5 -7.5t-47 -21.5t-32 -35.5t-11.5 -48.5q0 -28 11 -49t29.5 -35.5t43.5 -21.5t52 -7zM658 455q-32 0 -61.5 -11t-53.5 -31.5t-40.5 -49t-23.5 -63.5h355q-4 39 -19.5 68t-39 48.5t-54 29t-63.5 9.5z" />
    <glyph glyph-name="ccedilla" unicode="&#xe7;" horiz-adv-x="537" 
d="M305 -8q-55 0 -101.5 20.5t-80.5 55.5t-53 82t-19 100t19 100t53 82t80.5 55.5t101.5 20.5q65 0 112 -22t79 -52l-36 -41q-28 26 -66 44t-89 18q-42 0 -78 -16.5t-62 -44t-40.5 -65t-14.5 -79.5t14.5 -79.5t40.5 -65t62 -44t78 -16.5q51 0 89 18t66 44l36 -41
q-32 -30 -79 -52t-112 -22zM290 0h40l-52 -137h-74z" />
    <glyph glyph-name="egrave" unicode="&#xe8;" horiz-adv-x="578" 
d="M305 -8q-56 0 -102.5 20.5t-80 55.5t-52.5 82t-19 100q0 54 19 101t52 82t77.5 55t95.5 20q49 0 91.5 -15.5t74.5 -48t50.5 -81t20.5 -114.5h-422q0 -42 14.5 -79t40.5 -65t62 -44t78 -16q51 0 89.5 17.5t66.5 43.5l36 -40q-32 -30 -79.5 -52t-112.5 -22zM293 455
q-32 0 -61.5 -11t-53.5 -31.5t-40.5 -49t-23.5 -63.5h355q-4 39 -19.5 68t-39 48.5t-54 29t-63.5 9.5zM177 710h81l91 -165h-54z" />
    <glyph glyph-name="eacute" unicode="&#xe9;" horiz-adv-x="578" 
d="M305 -8q-56 0 -102.5 20.5t-80 55.5t-52.5 82t-19 100q0 54 19 101t52 82t77.5 55t95.5 20q49 0 91.5 -15.5t74.5 -48t50.5 -81t20.5 -114.5h-422q0 -42 14.5 -79t40.5 -65t62 -44t78 -16q51 0 89.5 17.5t66.5 43.5l36 -40q-32 -30 -79.5 -52t-112.5 -22zM293 455
q-32 0 -61.5 -11t-53.5 -31.5t-40.5 -49t-23.5 -63.5h355q-4 39 -19.5 68t-39 48.5t-54 29t-63.5 9.5zM339 710h81l-118 -165h-54z" />
    <glyph glyph-name="ecircumflex" unicode="&#xea;" horiz-adv-x="578" 
d="M305 -8q-56 0 -102.5 20.5t-80 55.5t-52.5 82t-19 100q0 54 19 101t52 82t77.5 55t95.5 20q49 0 91.5 -15.5t74.5 -48t50.5 -81t20.5 -114.5h-422q0 -42 14.5 -79t40.5 -65t62 -44t78 -16q51 0 89.5 17.5t66.5 43.5l36 -40q-32 -30 -79.5 -52t-112.5 -22zM293 455
q-32 0 -61.5 -11t-53.5 -31.5t-40.5 -49t-23.5 -63.5h355q-4 39 -19.5 68t-39 48.5t-54 29t-63.5 9.5zM129 606l167 112l166 -111l-27 -44l-139 95l-140 -95z" />
    <glyph glyph-name="edieresis" unicode="&#xeb;" horiz-adv-x="578" 
d="M305 -8q-56 0 -102.5 20.5t-80 55.5t-52.5 82t-19 100q0 54 19 101t52 82t77.5 55t95.5 20q49 0 91.5 -15.5t74.5 -48t50.5 -81t20.5 -114.5h-422q0 -42 14.5 -79t40.5 -65t62 -44t78 -16q51 0 89.5 17.5t66.5 43.5l36 -40q-32 -30 -79.5 -52t-112.5 -22zM293 455
q-32 0 -61.5 -11t-53.5 -31.5t-40.5 -49t-23.5 -63.5h355q-4 39 -19.5 68t-39 48.5t-54 29t-63.5 9.5zM186 580q-22 0 -37 15t-15 37t15 37t37 15t37 -15t15 -37t-15 -37t-37 -15zM406 580q-22 0 -37 15t-15 37t15 37t37 15t37 -15t15 -37t-15 -37t-37 -15z" />
    <glyph glyph-name="igrave" unicode="&#xec;" horiz-adv-x="239" 
d="M91 500h57v-500h-57v500zM6 710h81l91 -165h-54z" />
    <glyph glyph-name="iacute" unicode="&#xed;" horiz-adv-x="239" 
d="M91 500h57v-500h-57v500zM152 710h81l-118 -165h-54z" />
    <glyph glyph-name="icircumflex" unicode="&#xee;" horiz-adv-x="239" 
d="M91 500h57v-500h-57v500zM-48 606l167 112l166 -111l-27 -44l-139 95l-140 -95z" />
    <glyph glyph-name="idieresis" unicode="&#xef;" horiz-adv-x="239" 
d="M11 580q-22 0 -37 15t-15 37t15 37t37 15t37 -15t15 -37t-15 -37t-37 -15zM231 580q-22 0 -37 15t-15 37t15 37t37 15t37 -15t15 -37t-15 -37t-37 -15zM91 500h57v-500h-57v500z" />
    <glyph glyph-name="eth" unicode="&#xf0;" 
d="M209 627h91l-58 83h62l58 -83h135v-55h-96l113 -159q33 -47 44 -86t11 -77q0 -53 -19 -100t-53.5 -82t-82 -55.5t-104.5 -20.5t-104.5 20.5t-82 55.5t-53.5 82t-19 100t19 100t53.5 82t82 55.5t104.5 20.5q44 0 84 -14l-55 78h-130v55zM310 45q46 0 83 16.5t63 44t40 65
t14 79.5t-14 79.5t-40 65t-63 44t-83 16.5q-45 0 -81.5 -16.5t-62.5 -44t-40.5 -65t-14.5 -79.5t14.5 -79.5t40.5 -65t62.5 -44t81.5 -16.5z" />
    <glyph glyph-name="ntilde" unicode="&#xf1;" horiz-adv-x="585" 
d="M92 500h57v-72q30 45 76 62.5t96 17.5q39 0 72.5 -13t58 -38t38.5 -60.5t14 -80.5v-316h-57v308q0 72 -39 109.5t-102 37.5q-65 0 -104 -34.5t-53 -88.5v-332h-57v500zM136 585q9 42 36.5 64t60.5 22q21 0 38 -7.5t32.5 -16t29.5 -16t28 -7.5q22 0 33.5 12t16.5 35h52
l-3 -14q-8 -37 -33.5 -61t-62.5 -24q-21 0 -39 7.5t-33.5 16t-30 16t-28.5 7.5q-21 0 -32 -12t-16 -35h-52z" />
    <glyph glyph-name="ograve" unicode="&#xf2;" 
d="M310 45q45 0 82 16.5t63.5 44t40.5 65t14 79.5t-14 79.5t-40.5 65t-63.5 44t-82 16.5t-81.5 -16.5t-63 -44t-41 -65t-14.5 -79.5t14.5 -79.5t41 -65t63 -44t81.5 -16.5zM310 -8q-57 0 -104.5 20.5t-82 55.5t-53.5 82t-19 100t19 100t53.5 82t82 55.5t104.5 20.5
t104.5 -20.5t82 -55.5t53.5 -82t19 -100t-19 -100t-53.5 -82t-82 -55.5t-104.5 -20.5zM186 710h81l91 -165h-54z" />
    <glyph glyph-name="oacute" unicode="&#xf3;" 
d="M310 45q45 0 82 16.5t63.5 44t40.5 65t14 79.5t-14 79.5t-40.5 65t-63.5 44t-82 16.5t-81.5 -16.5t-63 -44t-41 -65t-14.5 -79.5t14.5 -79.5t41 -65t63 -44t81.5 -16.5zM310 -8q-57 0 -104.5 20.5t-82 55.5t-53.5 82t-19 100t19 100t53.5 82t82 55.5t104.5 20.5
t104.5 -20.5t82 -55.5t53.5 -82t19 -100t-19 -100t-53.5 -82t-82 -55.5t-104.5 -20.5zM363 710h81l-118 -165h-54z" />
    <glyph glyph-name="ocircumflex" unicode="&#xf4;" 
d="M310 45q45 0 82 16.5t63.5 44t40.5 65t14 79.5t-14 79.5t-40.5 65t-63.5 44t-82 16.5t-81.5 -16.5t-63 -44t-41 -65t-14.5 -79.5t14.5 -79.5t41 -65t63 -44t81.5 -16.5zM310 -8q-57 0 -104.5 20.5t-82 55.5t-53.5 82t-19 100t19 100t53.5 82t82 55.5t104.5 20.5
t104.5 -20.5t82 -55.5t53.5 -82t19 -100t-19 -100t-53.5 -82t-82 -55.5t-104.5 -20.5zM143 606l167 112l166 -111l-27 -44l-139 95l-140 -95z" />
    <glyph glyph-name="otilde" unicode="&#xf5;" 
d="M310 45q45 0 82 16.5t63.5 44t40.5 65t14 79.5t-14 79.5t-40.5 65t-63.5 44t-82 16.5t-81.5 -16.5t-63 -44t-41 -65t-14.5 -79.5t14.5 -79.5t41 -65t63 -44t81.5 -16.5zM310 -8q-57 0 -104.5 20.5t-82 55.5t-53.5 82t-19 100t19 100t53.5 82t82 55.5t104.5 20.5
t104.5 -20.5t82 -55.5t53.5 -82t19 -100t-19 -100t-53.5 -82t-82 -55.5t-104.5 -20.5zM148 585q9 42 36.5 64t60.5 22q21 0 38 -7.5t32.5 -16t29.5 -16t28 -7.5q22 0 33.5 12t16.5 35h52l-3 -14q-8 -37 -33.5 -61t-62.5 -24q-21 0 -39 7.5t-33.5 16t-30 16t-28.5 7.5
q-21 0 -32 -12t-16 -35h-52z" />
    <glyph glyph-name="odieresis" unicode="&#xf6;" 
d="M310 45q45 0 82 16.5t63.5 44t40.5 65t14 79.5t-14 79.5t-40.5 65t-63.5 44t-82 16.5t-81.5 -16.5t-63 -44t-41 -65t-14.5 -79.5t14.5 -79.5t41 -65t63 -44t81.5 -16.5zM310 -8q-57 0 -104.5 20.5t-82 55.5t-53.5 82t-19 100t19 100t53.5 82t82 55.5t104.5 20.5
t104.5 -20.5t82 -55.5t53.5 -82t19 -100t-19 -100t-53.5 -82t-82 -55.5t-104.5 -20.5zM200 580q-22 0 -37 15t-15 37t15 37t37 15t37 -15t15 -37t-15 -37t-37 -15zM420 580q-22 0 -37 15t-15 37t15 37t37 15t37 -15t15 -37t-15 -37t-37 -15z" />
    <glyph glyph-name="divide" unicode="&#xf7;" horiz-adv-x="664" 
d="M332 71q-25 0 -42.5 17.5t-17.5 42.5t17.5 42.5t42.5 17.5q24 0 41.5 -17.5t17.5 -42.5t-17.5 -42.5t-41.5 -17.5zM112 298h440v-55h-440v55zM332 350q-25 0 -42.5 17.5t-17.5 42.5t17.5 42.5t42.5 17.5q24 0 41.5 -17.5t17.5 -42.5t-17.5 -42.5t-41.5 -17.5z" />
    <glyph glyph-name="oslash" unicode="&#xf8;" 
d="M51 23l58 60q-28 34 -43 76.5t-15 90.5q0 53 19 100t53.5 82t82 55.5t104.5 20.5q47 0 87.5 -14t72.5 -39l56 57l37 -35l-56 -58q29 -34 45.5 -77t16.5 -92q0 -53 -19 -100t-53.5 -82t-82 -55.5t-104.5 -20.5q-48 0 -89.5 14.5t-73.5 40.5l-58 -60zM310 45q45 0 82 16.5
t63.5 44t40.5 65t14 79.5q0 73 -42 129l-283 -292q25 -20 56.5 -31t68.5 -11zM110 250q0 -35 10 -67.5t29 -58.5l283 291q-25 19 -55.5 29.5t-66.5 10.5q-45 0 -81.5 -16.5t-63 -44t-41 -65t-14.5 -79.5z" />
    <glyph glyph-name="ugrave" unicode="&#xf9;" horiz-adv-x="567" 
d="M418 70q-31 -44 -77 -61t-94 -17q-39 0 -73 13t-58.5 38t-38.5 60.5t-14 80.5v316h57v-308q0 -72 39.5 -109.5t102.5 -37.5t102.5 34t53.5 88v333h57v-500h-57v70zM145 710h81l91 -165h-54z" />
    <glyph glyph-name="uacute" unicode="&#xfa;" horiz-adv-x="567" 
d="M418 70q-31 -44 -77 -61t-94 -17q-39 0 -73 13t-58.5 38t-38.5 60.5t-14 80.5v316h57v-308q0 -72 39.5 -109.5t102.5 -37.5t102.5 34t53.5 88v333h57v-500h-57v70zM312 710h81l-118 -165h-54z" />
    <glyph glyph-name="ucircumflex" unicode="&#xfb;" horiz-adv-x="567" 
d="M418 70q-31 -44 -77 -61t-94 -17q-39 0 -73 13t-58.5 38t-38.5 60.5t-14 80.5v316h57v-308q0 -72 39.5 -109.5t102.5 -37.5t102.5 34t53.5 88v333h57v-500h-57v70zM102 606l167 112l166 -111l-27 -44l-139 95l-140 -95z" />
    <glyph glyph-name="udieresis" unicode="&#xfc;" horiz-adv-x="567" 
d="M418 70q-31 -44 -77 -61t-94 -17q-39 0 -73 13t-58.5 38t-38.5 60.5t-14 80.5v316h57v-308q0 -72 39.5 -109.5t102.5 -37.5t102.5 34t53.5 88v333h57v-500h-57v70zM159 580q-22 0 -37 15t-15 37t15 37t37 15t37 -15t15 -37t-15 -37t-37 -15zM379 580q-22 0 -37 15t-15 37
t15 37t37 15t37 -15t15 -37t-15 -37t-37 -15z" />
    <glyph glyph-name="yacute" unicode="&#xfd;" horiz-adv-x="509" 
d="M224 55l-214 445h64l180 -389l181 389h64l-329 -684h-61zM318 710h81l-118 -165h-54z" />
    <glyph glyph-name="thorn" unicode="&#xfe;" horiz-adv-x="639" 
d="M92 710h57v-280q72 78 185 78q56 0 102.5 -20.5t80.5 -55.5t52.5 -82t18.5 -100t-18.5 -100t-52.5 -82t-80.5 -55.5t-102.5 -20.5q-114 0 -185 77v-253h-57v894zM334 455q-67 0 -114.5 -29.5t-70.5 -71.5v-209q23 -42 70.5 -71t114.5 -29q43 0 79 16.5t61.5 44t40 65
t14.5 79.5t-14.5 79.5t-40 65t-61.5 44t-79 16.5z" />
    <glyph glyph-name="ydieresis" unicode="&#xff;" horiz-adv-x="509" 
d="M224 55l-214 445h64l180 -389l181 389h64l-329 -684h-61zM144 580q-22 0 -37 15t-15 37t15 37t37 15t37 -15t15 -37t-15 -37t-37 -15zM364 580q-22 0 -37 15t-15 37t15 37t37 15t37 -15t15 -37t-15 -37t-37 -15z" />
    <glyph glyph-name="Abreve" unicode="&#x102;" horiz-adv-x="705" 
d="M352 718l343 -718h-65l-104 217h-348l-103 -217h-65zM206 276h292l-146 307zM351 781q-66 0 -103.5 35t-41.5 84h53q4 -29 26.5 -51.5t66.5 -22.5q45 0 68 22.5t27 51.5h53q-3 -24 -13.5 -46t-29 -38t-45 -25.5t-61.5 -9.5z" />
    <glyph glyph-name="Amacron" unicode="&#x100;" horiz-adv-x="705" 
d="M352 718l343 -718h-65l-104 217h-348l-103 -217h-65zM206 276h292l-146 307zM213 859h278v-50h-278v50z" />
    <glyph glyph-name="Aogonek" unicode="&#x104;" horiz-adv-x="705" 
d="M641 -189q-20 0 -39 5.5t-33.5 16t-23.5 26.5t-9 37q0 17 8 33t21.5 30t30.5 24.5t35 16.5h-1l-104 217h-348l-103 -217h-65l342 718l343 -718h-2q-45 -20 -68 -44.5t-23 -47.5q0 -17 14 -31.5t43 -14.5q21 0 36 5v-49q-24 -7 -54 -7zM206 276h292l-146 307z" />
    <glyph glyph-name="Cacute" unicode="&#x106;" horiz-adv-x="667" 
d="M404 -8q-77 0 -143 27.5t-115 76.5t-77 115.5t-28 143.5t28 143.5t77 115t115 76.5t143 28q65 0 122 -19.5t103 -57.5l-34 -50q-38 32 -86 50t-105 18q-64 0 -119 -23.5t-95 -64t-62.5 -96.5t-22.5 -120q0 -65 22.5 -120.5t62.5 -96t95 -64t119 -23.5q57 0 105.5 18
t86.5 50l33 -50q-45 -37 -102.5 -57t-122.5 -20zM433 913h82l-109 -145h-55z" />
    <glyph glyph-name="Ccaron" unicode="&#x10c;" horiz-adv-x="667" 
d="M404 -8q-77 0 -143 27.5t-115 76.5t-77 115.5t-28 143.5t28 143.5t77 115t115 76.5t143 28q65 0 122 -19.5t103 -57.5l-34 -50q-38 32 -86 50t-105 18q-64 0 -119 -23.5t-95 -64t-62.5 -96.5t-22.5 -120q0 -65 22.5 -120.5t62.5 -96t95 -64t119 -23.5q57 0 105.5 18
t86.5 50l33 -50q-45 -37 -102.5 -57t-122.5 -20zM233 883l31 43l141 -93l141 93l32 -44l-173 -111z" />
    <glyph glyph-name="Ccircumflex" unicode="&#x108;" horiz-adv-x="667" 
d="M404 -8q-77 0 -143 27.5t-115 76.5t-77 115.5t-28 143.5t28 143.5t77 115t115 76.5t143 28q65 0 122 -19.5t103 -57.5l-34 -50q-38 32 -86 50t-105 18q-64 0 -119 -23.5t-95 -64t-62.5 -96.5t-22.5 -120q0 -65 22.5 -120.5t62.5 -96t95 -64t119 -23.5q57 0 105.5 18
t86.5 50l33 -50q-45 -37 -102.5 -57t-122.5 -20zM233 816l172 112l173 -111l-32 -44l-141 93l-141 -93z" />
    <glyph glyph-name="Cdotaccent" unicode="&#x10a;" horiz-adv-x="667" 
d="M404 -8q-77 0 -143 27.5t-115 76.5t-77 115.5t-28 143.5t28 143.5t77 115t115 76.5t143 28q65 0 122 -19.5t103 -57.5l-34 -50q-38 32 -86 50t-105 18q-64 0 -119 -23.5t-95 -64t-62.5 -96.5t-22.5 -120q0 -65 22.5 -120.5t62.5 -96t95 -64t119 -23.5q57 0 105.5 18
t86.5 50l33 -50q-45 -37 -102.5 -57t-122.5 -20zM404 791q-22 0 -37 15t-15 37t15 37t37 15t37 -15t15 -37t-15 -37t-37 -15z" />
    <glyph glyph-name="Dcaron" unicode="&#x10e;" horiz-adv-x="725" 
d="M299 59q73 0 132 22t101 61.5t65 93.5t23 119q0 64 -23 118.5t-65 94t-101 61.5t-132 22h-135v-592h135zM102 710h197q85 0 155.5 -26.5t121.5 -74t79.5 -112.5t28.5 -142t-28.5 -142.5t-79.5 -112.5t-121.5 -73.5t-155.5 -26.5h-197v710zM161 883l31 43l141 -93l141 93
l32 -44l-173 -111z" />
    <glyph glyph-name="Dcroat" unicode="&#x110;" horiz-adv-x="740" 
d="M13 400h104v310h197q85 0 155.5 -26.5t121.5 -74t79.5 -112.5t28.5 -142t-28.5 -142.5t-79.5 -112.5t-121.5 -73.5t-155.5 -26.5h-197v342h-104v58zM314 59q73 0 132 22t101 61.5t65 93.5t23 119q0 64 -23 118.5t-65 94t-101 61.5t-132 22h-135v-251h140v-58h-140v-283
h135z" />
    <glyph glyph-name="Ebreve" unicode="&#x114;" horiz-adv-x="555" 
d="M102 710h398v-59h-336v-255h276v-60h-276v-277h336v-59h-398v710zM299 781q-66 0 -103.5 35t-41.5 84h53q4 -29 26.5 -51.5t66.5 -22.5q45 0 68 22.5t27 51.5h53q-3 -24 -13.5 -46t-29 -38t-45 -25.5t-61.5 -9.5z" />
    <glyph glyph-name="Ecaron" unicode="&#x11a;" horiz-adv-x="555" 
d="M102 710h398v-59h-336v-255h276v-60h-276v-277h336v-59h-398v710zM129 883l31 43l141 -93l141 93l32 -44l-173 -111z" />
    <glyph glyph-name="Emacron" unicode="&#x112;" horiz-adv-x="555" 
d="M102 710h398v-59h-336v-255h276v-60h-276v-277h336v-59h-398v710zM162 859h278v-50h-278v50z" />
    <glyph glyph-name="Eogonek" unicode="&#x118;" horiz-adv-x="557" 
d="M102 710h398v-59h-336v-255h276v-60h-276v-277h336v-59q-45 -20 -68 -44.5t-23 -47.5q0 -17 14 -31.5t43 -14.5q21 0 36 5v-49q-24 -7 -54 -7q-20 0 -39 5.5t-33.5 16t-23.5 26.5t-9 37q0 17 8 33t21.5 30t30.5 24.5t35 16.5h-336v710z" />
    <glyph glyph-name="Edotaccent" unicode="&#x116;" horiz-adv-x="555" 
d="M102 710h398v-59h-336v-255h276v-60h-276v-277h336v-59h-398v710zM302 792q-22 0 -37 15t-15 37t15 37t37 15t37 -15t15 -37t-15 -37t-37 -15z" />
    <glyph glyph-name="Gbreve" unicode="&#x11e;" horiz-adv-x="729" 
d="M404 -8q-77 0 -143 27.5t-115 76.5t-77 115.5t-28 143.5t28 143.5t77 115t115 76.5t143 28q69 0 128 -20t107 -56l-35 -50q-38 31 -88 49t-112 18q-64 0 -119 -23.5t-95 -64t-62.5 -96.5t-22.5 -120q0 -65 22.5 -120.5t62.5 -96t95 -64t119 -23.5q48 0 96 11t86 32v242
h-206l27 60h241v-335q-50 -32 -114.5 -50.5t-129.5 -18.5zM402 781q-66 0 -103.5 35t-41.5 84h53q4 -29 26.5 -51.5t66.5 -22.5q45 0 68 22.5t27 51.5h53q-3 -24 -13.5 -46t-29 -38t-45 -25.5t-61.5 -9.5z" />
    <glyph glyph-name="Gcircumflex" unicode="&#x11c;" horiz-adv-x="729" 
d="M404 -8q-77 0 -143 27.5t-115 76.5t-77 115.5t-28 143.5t28 143.5t77 115t115 76.5t143 28q69 0 128 -20t107 -56l-35 -50q-38 31 -88 49t-112 18q-64 0 -119 -23.5t-95 -64t-62.5 -96.5t-22.5 -120q0 -65 22.5 -120.5t62.5 -96t95 -64t119 -23.5q48 0 96 11t86 32v242
h-206l27 60h241v-335q-50 -32 -114.5 -50.5t-129.5 -18.5zM232 816l172 112l173 -111l-32 -44l-141 93l-141 -93z" />
    <glyph glyph-name="uni0122" unicode="&#x122;" horiz-adv-x="729" 
d="M404 -8q-77 0 -143 27.5t-115 76.5t-77 115.5t-28 143.5t28 143.5t77 115t115 76.5t143 28q69 0 128 -20t107 -56l-35 -50q-38 31 -88 49t-112 18q-64 0 -119 -23.5t-95 -64t-62.5 -96.5t-22.5 -120q0 -65 22.5 -120.5t62.5 -96t95 -64t119 -23.5q48 0 96 11t86 32v242
h-206l27 60h241v-335q-50 -32 -114.5 -50.5t-129.5 -18.5zM364 -50h81l-118 -165h-54z" />
    <glyph glyph-name="Gdotaccent" unicode="&#x120;" horiz-adv-x="729" 
d="M404 -8q-77 0 -143 27.5t-115 76.5t-77 115.5t-28 143.5t28 143.5t77 115t115 76.5t143 28q69 0 128 -20t107 -56l-35 -50q-38 31 -88 49t-112 18q-64 0 -119 -23.5t-95 -64t-62.5 -96.5t-22.5 -120q0 -65 22.5 -120.5t62.5 -96t95 -64t119 -23.5q48 0 96 11t86 32v242
h-206l27 60h241v-335q-50 -32 -114.5 -50.5t-129.5 -18.5zM405 791q-22 0 -37 15t-15 37t15 37t37 15t37 -15t15 -37t-15 -37t-37 -15z" />
    <glyph glyph-name="Hbar" unicode="&#x126;" horiz-adv-x="765" 
d="M39 581h63v129h62v-129h437v129h62v-129h63v-58h-63v-523h-62v336h-437v-336h-62v523h-63v58zM601 396v127h-437v-127h437z" />
    <glyph glyph-name="Hcircumflex" unicode="&#x124;" horiz-adv-x="765" 
d="M102 710h62v-314h437v314h62v-710h-62v336h-437v-336h-62v710zM210 816l172 112l173 -111l-32 -44l-141 93l-141 -93z" />
    <glyph glyph-name="Ibreve" unicode="&#x12c;" horiz-adv-x="266" 
d="M102 710h62v-710h-62v710zM132 781q-66 0 -103.5 35t-41.5 84h53q4 -29 26.5 -51.5t66.5 -22.5q45 0 68 22.5t27 51.5h53q-3 -24 -13.5 -46t-29 -38t-45 -25.5t-61.5 -9.5z" />
    <glyph glyph-name="Idotaccent" unicode="&#x130;" horiz-adv-x="266" 
d="M102 710h62v-710h-62v710zM132 791q-22 0 -37 15t-15 37t15 37t37 15t37 -15t15 -37t-15 -37t-37 -15z" />
    <glyph glyph-name="Imacron" unicode="&#x12a;" horiz-adv-x="266" 
d="M102 710h62v-710h-62v710zM-5 859h278v-50h-278v50z" />
    <glyph glyph-name="Iogonek" unicode="&#x12e;" horiz-adv-x="266" 
d="M102 710h62v-710q-45 -20 -68 -44.5t-23 -47.5q0 -17 14 -31.5t43 -14.5q21 0 36 5v-49q-24 -7 -54 -7q-20 0 -39 5.5t-33.5 16t-23.5 26.5t-9 37q0 17 8 33t21.5 30t30.5 24.5t35 16.5v710z" />
    <glyph glyph-name="Itilde" unicode="&#x128;" horiz-adv-x="266" 
d="M102 710h62v-710h-62v710zM200 789q-21 0 -39 7.5t-33.5 16.5t-30 16.5t-28.5 7.5q-21 0 -32 -11.5t-16 -34.5h-55l3 14q9 42 38 64.5t62 22.5q21 0 38 -7.5t32.5 -16t29.5 -16t28 -7.5q22 0 33.5 11t16.5 34h55l-3 -14q-8 -40 -35.5 -63.5t-63.5 -23.5z" />
    <glyph glyph-name="uni1ECA" unicode="&#x1eca;" horiz-adv-x="266" 
d="M102 710h62v-710h-62v710zM133 -184q-22 0 -37 15t-15 37t15 37t37 15t37 -15t15 -37t-15 -37t-37 -15z" />
    <glyph glyph-name="Jcircumflex" unicode="&#x134;" horiz-adv-x="493" 
d="M206 -8q-42 0 -77.5 13.5t-62 38.5t-41.5 61t-15 82h62q0 -35 10.5 -60t28.5 -41.5t42.5 -25t51.5 -9.5q60 0 97.5 33.5t37.5 102.5v523h62v-533q0 -46 -15.5 -80.5t-42 -58t-62 -35t-76.5 -11.5zM199 816l172 112l173 -111l-32 -44l-141 93l-141 -93z" />
    <glyph glyph-name="uni0136" unicode="&#x136;" horiz-adv-x="636" 
d="M102 710h62v-355l352 355h80l-358 -362l385 -348h-87l-372 338v-338h-62v710zM293 -50h81l-118 -165h-54z" />
    <glyph glyph-name="Lacute" unicode="&#x139;" horiz-adv-x="501" 
d="M188 913h82l-109 -145h-55zM102 710h62v-651h327v-59h-389v710z" />
    <glyph glyph-name="Lcaron" unicode="&#x13d;" horiz-adv-x="501" 
d="M102 710h62v-651h327v-59h-389v710zM310 710h58l-42 -167h-41z" />
    <glyph glyph-name="uni013B" unicode="&#x13b;" horiz-adv-x="501" 
d="M102 710h62v-651h327v-59h-389v710zM247 -50h81l-118 -165h-54z" />
    <glyph glyph-name="Ldot" unicode="&#x13f;" horiz-adv-x="501" 
d="M102 710h62v-651h327v-59h-389v710zM383 327q-22 0 -37 15t-15 37t15 37t37 15t37 -15t15 -37t-15 -37t-37 -15z" />
    <glyph glyph-name="Lslash" unicode="&#x141;" horiz-adv-x="501" 
d="M-5 256l107 73v381h62v-338l203 140l32 -52l-235 -161v-240h327v-59h-389v256l-75 -51z" />
    <glyph glyph-name="Eng" unicode="&#x14a;" horiz-adv-x="795" 
d="M693 -42q0 -74 -34 -108t-108 -34h-26v55h28q78 0 78 79v109l-467 506v-565h-62v718l529 -573v565h62v-752v0z" />
    <glyph glyph-name="Nacute" unicode="&#x143;" horiz-adv-x="795" 
d="M164 565v-565h-62v718l529 -573v565h62v-718zM425 913h82l-109 -145h-55z" />
    <glyph glyph-name="Ncaron" unicode="&#x147;" horiz-adv-x="795" 
d="M164 565v-565h-62v718l529 -573v565h62v-718zM225 883l31 43l141 -93l141 93l32 -44l-173 -111z" />
    <glyph glyph-name="uni0145" unicode="&#x145;" horiz-adv-x="795" 
d="M164 565v-565h-62v718l529 -573v565h62v-718zM373 -50h81l-118 -165h-54z" />
    <glyph glyph-name="OE" unicode="&#x152;" horiz-adv-x="1096" 
d="M404 -8q-77 0 -143 27.5t-115 76.5t-77 115.5t-28 143.5t28 143.5t77 115t115 76.5t143 28q69 0 130 -23t109 -64v79h398v-59h-336v-89q24 -36 39.5 -77.5t20.5 -88.5h216v-60h-215q-2 -54 -18 -101t-43 -87v-89h336v-59h-398v79q-48 -42 -109 -64.5t-130 -22.5zM404 51
q64 0 119 23.5t95 64t62.5 96t22.5 120.5q0 64 -22.5 120t-62.5 96.5t-95 64t-119 23.5t-119 -23.5t-95 -64t-62.5 -96.5t-22.5 -120q0 -65 22.5 -120.5t62.5 -96t95 -64t119 -23.5z" />
    <glyph glyph-name="Obreve" unicode="&#x14e;" horiz-adv-x="808" 
d="M404 51q64 0 119 23.5t95 64t62.5 96t22.5 120.5q0 64 -22.5 120t-62.5 96.5t-95 64t-119 23.5t-119 -23.5t-95 -64t-62.5 -96.5t-22.5 -120q0 -65 22.5 -120.5t62.5 -96t95 -64t119 -23.5zM404 -8q-77 0 -143 27.5t-115 76.5t-77 115.5t-28 143.5t28 143.5t77 115
t115 76.5t143 28q76 0 142.5 -28t115.5 -76.5t77 -115t28 -143.5t-28 -143.5t-77 -115.5t-115.5 -76.5t-142.5 -27.5zM403 781q-66 0 -103.5 35t-41.5 84h53q4 -29 26.5 -51.5t66.5 -22.5q45 0 68 22.5t27 51.5h53q-3 -24 -13.5 -46t-29 -38t-45 -25.5t-61.5 -9.5z" />
    <glyph glyph-name="Ohungarumlaut" unicode="&#x150;" horiz-adv-x="808" 
d="M404 51q64 0 119 23.5t95 64t62.5 96t22.5 120.5q0 64 -22.5 120t-62.5 96.5t-95 64t-119 23.5t-119 -23.5t-95 -64t-62.5 -96.5t-22.5 -120q0 -65 22.5 -120.5t62.5 -96t95 -64t119 -23.5zM404 -8q-77 0 -143 27.5t-115 76.5t-77 115.5t-28 143.5t28 143.5t77 115
t115 76.5t143 28q76 0 142.5 -28t115.5 -76.5t77 -115t28 -143.5t-28 -143.5t-77 -115.5t-115.5 -76.5t-142.5 -27.5zM344 913h82l-108 -145h-56zM544 913h82l-108 -145h-56z" />
    <glyph glyph-name="Omacron" unicode="&#x14c;" horiz-adv-x="808" 
d="M404 51q64 0 119 23.5t95 64t62.5 96t22.5 120.5q0 64 -22.5 120t-62.5 96.5t-95 64t-119 23.5t-119 -23.5t-95 -64t-62.5 -96.5t-22.5 -120q0 -65 22.5 -120.5t62.5 -96t95 -64t119 -23.5zM404 -8q-77 0 -143 27.5t-115 76.5t-77 115.5t-28 143.5t28 143.5t77 115
t115 76.5t143 28q76 0 142.5 -28t115.5 -76.5t77 -115t28 -143.5t-28 -143.5t-77 -115.5t-115.5 -76.5t-142.5 -27.5zM265 859h278v-50h-278v50z" />
    <glyph glyph-name="uni1ECC" unicode="&#x1ecc;" horiz-adv-x="808" 
d="M404 51q64 0 119 23.5t95 64t62.5 96t22.5 120.5q0 64 -22.5 120t-62.5 96.5t-95 64t-119 23.5t-119 -23.5t-95 -64t-62.5 -96.5t-22.5 -120q0 -65 22.5 -120.5t62.5 -96t95 -64t119 -23.5zM404 -8q-77 0 -143 27.5t-115 76.5t-77 115.5t-28 143.5t28 143.5t77 115
t115 76.5t143 28q76 0 142.5 -28t115.5 -76.5t77 -115t28 -143.5t-28 -143.5t-77 -115.5t-115.5 -76.5t-142.5 -27.5zM404 -184q-22 0 -37 15t-15 37t15 37t37 15t37 -15t15 -37t-15 -37t-37 -15z" />
    <glyph glyph-name="Racute" unicode="&#x154;" horiz-adv-x="628" 
d="M256 321h-92v-321h-62v710h188q110 0 170.5 -51.5t60.5 -143.5q0 -82 -50.5 -133t-142.5 -60l269 -322h-77zM288 378q85 0 126.5 35.5t41.5 101.5t-41.5 101.5t-126.5 35.5h-124v-274h124zM327 913h82l-109 -145h-55z" />
    <glyph glyph-name="Rcaron" unicode="&#x158;" horiz-adv-x="628" 
d="M256 321h-92v-321h-62v710h188q110 0 170.5 -51.5t60.5 -143.5q0 -82 -50.5 -133t-142.5 -60l269 -322h-77zM288 378q85 0 126.5 35.5t41.5 101.5t-41.5 101.5t-126.5 35.5h-124v-274h124zM112 883l31 43l141 -93l141 93l32 -44l-173 -111z" />
    <glyph glyph-name="uni0156" unicode="&#x156;" horiz-adv-x="628" 
d="M283 -50h81l-118 -165h-54zM256 321h-92v-321h-62v710h188q110 0 170.5 -51.5t60.5 -143.5q0 -82 -50.5 -133t-142.5 -60l269 -322h-77zM288 378q85 0 126.5 35.5t41.5 101.5t-41.5 101.5t-126.5 35.5h-124v-274h124z" />
    <glyph glyph-name="Sacute" unicode="&#x15a;" horiz-adv-x="524" 
d="M248 -8q-37 0 -70 8.5t-61.5 23t-51 32t-37.5 35.5l47 43q13 -16 31 -31t40 -26.5t47.5 -18.5t54.5 -7q73 0 117.5 33t44.5 89q0 59 -34.5 92t-95.5 60l-75 32q-81 35 -116 82t-35 112q0 38 17 69t45.5 52.5t65 33.5t74.5 12q63 0 114 -25.5t84 -64.5l-46 -43
q-28 33 -64 53.5t-91 20.5q-28 0 -53 -7.5t-43.5 -22t-29.5 -35.5t-11 -47q0 -45 24.5 -76t85.5 -57l75 -32q36 -15 67.5 -34t54.5 -43t36.5 -54.5t13.5 -68.5q0 -41 -15 -75.5t-44 -60t-71 -40t-95 -14.5zM298 913h82l-109 -145h-55z" />
    <glyph glyph-name="Scaron" unicode="&#x160;" horiz-adv-x="524" 
d="M248 -8q-37 0 -70 8.5t-61.5 23t-51 32t-37.5 35.5l47 43q13 -16 31 -31t40 -26.5t47.5 -18.5t54.5 -7q73 0 117.5 33t44.5 89q0 59 -34.5 92t-95.5 60l-75 32q-81 35 -116 82t-35 112q0 38 17 69t45.5 52.5t65 33.5t74.5 12q63 0 114 -25.5t84 -64.5l-46 -43
q-28 33 -64 53.5t-91 20.5q-28 0 -53 -7.5t-43.5 -22t-29.5 -35.5t-11 -47q0 -45 24.5 -76t85.5 -57l75 -32q36 -15 67.5 -34t54.5 -43t36.5 -54.5t13.5 -68.5q0 -41 -15 -75.5t-44 -60t-71 -40t-95 -14.5zM86 883l31 43l141 -93l141 93l32 -44l-173 -111z" />
    <glyph glyph-name="Scedilla" unicode="&#x15e;" horiz-adv-x="524" 
d="M248 -8q-37 0 -70 8.5t-61.5 23t-51 32t-37.5 35.5l47 43q13 -16 31 -31t40 -26.5t47.5 -18.5t54.5 -7q73 0 117.5 33t44.5 89q0 59 -34.5 92t-95.5 60l-75 32q-81 35 -116 82t-35 112q0 38 17 69t45.5 52.5t65 33.5t74.5 12q63 0 114 -25.5t84 -64.5l-46 -43
q-28 33 -64 53.5t-91 20.5q-28 0 -53 -7.5t-43.5 -22t-29.5 -35.5t-11 -47q0 -45 24.5 -76t85.5 -57l75 -32q36 -15 67.5 -34t54.5 -43t36.5 -54.5t13.5 -68.5q0 -41 -15 -75.5t-44 -60t-71 -40t-95 -14.5zM233 0h52l-40 -137h-83z" />
    <glyph glyph-name="Scircumflex" unicode="&#x15c;" horiz-adv-x="524" 
d="M248 -8q-37 0 -70 8.5t-61.5 23t-51 32t-37.5 35.5l47 43q13 -16 31 -31t40 -26.5t47.5 -18.5t54.5 -7q73 0 117.5 33t44.5 89q0 59 -34.5 92t-95.5 60l-75 32q-81 35 -116 82t-35 112q0 38 17 69t45.5 52.5t65 33.5t74.5 12q63 0 114 -25.5t84 -64.5l-46 -43
q-28 33 -64 53.5t-91 20.5q-28 0 -53 -7.5t-43.5 -22t-29.5 -35.5t-11 -47q0 -45 24.5 -76t85.5 -57l75 -32q36 -15 67.5 -34t54.5 -43t36.5 -54.5t13.5 -68.5q0 -41 -15 -75.5t-44 -60t-71 -40t-95 -14.5zM86 816l172 112l173 -111l-32 -44l-141 93l-141 -93z" />
    <glyph glyph-name="uni0218" unicode="&#x218;" horiz-adv-x="524" 
d="M219 -50h81l-118 -165h-54zM248 -8q-37 0 -70 8.5t-61.5 23t-51 32t-37.5 35.5l47 43q13 -16 31 -31t40 -26.5t47.5 -18.5t54.5 -7q73 0 117.5 33t44.5 89q0 59 -34.5 92t-95.5 60l-75 32q-81 35 -116 82t-35 112q0 38 17 69t45.5 52.5t65 33.5t74.5 12q63 0 114 -25.5
t84 -64.5l-46 -43q-28 33 -64 53.5t-91 20.5q-28 0 -53 -7.5t-43.5 -22t-29.5 -35.5t-11 -47q0 -45 24.5 -76t85.5 -57l75 -32q36 -15 67.5 -34t54.5 -43t36.5 -54.5t13.5 -68.5q0 -41 -15 -75.5t-44 -60t-71 -40t-95 -14.5z" />
    <glyph glyph-name="Tbar" unicode="&#x166;" horiz-adv-x="505" 
d="M51 400h170v251h-201v59h465v-59h-202v-251h170v-53h-170v-347h-62v347h-170v53z" />
    <glyph glyph-name="Tcaron" unicode="&#x164;" horiz-adv-x="505" 
d="M221 651h-201v59h465v-59h-202v-651h-62v651zM80 883l31 43l141 -93l141 93l32 -44l-173 -111z" />
    <glyph glyph-name="uni0162" unicode="&#x162;" horiz-adv-x="505" 
d="M221 651h-201v59h465v-59h-202v-651h-62v651zM215 -50h81l-118 -165h-54z" />
    <glyph glyph-name="uni021A" unicode="&#x21a;" horiz-adv-x="505" 
d="M221 651h-201v59h465v-59h-202v-651h-62v651zM215 -50h81l-118 -165h-54z" />
    <glyph glyph-name="Ubreve" unicode="&#x16c;" horiz-adv-x="743" 
d="M371 -8q-62 0 -113 18t-87.5 52.5t-57 85t-20.5 115.5v447h62v-450q0 -53 15.5 -92t44 -65t68.5 -39t88 -13q49 0 89 13t68.5 39t44 65t15.5 92v450h62v-447q0 -65 -20.5 -115.5t-57.5 -85t-88.5 -52.5t-112.5 -18zM369 781q-66 0 -103.5 35t-41.5 84h53
q4 -29 26.5 -51.5t66.5 -22.5q45 0 68 22.5t27 51.5h53q-3 -24 -13.5 -46t-29 -38t-45 -25.5t-61.5 -9.5z" />
    <glyph glyph-name="Uhungarumlaut" unicode="&#x170;" horiz-adv-x="743" 
d="M371 -8q-62 0 -113 18t-87.5 52.5t-57 85t-20.5 115.5v447h62v-450q0 -53 15.5 -92t44 -65t68.5 -39t88 -13q49 0 89 13t68.5 39t44 65t15.5 92v450h62v-447q0 -65 -20.5 -115.5t-57.5 -85t-88.5 -52.5t-112.5 -18zM311 913h82l-108 -145h-56zM511 913h82l-108 -145h-56z
" />
    <glyph glyph-name="Umacron" unicode="&#x16a;" horiz-adv-x="743" 
d="M371 -8q-62 0 -113 18t-87.5 52.5t-57 85t-20.5 115.5v447h62v-450q0 -53 15.5 -92t44 -65t68.5 -39t88 -13q49 0 89 13t68.5 39t44 65t15.5 92v450h62v-447q0 -65 -20.5 -115.5t-57.5 -85t-88.5 -52.5t-112.5 -18zM232 859h278v-50h-278v50z" />
    <glyph glyph-name="Uogonek" unicode="&#x172;" horiz-adv-x="743" 
d="M396 -189q-20 0 -39 5.5t-33.5 16t-23.5 26.5t-9 37q0 29 22 55.5t52 40.5q-60 1 -110 19.5t-86 53t-56 84.5t-20 114v447h62v-450q0 -53 15.5 -92t44 -65t68.5 -39t88 -13q49 0 89 13t68.5 39t44 65t15.5 92v450h62v-447q0 -109 -55 -176t-147 -87q-45 -20 -68 -44.5
t-23 -47.5q0 -17 14 -31.5t43 -14.5q21 0 36 5v-49q-24 -7 -54 -7z" />
    <glyph glyph-name="Uring" unicode="&#x16e;" horiz-adv-x="743" 
d="M371 -8q-62 0 -113 18t-87.5 52.5t-57 85t-20.5 115.5v447h62v-450q0 -53 15.5 -92t44 -65t68.5 -39t88 -13q49 0 89 13t68.5 39t44 65t15.5 92v450h62v-447q0 -65 -20.5 -115.5t-57.5 -85t-88.5 -52.5t-112.5 -18zM371 788q21 0 35.5 13t14.5 35t-14.5 35.5t-35.5 13.5
q-20 0 -34.5 -13.5t-14.5 -35.5t14.5 -35t34.5 -13zM371 751q-37 0 -63 24t-26 61q0 38 26.5 61.5t62.5 23.5q38 0 64.5 -23.5t26.5 -61.5q0 -37 -26.5 -61t-64.5 -24z" />
    <glyph glyph-name="Utilde" unicode="&#x168;" horiz-adv-x="743" 
d="M371 -8q-62 0 -113 18t-87.5 52.5t-57 85t-20.5 115.5v447h62v-450q0 -53 15.5 -92t44 -65t68.5 -39t88 -13q49 0 89 13t68.5 39t44 65t15.5 92v450h62v-447q0 -65 -20.5 -115.5t-57.5 -85t-88.5 -52.5t-112.5 -18zM437 789q-21 0 -39 7.5t-33.5 16.5t-30 16.5t-28.5 7.5
q-21 0 -32 -11.5t-16 -34.5h-55l3 14q9 42 38 64.5t62 22.5q21 0 38 -7.5t32.5 -16t29.5 -16t28 -7.5q22 0 33.5 11t16.5 34h55l-3 -14q-8 -40 -35.5 -63.5t-63.5 -23.5z" />
    <glyph glyph-name="uni1EE4" unicode="&#x1ee4;" horiz-adv-x="743" 
d="M371 -8q-62 0 -113 18t-87.5 52.5t-57 85t-20.5 115.5v447h62v-450q0 -53 15.5 -92t44 -65t68.5 -39t88 -13q49 0 89 13t68.5 39t44 65t15.5 92v450h62v-447q0 -65 -20.5 -115.5t-57.5 -85t-88.5 -52.5t-112.5 -18zM372 -184q-22 0 -37 15t-15 37t15 37t37 15t37 -15
t15 -37t-15 -37t-37 -15z" />
    <glyph glyph-name="Wacute" unicode="&#x1e82;" horiz-adv-x="916" 
d="M22 710h64l178 -549l194 557l194 -557l178 549h64l-241 -718l-195 565l-195 -565zM513 913h82l-109 -145h-55z" />
    <glyph glyph-name="Wcircumflex" unicode="&#x174;" horiz-adv-x="916" 
d="M22 710h64l178 -549l194 557l194 -557l178 549h64l-241 -718l-195 565l-195 -565zM286 816l172 112l173 -111l-32 -44l-141 93l-141 -93z" />
    <glyph glyph-name="Wdieresis" unicode="&#x1e84;" horiz-adv-x="916" 
d="M22 710h64l178 -549l194 557l194 -557l178 549h64l-241 -718l-195 565l-195 -565zM347 791q-22 0 -37 15t-15 37t15 37t37 15t37 -15t15 -37t-15 -37t-37 -15zM567 791q-22 0 -37 15t-15 37t15 37t37 15t37 -15t15 -37t-15 -37t-37 -15z" />
    <glyph glyph-name="Wgrave" unicode="&#x1e80;" horiz-adv-x="916" 
d="M22 710h64l178 -549l194 557l194 -557l178 549h64l-241 -718l-195 565l-195 -565zM322 913h82l82 -145h-56z" />
    <glyph glyph-name="Ycircumflex" unicode="&#x176;" 
d="M279 302l-259 408h71l220 -350l219 350h70l-259 -408v-302h-62v302zM138 816l172 112l173 -111l-32 -44l-141 93l-141 -93z" />
    <glyph glyph-name="Ydieresis" unicode="&#x178;" 
d="M279 302l-259 408h71l220 -350l219 350h70l-259 -408v-302h-62v302zM200 791q-22 0 -37 15t-15 37t15 37t37 15t37 -15t15 -37t-15 -37t-37 -15zM420 791q-22 0 -37 15t-15 37t15 37t37 15t37 -15t15 -37t-15 -37t-37 -15z" />
    <glyph glyph-name="Ygrave" unicode="&#x1ef2;" 
d="M279 302l-259 408h71l220 -350l219 350h70l-259 -408v-302h-62v302zM191 913h82l82 -145h-56z" />
    <glyph glyph-name="uni0232" unicode="&#x232;" 
d="M279 302l-259 408h71l220 -350l219 350h70l-259 -408v-302h-62v302zM171 859h278v-50h-278v50z" />
    <glyph glyph-name="Zacute" unicode="&#x179;" horiz-adv-x="605" 
d="M456 651h-381v59h488l-425 -651h435v-59h-542zM350 913h82l-109 -145h-55z" />
    <glyph glyph-name="Zcaron" unicode="&#x17d;" horiz-adv-x="605" 
d="M456 651h-381v59h488l-425 -651h435v-59h-542zM148 883l31 43l141 -93l141 93l32 -44l-173 -111z" />
    <glyph glyph-name="Zdotaccent" unicode="&#x17b;" horiz-adv-x="605" 
d="M456 651h-381v59h488l-425 -651h435v-59h-542zM319 791q-22 0 -37 15t-15 37t15 37t37 15t37 -15t15 -37t-15 -37t-37 -15z" />
    <glyph glyph-name="abreve" unicode="&#x103;" horiz-adv-x="638" 
d="M489 68q-72 -76 -184 -76q-56 0 -102.5 20.5t-80.5 55.5t-52.5 82t-18.5 100t18.5 100t52.5 82t80.5 55.5t102.5 20.5q55 0 101.5 -19t82.5 -58v69h57v-500h-57v68zM305 45q67 0 114 29t70 71v211q-24 42 -71 70.5t-113 28.5q-43 0 -79 -16.5t-61.5 -44t-40 -65
t-14.5 -79.5t14.5 -79.5t40 -65t61.5 -44t79 -16.5zM304 591q-66 0 -103.5 34.5t-41.5 84.5h53q4 -29 26.5 -51.5t66.5 -22.5q45 0 68 22.5t27 51.5h53q-5 -50 -42 -84.5t-107 -34.5z" />
    <glyph glyph-name="amacron" unicode="&#x101;" horiz-adv-x="638" 
d="M489 68q-72 -76 -184 -76q-56 0 -102.5 20.5t-80.5 55.5t-52.5 82t-18.5 100t18.5 100t52.5 82t80.5 55.5t102.5 20.5q55 0 101.5 -19t82.5 -58v69h57v-500h-57v68zM305 45q67 0 114 29t70 71v211q-24 42 -71 70.5t-113 28.5q-43 0 -79 -16.5t-61.5 -44t-40 -65
t-14.5 -79.5t14.5 -79.5t40 -65t61.5 -44t79 -16.5zM183 680h278v-51h-278v51z" />
    <glyph glyph-name="aogonek" unicode="&#x105;" horiz-adv-x="645" 
d="M499 -174q-20 0 -39 4.5t-33.5 14.5t-23.5 25t-9 36q0 17 8 31.5t21.5 26.5t30.5 21t35 15v68q-72 -76 -184 -76q-56 0 -102.5 20.5t-80.5 55.5t-52.5 82t-18.5 100t18.5 100t52.5 82t80.5 55.5t102.5 20.5q55 0 101.5 -19t82.5 -58v69h57v-500q-86 -38 -86 -82
q0 -17 14 -29t43 -12q21 0 36 5v-49q-24 -7 -54 -7zM305 45q67 0 114 29t70 71v211q-24 42 -71 70.5t-113 28.5q-43 0 -79 -16.5t-61.5 -44t-40 -65t-14.5 -79.5t14.5 -79.5t40 -65t61.5 -44t79 -16.5z" />
    <glyph glyph-name="cacute" unicode="&#x107;" horiz-adv-x="537" 
d="M305 -8q-55 0 -101.5 20.5t-80.5 55.5t-53 82t-19 100t19 100t53 82t80.5 55.5t101.5 20.5q65 0 112 -22t79 -52l-36 -41q-28 26 -66 44t-89 18q-42 0 -78 -16.5t-62 -44t-40.5 -65t-14.5 -79.5t14.5 -79.5t40.5 -65t62 -44t78 -16.5q51 0 89 18t66 44l36 -41
q-32 -30 -79 -52t-112 -22zM342 710h81l-118 -165h-54z" />
    <glyph glyph-name="ccaron" unicode="&#x10d;" horiz-adv-x="537" 
d="M305 -8q-55 0 -101.5 20.5t-80.5 55.5t-53 82t-19 100t19 100t53 82t80.5 55.5t101.5 20.5q65 0 112 -22t79 -52l-36 -41q-28 26 -66 44t-89 18q-42 0 -78 -16.5t-62 -44t-40.5 -65t-14.5 -79.5t14.5 -79.5t40.5 -65t62 -44t78 -16.5q51 0 89 18t66 44l36 -41
q-32 -30 -79 -52t-112 -22zM305 585l-167 112l27 43l140 -95l139 95l27 -44z" />
    <glyph glyph-name="ccircumflex" unicode="&#x109;" horiz-adv-x="537" 
d="M305 -8q-55 0 -101.5 20.5t-80.5 55.5t-53 82t-19 100t19 100t53 82t80.5 55.5t101.5 20.5q65 0 112 -22t79 -52l-36 -41q-28 26 -66 44t-89 18q-42 0 -78 -16.5t-62 -44t-40.5 -65t-14.5 -79.5t14.5 -79.5t40.5 -65t62 -44t78 -16.5q51 0 89 18t66 44l36 -41
q-32 -30 -79 -52t-112 -22zM137 606l167 112l166 -111l-27 -44l-139 95l-140 -95z" />
    <glyph glyph-name="cdotaccent" unicode="&#x10b;" horiz-adv-x="537" 
d="M305 -8q-55 0 -101.5 20.5t-80.5 55.5t-53 82t-19 100t19 100t53 82t80.5 55.5t101.5 20.5q65 0 112 -22t79 -52l-36 -41q-28 26 -66 44t-89 18q-42 0 -78 -16.5t-62 -44t-40.5 -65t-14.5 -79.5t14.5 -79.5t40.5 -65t62 -44t78 -16.5q51 0 89 18t66 44l36 -41
q-32 -30 -79 -52t-112 -22zM305 580q-22 0 -37 15t-15 37t15 37t37 15t37 -15t15 -37t-15 -37t-37 -15z" />
    <glyph glyph-name="dcaron" unicode="&#x10f;" horiz-adv-x="638" 
d="M489 68q-72 -76 -184 -76q-56 0 -102.5 20.5t-80.5 55.5t-52.5 82t-18.5 100t18.5 100t52.5 82t80.5 55.5t102.5 20.5q55 0 101.5 -19t82.5 -58v279h57v-710h-57v68zM305 45q67 0 114 29t70 71v211q-24 42 -71 70.5t-113 28.5q-43 0 -79 -16.5t-61.5 -44t-40 -65
t-14.5 -79.5t14.5 -79.5t40 -65t61.5 -44t79 -16.5zM641 710h58l-42 -167h-41z" />
    <glyph glyph-name="dcroat" unicode="&#x111;" horiz-adv-x="638" 
d="M313 638h176v72h57v-72h73v-54h-73v-584h-57v68q-72 -76 -184 -76q-56 0 -102.5 20.5t-80.5 55.5t-52.5 82t-18.5 100t18.5 100t52.5 82t80.5 55.5t102.5 20.5q55 0 101.5 -19t82.5 -58v153h-176v54zM305 45q67 0 114 29t70 71v211q-24 42 -71 70.5t-113 28.5
q-43 0 -79 -16.5t-61.5 -44t-40 -65t-14.5 -79.5t14.5 -79.5t40 -65t61.5 -44t79 -16.5z" />
    <glyph glyph-name="ebreve" unicode="&#x115;" horiz-adv-x="578" 
d="M305 -8q-56 0 -102.5 20.5t-80 55.5t-52.5 82t-19 100q0 54 19 101t52 82t77.5 55t95.5 20q49 0 91.5 -15.5t74.5 -48t50.5 -81t20.5 -114.5h-422q0 -42 14.5 -79t40.5 -65t62 -44t78 -16q51 0 89.5 17.5t66.5 43.5l36 -40q-32 -30 -79.5 -52t-112.5 -22zM293 455
q-32 0 -61.5 -11t-53.5 -31.5t-40.5 -49t-23.5 -63.5h355q-4 39 -19.5 68t-39 48.5t-54 29t-63.5 9.5zM296 591q-66 0 -103.5 34.5t-41.5 84.5h53q4 -29 26.5 -51.5t66.5 -22.5q45 0 68 22.5t27 51.5h53q-5 -50 -42 -84.5t-107 -34.5z" />
    <glyph glyph-name="ecaron" unicode="&#x11b;" horiz-adv-x="578" 
d="M305 -8q-56 0 -102.5 20.5t-80 55.5t-52.5 82t-19 100q0 54 19 101t52 82t77.5 55t95.5 20q49 0 91.5 -15.5t74.5 -48t50.5 -81t20.5 -114.5h-422q0 -42 14.5 -79t40.5 -65t62 -44t78 -16q51 0 89.5 17.5t66.5 43.5l36 -40q-32 -30 -79.5 -52t-112.5 -22zM293 455
q-32 0 -61.5 -11t-53.5 -31.5t-40.5 -49t-23.5 -63.5h355q-4 39 -19.5 68t-39 48.5t-54 29t-63.5 9.5zM296 585l-167 112l27 43l140 -95l139 95l27 -44z" />
    <glyph glyph-name="emacron" unicode="&#x113;" horiz-adv-x="578" 
d="M305 -8q-56 0 -102.5 20.5t-80 55.5t-52.5 82t-19 100q0 54 19 101t52 82t77.5 55t95.5 20q49 0 91.5 -15.5t74.5 -48t50.5 -81t20.5 -114.5h-422q0 -42 14.5 -79t40.5 -65t62 -44t78 -16q51 0 89.5 17.5t66.5 43.5l36 -40q-32 -30 -79.5 -52t-112.5 -22zM293 455
q-32 0 -61.5 -11t-53.5 -31.5t-40.5 -49t-23.5 -63.5h355q-4 39 -19.5 68t-39 48.5t-54 29t-63.5 9.5zM156 680h278v-51h-278v51z" />
    <glyph glyph-name="eogonek" unicode="&#x119;" horiz-adv-x="578" 
d="M305 -8q-56 0 -102.5 20.5t-80 55.5t-52.5 82t-19 100q0 54 19 101t52 82t77.5 55t95.5 20q49 0 91.5 -15.5t74.5 -48t50.5 -81t20.5 -114.5h-422q0 -42 14.5 -79t40.5 -65t62 -44t78 -16q51 0 89.5 17.5t66.5 43.5l36 -40q-32 -30 -79.5 -52t-112.5 -22zM293 455
q-32 0 -61.5 -11t-53.5 -31.5t-40.5 -49t-23.5 -63.5h355q-4 39 -19.5 68t-39 48.5t-54 29t-63.5 9.5zM317 -174q-20 0 -39 4.5t-33.5 14.5t-23.5 25t-9 36q0 17 8 31.5t21.5 26.5t30.5 21t35 15h62q-45 -20 -68 -39.5t-23 -42.5q0 -17 14 -29t43 -12q21 0 36 5v-49
q-24 -7 -54 -7z" />
    <glyph glyph-name="edotaccent" unicode="&#x117;" horiz-adv-x="578" 
d="M305 -8q-56 0 -102.5 20.5t-80 55.5t-52.5 82t-19 100q0 54 19 101t52 82t77.5 55t95.5 20q49 0 91.5 -15.5t74.5 -48t50.5 -81t20.5 -114.5h-422q0 -42 14.5 -79t40.5 -65t62 -44t78 -16q51 0 89.5 17.5t66.5 43.5l36 -40q-32 -30 -79.5 -52t-112.5 -22zM293 455
q-32 0 -61.5 -11t-53.5 -31.5t-40.5 -49t-23.5 -63.5h355q-4 39 -19.5 68t-39 48.5t-54 29t-63.5 9.5zM298 580q-22 0 -37 15t-15 37t15 37t37 15t37 -15t15 -37t-15 -37t-37 -15z" />
    <glyph glyph-name="gbreve" unicode="&#x11f;" horiz-adv-x="626" 
d="M295 -194q-57 0 -113 16t-97 44l30 48q16 -12 37.5 -22t46 -17.5t51 -11.5t52.5 -4q36 0 70.5 8t61 26t43 46t16.5 68q0 17 -3.5 39.5t-11.5 38.5q-70 -76 -181 -76q-56 0 -101 19.5t-77.5 53.5t-50 79.5t-17.5 96.5q0 52 17.5 97.5t50 79.5t77.5 53.5t101 19.5
t100 -18.5t80 -56.5v67h57v-397q9 -25 13.5 -50t4.5 -47q0 -54 -22.5 -92t-58.5 -62t-82 -35t-94 -11zM297 62q66 0 111.5 28t68.5 69v199q-23 42 -68.5 69.5t-111.5 27.5q-43 0 -77.5 -15.5t-59 -42t-37.5 -62.5t-13 -77t13 -76.5t37.5 -62t59 -42t77.5 -15.5zM298 591
q-66 0 -103.5 34.5t-41.5 84.5h53q4 -29 26.5 -51.5t66.5 -22.5q45 0 68 22.5t27 51.5h53q-5 -50 -42 -84.5t-107 -34.5z" />
    <glyph glyph-name="gcircumflex" unicode="&#x11d;" horiz-adv-x="626" 
d="M295 -194q-57 0 -113 16t-97 44l30 48q16 -12 37.5 -22t46 -17.5t51 -11.5t52.5 -4q36 0 70.5 8t61 26t43 46t16.5 68q0 17 -3.5 39.5t-11.5 38.5q-70 -76 -181 -76q-56 0 -101 19.5t-77.5 53.5t-50 79.5t-17.5 96.5q0 52 17.5 97.5t50 79.5t77.5 53.5t101 19.5
t100 -18.5t80 -56.5v67h57v-397q9 -25 13.5 -50t4.5 -47q0 -54 -22.5 -92t-58.5 -62t-82 -35t-94 -11zM297 62q66 0 111.5 28t68.5 69v199q-23 42 -68.5 69.5t-111.5 27.5q-43 0 -77.5 -15.5t-59 -42t-37.5 -62.5t-13 -77t13 -76.5t37.5 -62t59 -42t77.5 -15.5zM131 606
l167 112l166 -111l-27 -44l-139 95l-140 -95z" />
    <glyph glyph-name="uni0123" unicode="&#x123;" horiz-adv-x="626" 
d="M338.979 584.964h-80.9951l117.992 164.99h53.9971zM295 -194q-57 0 -113 16t-97 44l30 48q16 -12 37.5 -22t46 -17.5t51 -11.5t52.5 -4q36 0 70.5 8t61 26t43 46t16.5 68q0 17 -3.5 39.5t-11.5 38.5q-70 -76 -181 -76q-56 0 -101 19.5t-77.5 53.5t-50 79.5t-17.5 96.5
q0 52 17.5 97.5t50 79.5t77.5 53.5t101 19.5t100 -18.5t80 -56.5v67h57v-397q9 -25 13.5 -50t4.5 -47q0 -54 -22.5 -92t-58.5 -62t-82 -35t-94 -11zM297 62q66 0 111.5 28t68.5 69v199q-23 42 -68.5 69.5t-111.5 27.5q-43 0 -77.5 -15.5t-59 -42t-37.5 -62.5t-13 -77
t13 -76.5t37.5 -62t59 -42t77.5 -15.5z" />
    <glyph glyph-name="gdotaccent" unicode="&#x121;" horiz-adv-x="626" 
d="M295 -194q-57 0 -113 16t-97 44l30 48q16 -12 37.5 -22t46 -17.5t51 -11.5t52.5 -4q36 0 70.5 8t61 26t43 46t16.5 68q0 17 -3.5 39.5t-11.5 38.5q-70 -76 -181 -76q-56 0 -101 19.5t-77.5 53.5t-50 79.5t-17.5 96.5q0 52 17.5 97.5t50 79.5t77.5 53.5t101 19.5
t100 -18.5t80 -56.5v67h57v-397q9 -25 13.5 -50t4.5 -47q0 -54 -22.5 -92t-58.5 -62t-82 -35t-94 -11zM297 62q66 0 111.5 28t68.5 69v199q-23 42 -68.5 69.5t-111.5 27.5q-43 0 -77.5 -15.5t-59 -42t-37.5 -62.5t-13 -77t13 -76.5t37.5 -62t59 -42t77.5 -15.5zM298 580
q-22 0 -37 15t-15 37t15 37t37 15t37 -15t15 -37t-15 -37t-37 -15z" />
    <glyph glyph-name="hbar" unicode="&#x127;" horiz-adv-x="585" 
d="M10 638h82v72h57v-72h167v-54h-167v-156q30 45 76 62.5t96 17.5q39 0 72.5 -13t58 -38t38.5 -60.5t14 -80.5v-316h-57v308q0 72 -39 109.5t-102 37.5q-65 0 -104 -34.5t-53 -88.5v-332h-57v584h-82v54z" />
    <glyph glyph-name="hcircumflex" unicode="&#x125;" horiz-adv-x="585" 
d="M92 710h57v-282q30 45 76 62.5t96 17.5q39 0 72.5 -13t58 -38t38.5 -60.5t14 -80.5v-316h-57v308q0 72 -39 109.5t-102 37.5q-65 0 -104 -34.5t-53 -88.5v-332h-57v710zM126 816l172 112l173 -111l-32 -44l-141 93l-141 -93z" />
    <glyph glyph-name="dotlessi" unicode="&#x131;" horiz-adv-x="239" 
d="M91 500h57v-500h-57v500z" />
    <glyph glyph-name="ibreve" unicode="&#x12d;" horiz-adv-x="239" 
d="M91 500h57v-500h-57v500zM118 591q-66 0 -103.5 34.5t-41.5 84.5h53q4 -29 26.5 -51.5t66.5 -22.5q45 0 68 22.5t27 51.5h53q-5 -50 -42 -84.5t-107 -34.5z" />
    <glyph glyph-name="imacron" unicode="&#x12b;" horiz-adv-x="239" 
d="M91 500h57v-500h-57v500zM-19 680h278v-51h-278v51z" />
    <glyph glyph-name="iogonek" unicode="&#x12f;" horiz-adv-x="239" 
d="M91 500h57v-500q-86 -38 -86 -82q0 -17 14 -29t43 -12q21 0 36 5v-49q-24 -7 -54 -7q-20 0 -39 4.5t-33.5 14.5t-23.5 25t-9 36q0 17 8 31.5t21.5 26.5t30.5 21t35 15v500zM92 627q-10 7 -16 17.5t-6 23.5q0 20 15 35t35 15t35 -15t15 -35q0 -13 -6 -23.5t-16 -17.5h-56z
" />
    <glyph glyph-name="itilde" unicode="&#x129;" horiz-adv-x="239" 
d="M91 500h57v-500h-57v500zM-41 585q9 42 36.5 64t60.5 22q21 0 38 -7.5t32.5 -16t29.5 -16t28 -7.5q22 0 33.5 12t16.5 35h52l-3 -14q-8 -37 -33.5 -61t-62.5 -24q-21 0 -39 7.5t-33.5 16t-30 16t-28.5 7.5q-21 0 -32 -12t-16 -35h-52z" />
    <glyph glyph-name="uni1ECB" unicode="&#x1ecb;" horiz-adv-x="239" 
d="M92 627q-10 7 -16 17.5t-6 23.5q0 20 15 35t35 15t35 -15t15 -35q0 -13 -6 -23.5t-16 -17.5h-56zM91 500h57v-500h-57v500zM120 -184q-22 0 -37 15t-15 37t15 37t37 15t37 -15t15 -37t-15 -37t-37 -15z" />
    <glyph glyph-name="uni0237" unicode="&#x237;" horiz-adv-x="239" 
d="M-15 -129h34q42 0 57 19.5t15 61.5v548h57v-541q0 -72 -28.5 -107.5t-101.5 -35.5h-33v55z" />
    <glyph glyph-name="jcircumflex" unicode="&#x135;" horiz-adv-x="239" 
d="M-15 -129h34q42 0 57 19.5t15 61.5v548h57v-541q0 -72 -28.5 -107.5t-101.5 -35.5h-33v55zM-47 606l167 112l166 -111l-27 -44l-139 95l-140 -95z" />
    <glyph glyph-name="uni0137" unicode="&#x137;" horiz-adv-x="505" 
d="M233 -50h81l-118 -165h-54zM92 710h57v-438l249 228h75l-258 -237l281 -263h-79l-268 250v-250h-57v710z" />
    <glyph glyph-name="lacute" unicode="&#x13a;" horiz-adv-x="241" 
d="M92 710h57v-710h-57v710zM175 913h82l-109 -145h-55z" />
    <glyph glyph-name="lcaron" unicode="&#x13e;" horiz-adv-x="241" 
d="M92 710h57v-710h-57v710zM244 710h58l-42 -167h-41z" />
    <glyph glyph-name="uni013C" unicode="&#x13c;" horiz-adv-x="241" 
d="M92 710h57v-710h-57v710zM82 -50h81l-118 -165h-54z" />
    <glyph glyph-name="ldot" unicode="&#x140;" horiz-adv-x="281" 
d="M92 710h57v-710h-57v710zM261 304q-22 0 -37 15t-15 37t15 37t37 15t37 -15t15 -37t-15 -37t-37 -15z" />
    <glyph glyph-name="lslash" unicode="&#x142;" horiz-adv-x="290" 
d="M0 314l117 80v316h57v-277l87 60l29 -48l-116 -80v-365h-57v326l-87 -59z" />
    <glyph glyph-name="eng" unicode="&#x14b;" horiz-adv-x="585" 
d="M92 500h57v-72q30 45 76 62.5t96 17.5q39 0 72.5 -13t58 -38t38.5 -60.5t14 -80.5v-357q0 -75 -34.5 -109t-109.5 -34h-19v55h24q82 0 82 82v355q0 72 -39 109.5t-102 37.5q-65 0 -104 -34.5t-53 -88.5v-332h-57v500z" />
    <glyph glyph-name="nacute" unicode="&#x144;" horiz-adv-x="585" 
d="M92 500h57v-72q30 45 76 62.5t96 17.5q39 0 72.5 -13t58 -38t38.5 -60.5t14 -80.5v-316h-57v308q0 72 -39 109.5t-102 37.5q-65 0 -104 -34.5t-53 -88.5v-332h-57v500zM332 710h81l-118 -165h-54z" />
    <glyph glyph-name="ncaron" unicode="&#x148;" horiz-adv-x="585" 
d="M92 500h57v-72q30 45 76 62.5t96 17.5q39 0 72.5 -13t58 -38t38.5 -60.5t14 -80.5v-316h-57v308q0 72 -39 109.5t-102 37.5q-65 0 -104 -34.5t-53 -88.5v-332h-57v500zM297 585l-167 112l27 43l140 -95l139 95l27 -44z" />
    <glyph glyph-name="uni0146" unicode="&#x146;" horiz-adv-x="585" 
d="M92 500h57v-72q30 45 76 62.5t96 17.5q39 0 72.5 -13t58 -38t38.5 -60.5t14 -80.5v-316h-57v308q0 72 -39 109.5t-102 37.5q-65 0 -104 -34.5t-53 -88.5v-332h-57v500zM256 -50h81l-118 -165h-54z" />
    <glyph glyph-name="oe" unicode="&#x153;" horiz-adv-x="1037" 
d="M310 -8q-57 0 -104.5 20.5t-82 55.5t-53.5 82t-19 100t19 100t53.5 82t82 55.5t104.5 20.5q78 0 137.5 -37.5t91.5 -97.5q32 61 88.5 98t126.5 37q49 0 91.5 -15.5t74.5 -48t50.5 -81t20.5 -114.5h-423q0 -42 15 -79t41 -65t62 -44t78 -16q51 0 89.5 17.5t66.5 43.5
l36 -40q-32 -30 -79.5 -52t-112.5 -22q-77 0 -135 37.5t-90 97.5q-32 -60 -91.5 -97.5t-137.5 -37.5zM310 45q45 0 82.5 16.5t63.5 44t40.5 65t14.5 79.5t-14.5 79.5t-40.5 65t-63.5 44t-82.5 16.5t-81.5 -16.5t-63 -44t-41 -65t-14.5 -79.5t14.5 -79.5t41 -65t63 -44
t81.5 -16.5zM928 300q-4 39 -19.5 68t-39 48.5t-54 29t-63.5 9.5q-32 0 -61.5 -11t-53.5 -31.5t-41 -49t-24 -63.5h356z" />
    <glyph glyph-name="obreve" unicode="&#x14f;" 
d="M310 45q45 0 82 16.5t63.5 44t40.5 65t14 79.5t-14 79.5t-40.5 65t-63.5 44t-82 16.5t-81.5 -16.5t-63 -44t-41 -65t-14.5 -79.5t14.5 -79.5t41 -65t63 -44t81.5 -16.5zM310 -8q-57 0 -104.5 20.5t-82 55.5t-53.5 82t-19 100t19 100t53.5 82t82 55.5t104.5 20.5
t104.5 -20.5t82 -55.5t53.5 -82t19 -100t-19 -100t-53.5 -82t-82 -55.5t-104.5 -20.5zM309 591q-66 0 -103.5 34.5t-41.5 84.5h53q4 -29 26.5 -51.5t66.5 -22.5q45 0 68 22.5t27 51.5h53q-5 -50 -42 -84.5t-107 -34.5z" />
    <glyph glyph-name="ohungarumlaut" unicode="&#x151;" 
d="M310 45q45 0 82 16.5t63.5 44t40.5 65t14 79.5t-14 79.5t-40.5 65t-63.5 44t-82 16.5t-81.5 -16.5t-63 -44t-41 -65t-14.5 -79.5t14.5 -79.5t41 -65t63 -44t81.5 -16.5zM310 -8q-57 0 -104.5 20.5t-82 55.5t-53.5 82t-19 100t19 100t53.5 82t82 55.5t104.5 20.5
t104.5 -20.5t82 -55.5t53.5 -82t19 -100t-19 -100t-53.5 -82t-82 -55.5t-104.5 -20.5zM285 710h81l-118 -165h-54zM445 710h81l-118 -165h-54z" />
    <glyph glyph-name="omacron" unicode="&#x14d;" 
d="M310 45q45 0 82 16.5t63.5 44t40.5 65t14 79.5t-14 79.5t-40.5 65t-63.5 44t-82 16.5t-81.5 -16.5t-63 -44t-41 -65t-14.5 -79.5t14.5 -79.5t41 -65t63 -44t81.5 -16.5zM310 -8q-57 0 -104.5 20.5t-82 55.5t-53.5 82t-19 100t19 100t53.5 82t82 55.5t104.5 20.5
t104.5 -20.5t82 -55.5t53.5 -82t19 -100t-19 -100t-53.5 -82t-82 -55.5t-104.5 -20.5zM171 680h278v-51h-278v51z" />
    <glyph glyph-name="uni1ECD" unicode="&#x1ecd;" 
d="M310 45q45 0 82 16.5t63.5 44t40.5 65t14 79.5t-14 79.5t-40.5 65t-63.5 44t-82 16.5t-81.5 -16.5t-63 -44t-41 -65t-14.5 -79.5t14.5 -79.5t41 -65t63 -44t81.5 -16.5zM310 -8q-57 0 -104.5 20.5t-82 55.5t-53.5 82t-19 100t19 100t53.5 82t82 55.5t104.5 20.5
t104.5 -20.5t82 -55.5t53.5 -82t19 -100t-19 -100t-53.5 -82t-82 -55.5t-104.5 -20.5zM310 -184q-22 0 -37 15t-15 37t15 37t37 15t37 -15t15 -37t-15 -37t-37 -15z" />
    <glyph glyph-name="racute" unicode="&#x155;" horiz-adv-x="356" 
d="M92 500h57v-76q26 38 65 58.5t85 20.5q16 0 33 -3v-59q-22 5 -39 5q-49 0 -88 -28t-56 -76v-342h-57v500zM246 710h81l-118 -165h-54z" />
    <glyph glyph-name="rcaron" unicode="&#x159;" horiz-adv-x="356" 
d="M92 500h57v-76q26 38 65 58.5t85 20.5q16 0 33 -3v-59q-22 5 -39 5q-49 0 -88 -28t-56 -76v-342h-57v500zM213 585l-167 112l27 43l140 -95l139 95l27 -44z" />
    <glyph glyph-name="uni0157" unicode="&#x157;" horiz-adv-x="356" 
d="M93 -50h81l-118 -165h-54zM92 500h57v-76q26 38 65 58.5t85 20.5q16 0 33 -3v-59q-22 5 -39 5q-49 0 -88 -28t-56 -76v-342h-57v500z" />
    <glyph glyph-name="sacute" unicode="&#x15b;" horiz-adv-x="425" 
d="M206 -8q-54 0 -99.5 25t-68.5 73l49 30q20 -36 49 -55.5t73 -19.5q23 0 43.5 5.5t35.5 16t24 26t9 34.5q0 37 -22.5 59t-76.5 41l-46 16q-34 12 -56 28t-35 35t-18.5 39t-5.5 40q0 25 11 47.5t31 39.5t48 26.5t61 9.5q48 0 85.5 -23.5t56.5 -68.5l-49 -21
q-11 27 -35 43.5t-60 16.5q-37 0 -63.5 -18.5t-26.5 -52.5q0 -29 16 -52.5t67 -41.5l49 -17q63 -23 95 -58t32 -87q0 -27 -11.5 -51.5t-33.5 -43t-54.5 -30t-73.5 -11.5zM276 710h81l-118 -165h-54z" />
    <glyph glyph-name="scaron" unicode="&#x161;" horiz-adv-x="425" 
d="M206 -8q-54 0 -99.5 25t-68.5 73l49 30q20 -36 49 -55.5t73 -19.5q23 0 43.5 5.5t35.5 16t24 26t9 34.5q0 37 -22.5 59t-76.5 41l-46 16q-34 12 -56 28t-35 35t-18.5 39t-5.5 40q0 25 11 47.5t31 39.5t48 26.5t61 9.5q48 0 85.5 -23.5t56.5 -68.5l-49 -21
q-11 27 -35 43.5t-60 16.5q-37 0 -63.5 -18.5t-26.5 -52.5q0 -29 16 -52.5t67 -41.5l49 -17q63 -23 95 -58t32 -87q0 -27 -11.5 -51.5t-33.5 -43t-54.5 -30t-73.5 -11.5zM212 585l-167 112l27 43l140 -95l139 95l27 -44z" />
    <glyph glyph-name="scedilla" unicode="&#x15f;" horiz-adv-x="425" 
d="M206 -8q-54 0 -99.5 25t-68.5 73l49 30q20 -36 49 -55.5t73 -19.5q23 0 43.5 5.5t35.5 16t24 26t9 34.5q0 37 -22.5 59t-76.5 41l-46 16q-34 12 -56 28t-35 35t-18.5 39t-5.5 40q0 25 11 47.5t31 39.5t48 26.5t61 9.5q48 0 85.5 -23.5t56.5 -68.5l-49 -21
q-11 27 -35 43.5t-60 16.5q-37 0 -63.5 -18.5t-26.5 -52.5q0 -29 16 -52.5t67 -41.5l49 -17q63 -23 95 -58t32 -87q0 -27 -11.5 -51.5t-33.5 -43t-54.5 -30t-73.5 -11.5zM198 0h40l-52 -137h-74z" />
    <glyph glyph-name="scircumflex" unicode="&#x15d;" horiz-adv-x="425" 
d="M206 -8q-54 0 -99.5 25t-68.5 73l49 30q20 -36 49 -55.5t73 -19.5q23 0 43.5 5.5t35.5 16t24 26t9 34.5q0 37 -22.5 59t-76.5 41l-46 16q-34 12 -56 28t-35 35t-18.5 39t-5.5 40q0 25 11 47.5t31 39.5t48 26.5t61 9.5q48 0 85.5 -23.5t56.5 -68.5l-49 -21
q-11 27 -35 43.5t-60 16.5q-37 0 -63.5 -18.5t-26.5 -52.5q0 -29 16 -52.5t67 -41.5l49 -17q63 -23 95 -58t32 -87q0 -27 -11.5 -51.5t-33.5 -43t-54.5 -30t-73.5 -11.5zM45 606l167 112l166 -111l-27 -44l-139 95l-140 -95z" />
    <glyph glyph-name="uni0219" unicode="&#x219;" horiz-adv-x="425" 
d="M171 -50h81l-118 -165h-54zM206 -8q-54 0 -99.5 25t-68.5 73l49 30q20 -36 49 -55.5t73 -19.5q23 0 43.5 5.5t35.5 16t24 26t9 34.5q0 37 -22.5 59t-76.5 41l-46 16q-34 12 -56 28t-35 35t-18.5 39t-5.5 40q0 25 11 47.5t31 39.5t48 26.5t61 9.5q48 0 85.5 -23.5
t56.5 -68.5l-49 -21q-11 27 -35 43.5t-60 16.5q-37 0 -63.5 -18.5t-26.5 -52.5q0 -29 16 -52.5t67 -41.5l49 -17q63 -23 95 -58t32 -87q0 -27 -11.5 -51.5t-33.5 -43t-54.5 -30t-73.5 -11.5z" />
    <glyph glyph-name="tbar" unicode="&#x167;" horiz-adv-x="356" 
d="M5 500h100v122l57 28v-150h149l-13 -55h-136v-86h144v-55h-144v-170q0 -42 17.5 -60.5t63.5 -18.5h61v-55h-62q-67 0 -102 30t-35 102v172h-95v55h95v86h-87z" />
    <glyph glyph-name="tcaron" unicode="&#x165;" horiz-adv-x="356" 
d="M5 500h100v122l57 28v-150h149l-13 -55h-136v-311q0 -42 17.5 -60.5t63.5 -18.5h61v-55h-62q-67 0 -102 30t-35 102v313h-87zM267 710h58l-42 -167h-41z" />
    <glyph glyph-name="uni0163" unicode="&#x163;" horiz-adv-x="356" 
d="M5 500h100v122l57 28v-150h149l-13 -55h-136v-311q0 -42 17.5 -60.5t63.5 -18.5h61v-55h-62q-67 0 -102 30t-35 102v313h-87zM181 -50h81l-118 -165h-54z" />
    <glyph glyph-name="uni021B" unicode="&#x21b;" horiz-adv-x="356" 
d="M5 500h100v122l57 28v-150h149l-13 -55h-136v-311q0 -42 17.5 -60.5t63.5 -18.5h61v-55h-62q-67 0 -102 30t-35 102v313h-87zM181 -50h81l-118 -165h-54z" />
    <glyph glyph-name="ubreve" unicode="&#x16d;" horiz-adv-x="567" 
d="M418 70q-31 -44 -77 -61t-94 -17q-39 0 -73 13t-58.5 38t-38.5 60.5t-14 80.5v316h57v-308q0 -72 39.5 -109.5t102.5 -37.5t102.5 34t53.5 88v333h57v-500h-57v70zM268 591q-66 0 -103.5 34.5t-41.5 84.5h53q4 -29 26.5 -51.5t66.5 -22.5q45 0 68 22.5t27 51.5h53
q-5 -50 -42 -84.5t-107 -34.5z" />
    <glyph glyph-name="uhungarumlaut" unicode="&#x171;" horiz-adv-x="567" 
d="M418 70q-31 -44 -77 -61t-94 -17q-39 0 -73 13t-58.5 38t-38.5 60.5t-14 80.5v316h57v-308q0 -72 39.5 -109.5t102.5 -37.5t102.5 34t53.5 88v333h57v-500h-57v70zM244 710h81l-118 -165h-54zM404 710h81l-118 -165h-54z" />
    <glyph glyph-name="umacron" unicode="&#x16b;" horiz-adv-x="567" 
d="M418 70q-31 -44 -77 -61t-94 -17q-39 0 -73 13t-58.5 38t-38.5 60.5t-14 80.5v316h57v-308q0 -72 39.5 -109.5t102.5 -37.5t102.5 34t53.5 88v333h57v-500h-57v70zM130 680h278v-51h-278v51z" />
    <glyph glyph-name="uogonek" unicode="&#x173;" horiz-adv-x="571" 
d="M425 -174q-20 0 -39 4.5t-33.5 14.5t-23.5 25t-9 36q0 17 8.5 31.5t22.5 26.5t31.5 21t35.5 15h57q-89 -39 -89 -82q0 -17 14 -29t43 -12q21 0 36 5v-49q-24 -7 -54 -7zM418 70q-31 -44 -77 -61t-94 -17q-39 0 -73 13t-58.5 38t-38.5 60.5t-14 80.5v316h57v-308
q0 -72 39.5 -109.5t102.5 -37.5t102.5 34t53.5 88v333h57v-500h-57v70z" />
    <glyph glyph-name="uring" unicode="&#x16f;" horiz-adv-x="567" 
d="M418 70q-31 -44 -77 -61t-94 -17q-39 0 -73 13t-58.5 38t-38.5 60.5t-14 80.5v316h57v-308q0 -72 39.5 -109.5t102.5 -37.5t102.5 34t53.5 88v333h57v-500h-57v70zM270 610q22 0 37.5 15.5t15.5 38.5q0 22 -15.5 38t-37.5 16t-38 -16t-16 -38q0 -23 16 -38.5t38 -15.5z
M270 573q-19 0 -36 7t-29.5 19.5t-19.5 29t-7 35.5t7 35.5t19.5 29t29.5 19.5t36 7q38 0 65 -26.5t27 -64.5t-27 -64.5t-65 -26.5z" />
    <glyph glyph-name="utilde" unicode="&#x169;" horiz-adv-x="567" 
d="M418 70q-31 -44 -77 -61t-94 -17q-39 0 -73 13t-58.5 38t-38.5 60.5t-14 80.5v316h57v-308q0 -72 39.5 -109.5t102.5 -37.5t102.5 34t53.5 88v333h57v-500h-57v70zM107 585q9 42 36.5 64t60.5 22q21 0 38 -7.5t32.5 -16t29.5 -16t28 -7.5q22 0 33.5 12t16.5 35h52l-3 -14
q-8 -37 -33.5 -61t-62.5 -24q-21 0 -39 7.5t-33.5 16t-30 16t-28.5 7.5q-21 0 -32 -12t-16 -35h-52z" />
    <glyph glyph-name="uni1EE5" unicode="&#x1ee5;" horiz-adv-x="567" 
d="M418 70q-31 -44 -77 -61t-94 -17q-39 0 -73 13t-58.5 38t-38.5 60.5t-14 80.5v316h57v-308q0 -72 39.5 -109.5t102.5 -37.5t102.5 34t53.5 88v333h57v-500h-57v70zM269 -184q-22 0 -37 15t-15 37t15 37t37 15t37 -15t15 -37t-15 -37t-37 -15z" />
    <glyph glyph-name="wacute" unicode="&#x1e83;" horiz-adv-x="721" 
d="M30 500h59l126 -400l146 408l145 -408l126 400h59l-159 -500h-41l-130 359l-128 -359h-43zM425 710h81l-118 -165h-54z" />
    <glyph glyph-name="wcircumflex" unicode="&#x175;" horiz-adv-x="721" 
d="M30 500h59l126 -400l146 408l145 -408l126 400h59l-159 -500h-41l-130 359l-128 -359h-43zM194 606l167 112l166 -111l-27 -44l-139 95l-140 -95z" />
    <glyph glyph-name="wdieresis" unicode="&#x1e85;" horiz-adv-x="721" 
d="M30 500h59l126 -400l146 408l145 -408l126 400h59l-159 -500h-41l-130 359l-128 -359h-43zM251 580q-22 0 -37 15t-15 37t15 37t37 15t37 -15t15 -37t-15 -37t-37 -15zM471 580q-22 0 -37 15t-15 37t15 37t37 15t37 -15t15 -37t-15 -37t-37 -15z" />
    <glyph glyph-name="wgrave" unicode="&#x1e81;" horiz-adv-x="721" 
d="M30 500h59l126 -400l146 408l145 -408l126 400h59l-159 -500h-41l-130 359l-128 -359h-43zM216 710h81l91 -165h-54z" />
    <glyph glyph-name="ycircumflex" unicode="&#x177;" horiz-adv-x="509" 
d="M224 55l-214 445h64l180 -389l181 389h64l-329 -684h-61zM87 606l167 112l166 -111l-27 -44l-139 95l-140 -95z" />
    <glyph glyph-name="ygrave" unicode="&#x1ef3;" horiz-adv-x="509" 
d="M224 55l-214 445h64l180 -389l181 389h64l-329 -684h-61zM130 710h81l91 -165h-54z" />
    <glyph glyph-name="uni0233" unicode="&#x233;" horiz-adv-x="509" 
d="M224 55l-214 445h64l180 -389l181 389h64l-329 -684h-61zM115 680h278v-51h-278v51z" />
    <glyph glyph-name="zacute" unicode="&#x17a;" horiz-adv-x="505" 
d="M355 445h-290v55h393l-321 -445h315v-55h-417zM304 710h81l-118 -165h-54z" />
    <glyph glyph-name="zcaron" unicode="&#x17e;" horiz-adv-x="505" 
d="M355 445h-290v55h393l-321 -445h315v-55h-417zM261 585l-167 112l27 43l140 -95l139 95l27 -44z" />
    <glyph glyph-name="zdotaccent" unicode="&#x17c;" horiz-adv-x="505" 
d="M355 445h-290v55h393l-321 -445h315v-55h-417zM261 580q-22 0 -37 15t-15 37t15 37t37 15t37 -15t15 -37t-15 -37t-37 -15z" />
    <glyph glyph-name="uni0410" unicode="&#x410;" horiz-adv-x="710" 
d="M352 718l343 -718h-65l-104 217h-348l-103 -217h-65zM206 276h292l-146 307z" />
    <glyph glyph-name="uni0411" unicode="&#x411;" horiz-adv-x="627" 
d="M347 57q88 0 130.5 39t42.5 102q0 31 -10.5 57t-31.5 45t-53.5 30t-76.5 11h-180v-284h179zM353 396q108 0 168.5 -54t60.5 -147q0 -50 -18.5 -86.5t-52.5 -60.5t-81.5 -36t-105.5 -12h-218v710h411v-57h-349v-257h185z" />
    <glyph glyph-name="uni0412" unicode="&#x412;" horiz-adv-x="624" 
d="M106 710h217q52 0 91.5 -14.5t66.5 -39.5t40.5 -57t13.5 -66q0 -60 -24 -98t-62 -58q27 -8 51.5 -23t42.5 -37.5t28.5 -53t10.5 -68.5q0 -49 -19 -85.5t-53.5 -61t-83 -36.5t-107.5 -12h-213v710zM346 57q88 0 131 39t43 102q0 31 -10.5 57t-32 45t-54 30t-76.5 11h-179
v-284h178zM332 396q68 0 104.5 36.5t36.5 91.5q0 26 -9.5 49.5t-27.5 41t-44 28t-60 10.5h-164v-257h164z" />
    <glyph glyph-name="uni0413" unicode="&#x413;" horiz-adv-x="491" 
d="M168 0h-62v710h365v-60h-303v-650z" />
    <glyph glyph-name="uni0414" unicode="&#x414;" horiz-adv-x="739" 
d="M662 0h-585v-148h-62v208h71l284 658l284 -658h70v-208h-62v148zM589 60l-218 512l-220 -512h438z" />
    <glyph glyph-name="uni0415" unicode="&#x415;" horiz-adv-x="555" 
d="M102 710h398v-59h-336v-255h276v-60h-276v-277h336v-59h-398v710z" />
    <glyph glyph-name="uni0401" unicode="&#x401;" horiz-adv-x="555" 
d="M102 710h398v-59h-336v-255h276v-60h-276v-277h336v-59h-398v710zM191 791q-22 0 -37 15t-15 37t15 37t37 15t37 -15t15 -37t-15 -37t-37 -15zM411 791q-22 0 -37 15t-15 37t15 37t37 15t37 -15t15 -37t-15 -37t-37 -15z" />
    <glyph glyph-name="uni0416" unicode="&#x416;" horiz-adv-x="1006" 
d="M472 337l-371 -337h-88l385 348l-358 362h81l351 -354v354h62v-354l351 354h81l-358 -362l385 -348h-88l-371 337v-337h-62v337z" />
    <glyph glyph-name="uni0417" unicode="&#x417;" horiz-adv-x="549" 
d="M68 628q35 41 88 65.5t114 24.5q46 0 83.5 -13t64 -37t41 -57t14.5 -73q0 -60 -27.5 -102t-71.5 -62q27 -9 51 -24t42 -37t29 -51.5t11 -66.5q0 -52 -21.5 -90.5t-56 -63.5t-78 -37t-87.5 -12q-39 0 -73.5 8.5t-63 23t-50.5 32t-37 35.5l47 43q13 -16 30 -31t38.5 -26.5
t48.5 -18.5t61 -7q35 0 67.5 8.5t57.5 26.5t40 45.5t15 66.5q0 71 -49 107t-137 36h-82v55h86q34 0 61 10.5t46 29t29.5 43.5t10.5 54q0 27 -10.5 50.5t-29.5 40.5t-46 26t-60 9q-48 -1 -85 -21t-65 -53z" />
    <glyph glyph-name="uni0418" unicode="&#x418;" horiz-adv-x="803" 
d="M106 -8v718h62v-565l529 573v-718h-62v565z" />
    <glyph glyph-name="uni0419" unicode="&#x419;" horiz-adv-x="803" 
d="M567 914q-2 -71 -44.5 -109t-114.5 -38t-115 38.5t-44 108.5h52q1 -55 30.5 -80t76.5 -25q46 0 75.5 25t31.5 80h52zM106 -8v718h62v-565l529 573v-718h-62v565z" />
    <glyph glyph-name="uni041A" unicode="&#x41a;" horiz-adv-x="640" 
d="M106 710h62v-355l352 355h80l-358 -362l385 -348h-87l-372 338v-338h-62v710z" />
    <glyph glyph-name="uni041B" unicode="&#x41b;" horiz-adv-x="710" 
d="M10 0l342 718l343 -718h-67l-276 583l-275 -583h-67z" />
    <glyph glyph-name="uni041C" unicode="&#x41c;" horiz-adv-x="896" 
d="M106 718l342 -391l342 391v-718h-62v560l-280 -322l-280 322v-560h-62v718z" />
    <glyph glyph-name="uni041D" unicode="&#x41d;" horiz-adv-x="773" 
d="M106 710h62v-314h437v314h62v-710h-62v336h-437v-336h-62v710z" />
    <glyph glyph-name="uni041E" unicode="&#x41e;" horiz-adv-x="822" 
d="M411 51q64 0 119 23.5t95 64t62.5 96t22.5 120.5q0 64 -22.5 120t-62.5 96.5t-95 64t-119 23.5t-119 -23.5t-95 -64t-62.5 -96.5t-22.5 -120q0 -65 22.5 -120.5t62.5 -96t95 -64t119 -23.5zM411 -8q-77 0 -143 27.5t-115 76.5t-77 115.5t-28 143.5t28 143.5t77 115
t115 76.5t143 28q76 0 142.5 -28t115.5 -76.5t77 -115t28 -143.5t-28 -143.5t-77 -115.5t-115.5 -76.5t-142.5 -27.5z" />
    <glyph glyph-name="uni041F" unicode="&#x41f;" horiz-adv-x="743" 
d="M168 650v-650h-62v710h531v-710h-62v650h-407z" />
    <glyph glyph-name="uni0420" unicode="&#x420;" horiz-adv-x="558" 
d="M106 710h186q116 0 181 -53.5t65 -153.5q0 -97 -65 -152t-181 -55h-124v-296h-62v710zM292 353q91 0 136 38.5t45 111.5t-45 112t-136 39h-124v-301h124z" />
    <glyph glyph-name="uni0421" unicode="&#x421;" horiz-adv-x="674" 
d="M411 -8q-77 0 -143 27.5t-115 76.5t-77 115.5t-28 143.5t28 143.5t77 115t115 76.5t143 28q65 0 122 -19.5t103 -57.5l-34 -50q-38 32 -86 50t-105 18q-64 0 -119 -23.5t-95 -64t-62.5 -96.5t-22.5 -120q0 -65 22.5 -120.5t62.5 -96t95 -64t119 -23.5q57 0 105.5 18
t86.5 50l33 -50q-45 -37 -102.5 -57t-122.5 -20z" />
    <glyph glyph-name="uni0422" unicode="&#x422;" horiz-adv-x="505" 
d="M221 651h-201v59h465v-59h-202v-651h-62v651z" />
    <glyph glyph-name="uni0423" unicode="&#x423;" horiz-adv-x="649" 
d="M268 0h-68l87 162l-287 548h69l253 -483l260 483h67z" />
    <glyph glyph-name="uni0424" unicode="&#x424;" horiz-adv-x="888" 
d="M475 752v-97h32q78 0 140 -21t106 -59t67.5 -90t23.5 -115t-23.5 -115.5t-67.5 -90.5t-106 -59.5t-140 -21.5h-32v-99h-62v99h-32q-78 0 -140 21.5t-106 59.5t-67.5 90.5t-23.5 115.5t23.5 115t67.5 90t106 59t140 21h32v97h62zM105 370q0 -50 17.5 -92t52 -72t85.5 -47
t117 -17h36v454h-36q-66 0 -117 -17t-85.5 -47t-52 -71.5t-17.5 -90.5zM511 142q66 0 117 17t85.5 47t52 72t17.5 92q0 49 -17.5 90.5t-52 71.5t-85.5 47t-117 17h-36v-454h36z" />
    <glyph glyph-name="uni0425" unicode="&#x425;" horiz-adv-x="670" 
d="M300 365l-255 345h70l220 -298l221 298h70l-255 -345l269 -365h-72l-233 317l-232 -317h-72z" />
    <glyph glyph-name="uni0426" unicode="&#x426;" horiz-adv-x="733" 
d="M626 -148v148h-520v710h62v-650h388v650h62v-650h70v-208h-62z" />
    <glyph glyph-name="uni0427" unicode="&#x427;" horiz-adv-x="696" 
d="M528 0v317q-50 -17 -104.5 -27.5t-118.5 -10.5q-56 0 -100 15.5t-75.5 42.5t-48 64t-16.5 81v228h62v-222q0 -39 14 -67t38.5 -46t58.5 -27t75 -9q60 0 111 9.5t104 28.5v333h62v-710h-62z" />
    <glyph glyph-name="uni0428" unicode="&#x428;" horiz-adv-x="991" 
d="M168 710v-650h297v650h62v-650h296v650h62v-710h-779v710h62z" />
    <glyph glyph-name="uni0429" unicode="&#x429;" horiz-adv-x="1000" 
d="M893 -148v148h-787v710h62v-650h297v650h62v-650h296v650h62v-650h70v-208h-62z" />
    <glyph glyph-name="uni042A" unicode="&#x42a;" horiz-adv-x="708" 
d="M409 414q119 0 186.5 -55t67.5 -152q0 -100 -67.5 -153.5t-186.5 -53.5h-188v651h-201v59h263v-296h126zM409 56q94 0 141.5 39t47.5 112t-47.5 111.5t-141.5 38.5h-126v-301h126z" />
    <glyph glyph-name="uni042B" unicode="&#x42b;" horiz-adv-x="832" 
d="M664 710h62v-710h-62v710zM294 414q119 0 186.5 -55t67.5 -152q0 -100 -67.5 -153.5t-186.5 -53.5h-188v710h62v-296h126zM294 56q94 0 141.5 39t47.5 112t-47.5 111.5t-141.5 38.5h-126v-301h126z" />
    <glyph glyph-name="uni042C" unicode="&#x42c;" horiz-adv-x="593" 
d="M294 414q119 0 186.5 -55t67.5 -152q0 -100 -67.5 -153.5t-186.5 -53.5h-188v710h62v-296h126zM294 56q94 0 141.5 39t47.5 112t-47.5 111.5t-141.5 38.5h-126v-301h126z" />
    <glyph glyph-name="uni042D" unicode="&#x42d;" horiz-adv-x="681" 
d="M45 641q46 38 103 57.5t122 19.5q76 0 142.5 -28t115.5 -76.5t77 -115t28 -143.5t-28 -143.5t-77 -115.5t-115.5 -76.5t-142.5 -27.5q-65 0 -122.5 20t-102.5 57l33 50q38 -32 86.5 -50t105.5 -18q61 0 113 21t91.5 58t64 87.5t29.5 110.5h-357v60h356q-6 58 -30.5 108
t-63.5 86t-91 56.5t-112 20.5q-57 0 -105 -18t-86 -50z" />
    <glyph glyph-name="uni042E" unicode="&#x42e;" horiz-adv-x="1099" 
d="M327 396q7 69 38 128t79 102t110.5 67.5t133.5 24.5q76 0 142.5 -28t115.5 -76.5t77 -115t28 -143.5t-28 -143.5t-77 -115.5t-115.5 -76.5t-142.5 -27.5q-74 0 -138.5 26t-113.5 72t-78 109t-33 137h-157v-336h-62v710h62v-314h159zM987 355q0 64 -22.5 120t-62.5 96.5
t-95 64t-119 23.5t-119 -23.5t-95 -64t-62.5 -96.5t-22.5 -120q0 -65 22.5 -120.5t62.5 -96t95 -64t119 -23.5t119 23.5t95 64t62.5 96t22.5 120.5z" />
    <glyph glyph-name="uni042F" unicode="&#x42f;" horiz-adv-x="614" 
d="M360 296h-26l-211 -296h-78l223 306q-56 13 -95 45q-67 56 -67 152q0 100 67.5 153.5t186.5 53.5h148v-710h-62v296h-86zM360 654q-94 0 -141.5 -39t-47.5 -112q0 -71 47.5 -110.5t141.5 -39.5h86v301h-86z" />
    <glyph glyph-name="uni0402" unicode="&#x402;" horiz-adv-x="748" 
d="M274 650v-256q28 10 53 16.5t49 11t48.5 6.5t51.5 2q51 0 91 -15.5t68 -44t43 -68t15 -87.5v-8q0 -68 -21.5 -118t-57.5 -83t-83.5 -49.5t-99.5 -16.5h-12v56h11q32 0 67.5 9.5t65 33t48.5 62.5t19 99v9q0 35 -10.5 64.5t-31.5 51t-51.5 33.5t-70.5 12q-27 0 -50 -2
t-45 -6t-45.5 -11t-51.5 -16v-335h-62v650h-192v60h470v-60h-216z" />
    <glyph glyph-name="uni0403" unicode="&#x403;" horiz-adv-x="491" 
d="M168 0h-62v710h365v-60h-303v-650zM338 913h82l-109 -145h-55z" />
    <glyph glyph-name="uni0404" unicode="&#x404;" horiz-adv-x="676" 
d="M113 328q4 -60 28 -111t64 -87.5t92.5 -57.5t113.5 -21q57 0 105.5 18t86.5 50l33 -50q-45 -37 -102.5 -57t-122.5 -20q-77 0 -143 27.5t-115 76.5t-77 115.5t-28 143.5t28 143.5t77 115t115 76.5t143 28q65 0 122 -19.5t103 -57.5l-34 -50q-38 32 -86 50t-105 18
q-61 0 -113.5 -20t-92 -56t-64 -85.5t-28.5 -109.5h382v-60h-382z" />
    <glyph glyph-name="uni0405" unicode="&#x405;" horiz-adv-x="524" 
d="M248 -8q-37 0 -70 8.5t-61.5 23t-51 32t-37.5 35.5l47 43q13 -16 31 -31t40 -26.5t47.5 -18.5t54.5 -7q73 0 117.5 33t44.5 89q0 59 -34.5 92t-95.5 60l-75 32q-81 35 -116 82t-35 112q0 38 17 69t45.5 52.5t65 33.5t74.5 12q63 0 114 -25.5t84 -64.5l-46 -43
q-28 33 -64 53.5t-91 20.5q-28 0 -53 -7.5t-43.5 -22t-29.5 -35.5t-11 -47q0 -45 24.5 -76t85.5 -57l75 -32q36 -15 67.5 -34t54.5 -43t36.5 -54.5t13.5 -68.5q0 -41 -15 -75.5t-44 -60t-71 -40t-95 -14.5z" />
    <glyph glyph-name="uni0406" unicode="&#x406;" horiz-adv-x="274" 
d="M106 710h62v-710h-62v710z" />
    <glyph glyph-name="uni0407" unicode="&#x407;" horiz-adv-x="274" 
d="M27 791q-22 0 -37 15t-15 37t15 37t37 15t37 -15t15 -37t-15 -37t-37 -15zM247 791q-22 0 -37 15t-15 37t15 37t37 15t37 -15t15 -37t-15 -37t-37 -15zM106 710h62v-710h-62v710z" />
    <glyph glyph-name="uni0408" unicode="&#x408;" horiz-adv-x="492" 
d="M206 -8q-42 0 -77.5 13.5t-62 38.5t-41.5 61t-15 82h62q0 -35 10.5 -60t28.5 -41.5t42.5 -25t51.5 -9.5q60 0 97.5 33.5t37.5 102.5v523h62v-533q0 -46 -15.5 -80.5t-42 -58t-62 -35t-76.5 -11.5z" />
    <glyph glyph-name="uni0409" unicode="&#x409;" horiz-adv-x="1004" 
d="M705 56q94 0 141.5 39t47.5 112t-47.5 111.5t-141.5 38.5h-181l138 -287l7 -14h36zM77 0h-67l342 718l145 -304h208q119 0 186.5 -55t67.5 -152q0 -100 -67.5 -153.5t-186.5 -53.5h-77l-276 583z" />
    <glyph glyph-name="uni040A" unicode="&#x40a;" horiz-adv-x="1036" 
d="M737 396q120 0 187 -46.5t67 -144.5q0 -100 -67.5 -152.5t-186.5 -52.5h-182v336h-387v-336h-62v710h62v-314h387v314h62v-314h120zM737 56q94 0 141.5 39t47.5 112q0 66 -43 97.5t-146 31.5h-120v-280h120z" />
    <glyph glyph-name="uni040B" unicode="&#x40b;" horiz-adv-x="786" 
d="M212 650h-192v60h478v-60h-224v-256q28 10 53 17t50 11.5t51.5 6.5t58.5 2q51 0 92.5 -15.5t70.5 -42.5t45 -64.5t16 -80.5v-228h-63v222q0 32 -11.5 59t-32.5 47t-51.5 31.5t-68.5 11.5q-32 0 -58 -2t-50.5 -6.5t-49 -11.5t-52.5 -16v-335h-62v650z" />
    <glyph glyph-name="uni040C" unicode="&#x40c;" horiz-adv-x="640" 
d="M106 710h62v-355l352 355h80l-358 -362l385 -348h-87l-372 338v-338h-62v710zM370 913h82l-109 -145h-55z" />
    <glyph glyph-name="uni040E" unicode="&#x40e;" horiz-adv-x="649" 
d="M268 0h-68l87 162l-287 548h69l253 -483l260 483h67zM483 914q-2 -71 -44.5 -109t-114.5 -38t-115 38.5t-44 108.5h52q1 -55 30.5 -80t76.5 -25q46 0 75.5 25t31.5 80h52z" />
    <glyph glyph-name="uni040F" unicode="&#x40f;" horiz-adv-x="743" 
d="M341 -148v148h-235v710h62v-650h407v650h62v-710h-234v-148h-62z" />
    <glyph glyph-name="uni0490" unicode="&#x490;" horiz-adv-x="491" 
d="M106 0v710h303v129h62v-189h-303v-650h-62z" />
    <glyph glyph-name="uni0462" unicode="&#x462;" horiz-adv-x="604" 
d="M302 414q119 0 186.5 -55t67.5 -152q0 -100 -67.5 -153.5t-186.5 -53.5h-188v560h-104v59h104v91h62v-91h202v-59h-202v-146h126zM302 56q94 0 141.5 39t47.5 112t-47.5 111.5t-141.5 38.5h-126v-301h126z" />
    <glyph glyph-name="uni0472" unicode="&#x472;" horiz-adv-x="822" 
d="M774 355q0 -77 -28 -143.5t-77 -115.5t-115.5 -76.5t-142.5 -27.5q-77 0 -143 27.5t-115 76.5t-77 115.5t-28 143.5t28 143.5t77 115t115 76.5t143 28q76 0 142.5 -28t115.5 -76.5t77 -115t28 -143.5zM114 388q76 36 151 36q37 0 72.5 -7.5t71 -16t72.5 -16t77 -7.5
q37 0 76 7.5t72 22.5q-9 55 -34.5 101t-64.5 79.5t-89 52.5t-107 19q-60 0 -112 -20.5t-91 -57t-63.5 -86t-30.5 -107.5zM710 350q-39 -14 -81 -21.5t-78 -7.5q-40 0 -77.5 7.5t-73.5 16.5t-71.5 16.5t-71.5 7.5t-73 -9.5t-71 -31.5q5 -60 29.5 -110.5t64 -87.5t91.5 -58
t113 -21q63 0 117.5 23t94.5 63t63 94.5t24 118.5z" />
    <glyph glyph-name="uni0474" unicode="&#x474;" horiz-adv-x="684" 
d="M540 618q21 51 50 75t74 24v-65q-22 0 -39.5 -15t-28.5 -42l-259 -603l-322 718h66l256 -576z" />
    <glyph glyph-name="uni0492" unicode="&#x492;" horiz-adv-x="498" 
d="M368 337h-193v-337h-62v337h-93v59h93v314h365v-60h-303v-254h193v-59z" />
    <glyph glyph-name="uni0496" unicode="&#x496;" horiz-adv-x="1031" 
d="M948 -129v129h-43l-371 337v-337h-62v337l-371 -337h-88l385 348l-358 362h81l351 -354v354h62v-354l351 354h81l-358 -362l319 -288h79v-189h-58z" />
    <glyph glyph-name="uni049A" unicode="&#x49a;" horiz-adv-x="665" 
d="M582 -129v129h-42l-372 338v-338h-62v710h62v-355l352 355h80l-358 -362l319 -288h79v-189h-58z" />
    <glyph glyph-name="uni04A2" unicode="&#x4a2;" horiz-adv-x="782" 
d="M675 0h-70v336h-437v-336h-62v710h62v-314h437v314h62v-650h70v-208h-62v148z" />
    <glyph glyph-name="uni04AE" unicode="&#x4ae;" 
d="M279 302l-259 408h71l220 -350l219 350h70l-259 -408v-302h-62v302z" />
    <glyph glyph-name="uni04B0" unicode="&#x4b0;" 
d="M341 211v-211h-62v211h-138v59h138v32l-259 408h71l220 -350l219 350h70l-259 -408v-32h138v-59h-138z" />
    <glyph glyph-name="uni04B2" unicode="&#x4b2;" horiz-adv-x="700" 
d="M617 0h-46l-235 317l-233 -317h-72l269 365l-255 345h70l219 -297l219 297h72l-254 -346l225 -304h79v-189h-58v129z" />
    <glyph glyph-name="uni04B6" unicode="&#x4b6;" horiz-adv-x="705" 
d="M598 -148v148h-70v317q-50 -17 -104.5 -27.5t-118.5 -10.5q-56 0 -100 15.5t-75.5 42.5t-48 64t-16.5 81v228h62v-222q0 -39 14 -67t38.5 -46t58.5 -27t75 -9q60 0 111 9.5t104 28.5v333h62v-650h70v-208h-62z" />
    <glyph glyph-name="uni04BA" unicode="&#x4ba;" horiz-adv-x="696" 
d="M167.99 709.957v-316.981q49.9961 16.999 104.493 27.499q54.4971 10.499 118.493 10.499q55.9961 0 99.9932 -15.499q43.998 -15.499 75.4961 -42.4971q31.498 -26.999 47.9971 -63.9961q16.499 -36.998 16.499 -80.9951v-227.986h-61.9971v221.986
q0 38.998 -13.999 66.9961t-38.4971 45.9971q-24.499 17.999 -58.4971 26.998q-33.9971 9 -74.9951 9q-59.9961 0 -110.993 -9.5q-50.9971 -9.49902 -103.993 -28.498v-332.979h-61.9971v709.957h61.9971z" />
    <glyph glyph-name="uni04C0" unicode="&#x4c0;" horiz-adv-x="274" 
d="M106 710h62v-710h-62v710z" />
    <glyph glyph-name="uni04D8" unicode="&#x4d8;" horiz-adv-x="754" 
d="M118 641q46 38 105 57.5t136 19.5q70 0 133.5 -28t110.5 -76.5t75 -115t28 -143.5t-23.5 -143.5t-66.5 -115.5t-104.5 -76.5t-136.5 -27.5q-77 0 -140.5 25.5t-108.5 72.5t-70.5 114t-25.5 151h612q0 64 -22.5 120t-61 96.5t-90 64t-109.5 23.5q-69 0 -119 -18t-88 -50z
M99 296q9 -53 30.5 -98t56 -77.5t82 -51t107.5 -18.5q56 0 100.5 18t77.5 50.5t54 77.5t30 99h-538z" />
    <glyph glyph-name="uni04E2" unicode="&#x4e2;" horiz-adv-x="803" 
d="M106 -8v718h62v-565l529 573v-718h-62v565zM271 859h278v-50h-278v50z" />
    <glyph glyph-name="uni04E8" unicode="&#x4e8;" horiz-adv-x="822" 
d="M774 355q0 -77 -28 -143.5t-77 -115.5t-115.5 -76.5t-142.5 -27.5q-77 0 -143 27.5t-115 76.5t-77 115.5t-28 143.5t28 143.5t77 115t115 76.5t143 28q76 0 142.5 -28t115.5 -76.5t77 -115t28 -143.5zM708 396q-7 57 -32.5 105t-64.5 83.5t-90 55t-110 19.5t-110 -19.5
t-90 -55t-64.5 -83.5t-32.5 -105h594zM113 336q3 -61 27 -113t63.5 -90.5t92.5 -60t115 -21.5t115 21.5t92.5 60t63.5 90.5t27 113h-596z" />
    <glyph glyph-name="uni04EE" unicode="&#x4ee;" horiz-adv-x="649" 
d="M268 0h-68l87 162l-287 548h69l253 -483l260 483h67zM205 859h278v-50h-278v50z" />
    <glyph glyph-name="uni0430" unicode="&#x430;" horiz-adv-x="647" 
d="M494 68q-72 -76 -184 -76q-56 0 -102.5 20.5t-80.5 55.5t-52.5 82t-18.5 100t18.5 100t52.5 82t80.5 55.5t102.5 20.5q55 0 101.5 -19t82.5 -58v69h57v-500h-57v68zM310 45q67 0 114 29t70 71v211q-24 42 -71 70.5t-113 28.5q-43 0 -79 -16.5t-61.5 -44t-40 -65
t-14.5 -79.5t14.5 -79.5t40 -65t61.5 -44t79 -16.5z" />
    <glyph glyph-name="uni0431" unicode="&#x431;" horiz-adv-x="624" 
d="M341 628q-99 -29 -157 -92.5t-70 -154.5q31 55 84 85.5t119 30.5q57 0 102.5 -19.5t78 -53t50 -78.5t17.5 -96q0 -54 -19 -101.5t-52.5 -82t-80.5 -54.5t-104 -20q-56 0 -102 19.5t-79 55t-51.5 85t-18.5 109.5v63q0 146 70 232t201 124l192 56v-56zM312 442
q-44 0 -79.5 -15t-61 -41.5t-39.5 -61.5t-14 -74q0 -43 13.5 -80t38.5 -64.5t60 -43t79 -15.5t80 15.5t62 42.5t40 64t14 81q0 43 -14.5 78t-40 60.5t-61 39.5t-77.5 14z" />
    <glyph glyph-name="uni0432" unicode="&#x432;" horiz-adv-x="541" 
d="M96 0v500h203q32 0 61.5 -7.5t52 -23t36 -39.5t13.5 -57q0 -31 -12 -60t-41 -48q40 -13 63.5 -46t23.5 -78q0 -32 -12.5 -58t-34 -44.5t-52 -28.5t-66.5 -10h-235zM334 54q42 0 73 23.5t31 66.5t-31 67t-73 24h-181v-181h181zM304 286q42 0 71 18.5t29 60.5
q0 44 -29 62.5t-71 18.5h-151v-160h151z" />
    <glyph glyph-name="uni0433" unicode="&#x433;" horiz-adv-x="397" 
d="M96 0v500h281v-55h-224v-445h-57z" />
    <glyph glyph-name="uni0434" unicode="&#x434;" horiz-adv-x="589" 
d="M519 0h-449v-129h-55v184h57l222 454l223 -454h57v-184h-55v129zM454 55l-160 334l-159 -334h319z" />
    <glyph glyph-name="uni0435" unicode="&#x435;" horiz-adv-x="580" 
d="M308 -8q-56 0 -102.5 20.5t-80 55.5t-52.5 82t-19 100q0 54 19 101t52 82t77.5 55t95.5 20q49 0 91.5 -15.5t74.5 -48t50.5 -81t20.5 -114.5h-422q0 -42 14.5 -79t40.5 -65t62 -44t78 -16q51 0 89.5 17.5t66.5 43.5l36 -40q-32 -30 -79.5 -52t-112.5 -22zM296 455
q-32 0 -61.5 -11t-53.5 -31.5t-40.5 -49t-23.5 -63.5h355q-4 39 -19.5 68t-39 48.5t-54 29t-63.5 9.5z" />
    <glyph glyph-name="uni0451" unicode="&#x451;" horiz-adv-x="580" 
d="M308 -8q-56 0 -102.5 20.5t-80 55.5t-52.5 82t-19 100q0 54 19 101t52 82t77.5 55t95.5 20q49 0 91.5 -15.5t74.5 -48t50.5 -81t20.5 -114.5h-422q0 -42 14.5 -79t40.5 -65t62 -44t78 -16q51 0 89.5 17.5t66.5 43.5l36 -40q-32 -30 -79.5 -52t-112.5 -22zM296 455
q-32 0 -61.5 -11t-53.5 -31.5t-40.5 -49t-23.5 -63.5h355q-4 39 -19.5 68t-39 48.5t-54 29t-63.5 9.5zM189 580q-22 0 -37 15t-15 37t15 37t37 15t37 -15t15 -37t-15 -37t-37 -15zM409 580q-22 0 -37 15t-15 37t15 37t37 15t37 -15t15 -37t-15 -37t-37 -15z" />
    <glyph glyph-name="uni0436" unicode="&#x436;" horiz-adv-x="769" 
d="M81 0h-78l283 251l-260 249h74l256 -248v248h57v-248l256 248h74l-260 -249l283 -251h-78l-275 246v-246h-57v246z" />
    <glyph glyph-name="uni0437" unicode="&#x437;" horiz-adv-x="462" 
d="M56 409q23 45 68.5 72t107.5 27q33 0 62.5 -10t52 -28t36 -43t13.5 -55q0 -35 -18.5 -64t-56.5 -46q46 -13 71 -47t25 -80q0 -63 -47 -103t-135 -40q-78 0 -123.5 29t-70.5 70l49 34q10 -16 22.5 -30.5t30 -26t40.5 -18.5t53 -7q53 0 88 26t35 68q0 49 -37.5 73.5
t-106.5 24.5h-69v51h69q57 0 90 20.5t33 61.5q0 39 -28.5 64t-79.5 25q-49 0 -79.5 -18.5t-45.5 -50.5z" />
    <glyph glyph-name="uni0438" unicode="&#x438;" horiz-adv-x="624" 
d="M96 -8v508h57v-380l375 388v-508h-57v374z" />
    <glyph glyph-name="uni0439" unicode="&#x439;" horiz-adv-x="624" 
d="M96 -8v508h57v-380l375 388v-508h-57v374zM482 710q-2 -71 -44.5 -109t-114.5 -38t-115 38.5t-44 108.5h52q1 -55 30.5 -80t76.5 -25q46 0 75.5 25t31.5 80h52z" />
    <glyph glyph-name="uni043A" unicode="&#x43a;" horiz-adv-x="509" 
d="M96 500h57v-248l256 248h74l-260 -249l283 -251h-78l-275 246v-246h-57v500z" />
    <glyph glyph-name="uni043B" unicode="&#x43b;" horiz-adv-x="517" 
d="M70 0h-65l253 509l254 -509h-64l-190 388z" />
    <glyph glyph-name="uni043C" unicode="&#x43c;" horiz-adv-x="744" 
d="M591 409l-219 -417l-219 416v-408h-57v500h68l209 -395l206 395h69v-500h-57v409z" />
    <glyph glyph-name="uni043D" unicode="&#x43d;" horiz-adv-x="613" 
d="M153 229v-229h-57v500h57v-216h307v216h57v-500h-57v229h-307z" />
    <glyph glyph-name="uni043E" unicode="&#x43e;" horiz-adv-x="626" 
d="M313 45q45 0 82 16.5t63.5 44t40.5 65t14 79.5t-14 79.5t-40.5 65t-63.5 44t-82 16.5t-81.5 -16.5t-63 -44t-41 -65t-14.5 -79.5t14.5 -79.5t41 -65t63 -44t81.5 -16.5zM313 -8q-57 0 -104.5 20.5t-82 55.5t-53.5 82t-19 100t19 100t53.5 82t82 55.5t104.5 20.5
t104.5 -20.5t82 -55.5t53.5 -82t19 -100t-19 -100t-53.5 -82t-82 -55.5t-104.5 -20.5z" />
    <glyph glyph-name="uni043F" unicode="&#x43f;" horiz-adv-x="603" 
d="M153 445v-445h-57v500h411v-500h-57v445h-297z" />
    <glyph glyph-name="uni0440" unicode="&#x440;" horiz-adv-x="648" 
d="M96 500h57v-70q72 78 185 78q56 0 102.5 -20.5t80.5 -55.5t52.5 -82t18.5 -100t-18.5 -100t-52.5 -82t-80.5 -55.5t-102.5 -20.5q-114 0 -185 77v-253h-57v684zM338 455q-67 0 -114.5 -29.5t-70.5 -71.5v-209q23 -42 70.5 -71t114.5 -29q43 0 79 16.5t61.5 44t40 65
t14.5 79.5t-14.5 79.5t-40 65t-61.5 44t-79 16.5z" />
    <glyph glyph-name="uni0441" unicode="&#x441;" horiz-adv-x="540" 
d="M308 -8q-55 0 -101.5 20.5t-80.5 55.5t-53 82t-19 100t19 100t53 82t80.5 55.5t101.5 20.5q65 0 112 -22t79 -52l-36 -41q-28 26 -66 44t-89 18q-42 0 -78 -16.5t-62 -44t-40.5 -65t-14.5 -79.5t14.5 -79.5t40.5 -65t62 -44t78 -16.5q51 0 89 18t66 44l36 -41
q-32 -30 -79 -52t-112 -22z" />
    <glyph glyph-name="uni0442" unicode="&#x442;" horiz-adv-x="426" 
d="M182 0v445h-162v55h386v-55h-167v-445h-57z" />
    <glyph glyph-name="uni0443" unicode="&#x443;" horiz-adv-x="511" 
d="M224 55l-214 445h64l180 -389l181 389h64l-329 -684h-61z" />
    <glyph glyph-name="uni0444" unicode="&#x444;" horiz-adv-x="741" 
d="M428 508q57 0 104.5 -20.5t82 -55.5t53.5 -82t19 -100t-19 -100t-53.5 -82t-82 -55.5t-104.5 -20.5h-29v-176h-57v176h-29q-57 0 -104.5 20.5t-82 55.5t-53.5 82t-19 100t19 100t53.5 82t82 55.5t104.5 20.5h29v202h57v-202h29zM313 455q-47 0 -84 -16.5t-62.5 -44
t-39.5 -65t-14 -79.5t14 -79.5t40.5 -65t63.5 -44t82 -16.5h29v410h-29zM428 45q45 0 82 16.5t63.5 44t40.5 65t14 79.5t-14 79.5t-40.5 65t-63.5 44t-82 16.5h-29v-410h29z" />
    <glyph glyph-name="uni0445" unicode="&#x445;" horiz-adv-x="539" 
d="M236 255l-191 245h67l158 -201l158 201h67l-191 -245l201 -255h-67l-168 213l-168 -213h-67z" />
    <glyph glyph-name="uni0446" unicode="&#x446;" horiz-adv-x="618" 
d="M518 0h-422v500h57v-445h298v445h57v-445h65v-184h-55v129z" />
    <glyph glyph-name="uni0447" unicode="&#x447;" horiz-adv-x="553" 
d="M398 217q-37 -20 -78 -28.5t-80 -8.5q-88 0 -136.5 44.5t-48.5 124.5v151h59v-141q0 -34 10 -57.5t28 -38t42.5 -21t53.5 -6.5q35 0 74 8.5t76 30.5v225h59v-500h-59v217z" />
    <glyph glyph-name="uni0448" unicode="&#x448;" horiz-adv-x="817" 
d="M153 500v-445h227v445h57v-445h227v445h57v-500h-625v500h57z" />
    <glyph glyph-name="uni0449" unicode="&#x449;" horiz-adv-x="831" 
d="M731 0h-635v500h57v-445h227v445h57v-445h227v445h57v-445h65v-184h-55v129z" />
    <glyph glyph-name="uni044A" unicode="&#x44a;" horiz-adv-x="579" 
d="M352 295q51 0 87.5 -11t60 -30.5t34 -46.5t10.5 -60q0 -66 -44.5 -106.5t-147.5 -40.5h-180v445h-142v55h199v-205h123zM363 54q60 0 91 22.5t31 70.5t-31 71t-91 23h-134v-187h134z" />
    <glyph glyph-name="uni044B" unicode="&#x44b;" horiz-adv-x="683" 
d="M266 295q51 0 87.5 -11t60 -30.5t34 -46.5t10.5 -60q0 -66 -44.5 -106.5t-147.5 -40.5h-170v500h57v-205h113zM277 54q60 0 91 22.5t31 70.5t-31 71t-91 23h-124v-187h124zM551 500h57v-500h-57v500z" />
    <glyph glyph-name="uni044C" unicode="&#x44c;" horiz-adv-x="503" 
d="M276 295q51 0 87.5 -11t60 -30.5t34 -46.5t10.5 -60q0 -66 -44.5 -106.5t-147.5 -40.5h-180v500h57v-205h123zM287 54q60 0 92 22.5t32 70.5t-32 71t-92 23h-134v-187h134z" />
    <glyph glyph-name="uni044D" unicode="&#x44d;" horiz-adv-x="546" 
d="M45 434q32 30 79 52t112 22q55 0 101.5 -20.5t80.5 -55.5t53 -82t19 -100t-19 -100t-53 -82t-80.5 -55.5t-101.5 -20.5q-65 0 -112 22t-79 52l36 41q28 -26 66 -44t89 -18q40 0 74 14.5t59.5 39.5t41.5 58.5t19 71.5h-246v55h244q-5 36 -21.5 67t-42 54.5t-58 36.5
t-70.5 13q-51 0 -89 -18t-66 -44z" />
    <glyph glyph-name="uni044E" unicode="&#x44e;" horiz-adv-x="818" 
d="M248 284q6 47 27 88t55 71t78 47.5t97 17.5q57 0 104.5 -20.5t82 -55.5t53.5 -82t19 -100t-19 -100t-53.5 -82t-82 -55.5t-104.5 -20.5q-54 0 -99.5 18.5t-79.5 50.5t-54.5 75t-24.5 93h-94v-229h-57v500h57v-216h95zM705 250q0 42 -14 79.5t-40.5 65t-63.5 44t-82 16.5
t-81.5 -16.5t-63 -44t-41 -65t-14.5 -79.5t14.5 -79.5t41 -65t63 -44t81.5 -16.5t82 16.5t63.5 44t40.5 65t14 79.5z" />
    <glyph glyph-name="uni044F" unicode="&#x44f;" horiz-adv-x="523" 
d="M36 0l165 210q-11 3 -21 6q-36 11 -59.5 31t-34.5 47t-11 59q0 66 44.5 106.5t147.5 40.5h160v-500h-57v205h-100l-163 -205h-71zM256 446q-60 0 -92 -22.5t-32 -70.5t32 -71t92 -23h114v187h-114z" />
    <glyph glyph-name="uni0452" unicode="&#x452;" horiz-adv-x="573" 
d="M387 583v-55h-213v-201q54 86 165 86q47 0 83.5 -15.5t62 -44t38.5 -67.5t13 -87v-34q0 -75 -18.5 -139t-50.5 -110.5t-75 -73t-92 -26.5h-11v55h10q34 0 66.5 19.5t57 56t39.5 88t15 116.5v36q0 78 -40 125t-109 47q-60 0 -98.5 -32.5t-55.5 -83.5v-243h-57v528h-107v55
h107v127h57v-127h213z" />
    <glyph glyph-name="uni0453" unicode="&#x453;" horiz-adv-x="401" 
d="M96 0v500h281v-55h-224v-445h-57zM300 710h81l-118 -165h-54z" />
    <glyph glyph-name="uni0454" unicode="&#x454;" horiz-adv-x="547" 
d="M463 393q-28 26 -66 44t-89 18q-38 0 -70.5 -13t-58 -36.5t-42 -54.5t-21.5 -67h244v-55h-246q3 -38 19 -71.5t41.5 -58.5t59.5 -39.5t74 -14.5q51 0 89 18t66 44l36 -41q-32 -30 -79 -52t-112 -22q-55 0 -101.5 20.5t-80.5 55.5t-53 82t-19 100t19 100t53 82t80.5 55.5
t101.5 20.5q65 0 112 -22t79 -52z" />
    <glyph glyph-name="uni0455" unicode="&#x455;" horiz-adv-x="417" 
d="M206 -8q-54 0 -99.5 25t-68.5 73l49 30q20 -36 49 -55.5t73 -19.5q23 0 43.5 5.5t35.5 16t24 26t9 34.5q0 37 -22.5 59t-76.5 41l-46 16q-34 12 -56 28t-35 35t-18.5 39t-5.5 40q0 25 11 47.5t31 39.5t48 26.5t61 9.5q48 0 85.5 -23.5t56.5 -68.5l-49 -21
q-11 27 -35 43.5t-60 16.5q-37 0 -63.5 -18.5t-26.5 -52.5q0 -29 16 -52.5t67 -41.5l49 -17q63 -23 95 -58t32 -87q0 -27 -11.5 -51.5t-33.5 -43t-54.5 -30t-73.5 -11.5z" />
    <glyph glyph-name="uni0456" unicode="&#x456;" horiz-adv-x="240" 
d="M92 627q-10 7 -16 17.5t-6 23.5q0 20 15 35t35 15t35 -15t15 -35q0 -13 -6 -23.5t-16 -17.5h-56zM91 500h57v-500h-57v500z" />
    <glyph glyph-name="uni0457" unicode="&#x457;" horiz-adv-x="199" 
d="M158 632q0 22 15 37t37 15t37 -15t15 -37t-15 -37t-37 -15t-37 15t-15 37zM-22 632q0 22 15 37t37 15t37 -15t15 -37t-15 -37t-37 -15t-37 15t-15 37zM91 500h57v-500h-57v500z" />
    <glyph glyph-name="uni0458" unicode="&#x458;" horiz-adv-x="237" 
d="M92 627q-10 7 -16 17.5t-6 23.5q0 20 15 35t35 15t35 -15t15 -35q0 -13 -6 -23.5t-16 -17.5h-56zM-15 -129h34q42 0 57 19.5t15 61.5v548h57v-541q0 -72 -28.5 -107.5t-101.5 -35.5h-33v55z" />
    <glyph glyph-name="uni0459" unicode="&#x459;" horiz-adv-x="744" 
d="M517 295q51 0 87.5 -11t60 -30.5t34 -46.5t10.5 -60q0 -66 -44.5 -106.5t-147.5 -40.5h-69l-190 389l-189 -389h-64l253 509l107 -214h152zM528 54q60 0 91 22.5t31 70.5t-31 71t-91 23h-136l93 -187h43z" />
    <glyph glyph-name="uni045A" unicode="&#x45a;" horiz-adv-x="807" 
d="M580 295q51 0 87.5 -11t60 -30.5t34 -46.5t10.5 -60q0 -66 -44.5 -106.5t-147.5 -40.5h-150v240h-277v-240h-57v500h57v-205h277v205h57v-205h93zM591 54q60 0 92 22.5t32 70.5t-32 71t-92 23h-104v-187h104z" />
    <glyph glyph-name="uni045B" unicode="&#x45b;" horiz-adv-x="600" 
d="M174 333q32 43 74.5 61.5t92.5 18.5q39 0 72 -13t56.5 -38t36.5 -60.5t13 -80.5v-221h-57v213q0 72 -36.5 109.5t-99.5 37.5q-64 0 -101 -34t-51 -88v-238h-57v528h-107v55h107v127h57v-127h215v-55h-215v-195z" />
    <glyph glyph-name="uni045C" unicode="&#x45c;" horiz-adv-x="509" 
d="M96 500h57v-248l256 248h74l-260 -249l283 -251h-78l-275 246v-246h-57v500zM318 710h81l-118 -165h-54z" />
    <glyph glyph-name="uni045E" unicode="&#x45e;" horiz-adv-x="511" 
d="M418 710q-2 -71 -44.5 -109t-114.5 -38t-115 38.5t-44 108.5h52q1 -55 30.5 -80t76.5 -25q46 0 75.5 25t31.5 80h52zM224 55l-214 445h64l180 -389l181 389h64l-329 -684h-61z" />
    <glyph glyph-name="uni045F" unicode="&#x45f;" horiz-adv-x="604" 
d="M273 -129v129h-177v500h57v-445h298v445h57v-500h-180v-129h-55z" />
    <glyph glyph-name="uni0491" unicode="&#x491;" horiz-adv-x="397" 
d="M96 0v500h226v129h55v-184h-224v-445h-57z" />
    <glyph glyph-name="uni0463" unicode="&#x463;" horiz-adv-x="547" 
d="M174 445v-114h123q58 0 98.5 -12t66.5 -34t38 -52.5t12 -67.5t-12 -67.5t-38 -52t-66.5 -33.5t-98.5 -12h-180v445h-107v55h107v210h57v-210h214v-55h-214zM317 54q70 0 103 27t33 85q0 57 -33 84t-103 27h-143v-223h143z" />
    <glyph glyph-name="uni0473" unicode="&#x473;" horiz-adv-x="628" 
d="M574 250q0 -53 -19 -100t-53.5 -82t-82 -55.5t-104.5 -20.5t-104.5 20.5t-82 55.5t-53.5 82t-19 100t19 100t53.5 82t82 55.5t104.5 20.5t104.5 -20.5t82 -55.5t53.5 -82t19 -100zM514 276q-5 37 -21 70t-41.5 57t-60 38t-76.5 14q-41 0 -75.5 -14t-60.5 -38t-42.5 -57
t-20.5 -70h398zM116 225q4 -38 20 -71t42 -57t61 -38t76 -14q42 0 77 14t60.5 38t41.5 57t20 71h-398z" />
    <glyph glyph-name="uni0475" unicode="&#x475;" horiz-adv-x="556" 
d="M392 404q21 47 47 71.5t76 24.5v-57q-26 0 -40.5 -13t-28.5 -43l-182 -395l-254 508h64l190 -388z" />
    <glyph glyph-name="uni0493" unicode="&#x493;" horiz-adv-x="403" 
d="M303 244h-144v-244h-57v244h-77v51h77v205h281v-55h-224v-150h144v-51z" />
    <glyph glyph-name="uni0497" unicode="&#x497;" horiz-adv-x="781" 
d="M711 -129v129h-23l-275 246v-246h-57v246l-275 -246h-78l283 251l-260 249h74l256 -248v248h57v-248l256 248h74l-260 -249l221 -196h62v-184h-55z" />
    <glyph glyph-name="uni049B" unicode="&#x49b;" horiz-adv-x="521" 
d="M453 -129v129h-25l-275 246v-246h-57v500h57v-248l256 248h74l-260 -249l221 -196h62v-184h-53z" />
    <glyph glyph-name="uni04A3" unicode="&#x4a3;" horiz-adv-x="610" 
d="M519 0h-59v229h-307v-229h-57v500h57v-216h307v216h57v-445h55v-184h-53v129z" />
    <glyph glyph-name="uni04AF" unicode="&#x4af;" horiz-adv-x="528" 
d="M293 -184h-59v189l-228 495h67l190 -433l192 433h67l-229 -496v-188z" />
    <glyph glyph-name="uni04B1" unicode="&#x4b1;" horiz-adv-x="528" 
d="M293 -183h-59v128h-109v55h109v6l-228 495h67l190 -433l192 433h67l-229 -496v-5h109v-55h-109v-128z" />
    <glyph glyph-name="uni04B3" unicode="&#x4b3;" horiz-adv-x="535" 
d="M467 0h-31l-167 213l-167 -213h-67l201 255l-191 245h67l159 -201l158 201h65l-191 -244l159 -201h58v-184h-53v129z" />
    <glyph glyph-name="uni04B7" unicode="&#x4b7;" horiz-adv-x="548" 
d="M398 0v217q-37 -20 -78 -28.5t-80 -8.5q-88 0 -136.5 44.5t-48.5 124.5v151h59v-141q0 -34 10 -57.5t28 -38t42.5 -21t53.5 -6.5q35 0 74 8.5t76 30.5v225h59v-446h63v-182h-52v128h-70z" />
    <glyph glyph-name="uni04BB" unicode="&#x4bb;" horiz-adv-x="583" 
d="M96 710h57v-282q30 45 76 62.5t96 17.5q39 0 72.5 -13t58 -38t38.5 -60.5t14 -80.5v-316h-57v308q0 72 -39 109.5t-102 37.5q-65 0 -104 -34.5t-53 -88.5v-332h-57v710z" />
    <glyph glyph-name="uni04CF" unicode="&#x4cf;" horiz-adv-x="249" 
d="M96 710h57v-710h-57v710z" />
    <glyph glyph-name="uni04D9" unicode="&#x4d9;" horiz-adv-x="584" 
d="M282 508q53 0 98.5 -20.5t78.5 -55.5t52 -82t19 -100q0 -57 -18 -104.5t-49.5 -81.5t-75.5 -53t-95 -19q-50 0 -93.5 15.5t-76.5 48t-52.5 81t-20.5 114.5h422q0 42 -14.5 79t-40 65t-60 44t-74.5 16q-56 0 -95 -17.5t-67 -43.5l-36 40q32 30 80.5 52t117.5 22zM294 45
q66 0 112.5 38.5t60.5 116.5h-355q4 -39 20 -68t41 -48.5t56 -29t65 -9.5z" />
    <glyph glyph-name="uni04E3" unicode="&#x4e3;" horiz-adv-x="624" 
d="M96 -8v508h57v-380l375 388v-508h-57v374zM173 680h278v-51h-278v51z" />
    <glyph glyph-name="uni04E9" unicode="&#x4e9;" horiz-adv-x="626" 
d="M573 250q0 -53 -19 -100t-53.5 -82t-82 -55.5t-104.5 -20.5t-104.5 20.5t-82 55.5t-53.5 82t-19 100t19 100t53.5 82t82 55.5t104.5 20.5t104.5 -20.5t82 -55.5t53.5 -82t19 -100zM513 276q-5 37 -21 70t-41.5 57t-60 38t-76.5 14q-41 0 -75.5 -14t-60.5 -38t-42.5 -57
t-20.5 -70h398zM115 225q4 -38 20 -71t42 -57t61 -38t76 -14q42 0 77 14t60.5 38t41.5 57t20 71h-398z" />
    <glyph glyph-name="uni04EF" unicode="&#x4ef;" horiz-adv-x="511" 
d="M224 55l-214 445h64l180 -389l181 389h64l-329 -684h-61zM120 680h278v-51h-278v51z" />
    <glyph glyph-name="uni0432.locl" horiz-adv-x="561" 
d="M278 -4q-93 0 -140 53t-47 141v334q0 88 47 141t140 53q48 0 83 -15.5t58 -40.5t34.5 -56.5t11.5 -64.5q0 -49 -25.5 -90t-60.5 -58q25 -8 48.5 -25t41 -41t28 -54.5t10.5 -65.5q0 -48 -14.5 -87t-41 -66.5t-64.5 -42.5t-85 -15h-24zM307 49q39 0 65.5 15t43.5 38
t24.5 51t7.5 54q0 23 -7 50t-24.5 49.5t-48 37.5t-76.5 15h-144v-183q0 -63 36.5 -95t93.5 -32h29zM275 412q31 0 55.5 10.5t42 27.5t26.5 40t9 48q0 63 -36.5 95t-93.5 32t-93.5 -32t-36.5 -95v-126h127z" />
    <glyph glyph-name="uni0433.locl" horiz-adv-x="418" 
d="M212 -8q-41 0 -73.5 11.5t-54.5 30t-33.5 43t-11.5 51.5q0 52 32 87t95 58l49 17q51 18 67 41.5t16 52.5q0 34 -26.5 52.5t-63.5 18.5q-36 0 -60 -16.5t-35 -43.5l-49 21q19 45 56.5 68.5t85.5 23.5q33 0 61 -9.5t48 -26.5t31 -39.5t11 -47.5q0 -20 -5.5 -40t-18.5 -39
t-35 -35t-56 -28l-46 -16q-54 -19 -76.5 -41t-22.5 -59q0 -19 9 -34.5t24 -26t35.5 -16t43.5 -5.5q44 0 73 19.5t49 55.5l49 -30q-23 -48 -68.5 -73t-99.5 -25z" />
    <glyph glyph-name="uni0434.locl" horiz-adv-x="626" 
d="M295 -194q-57 0 -113 16t-97 44l30 48q16 -12 37.5 -22t46 -17.5t51 -11.5t52.5 -4q36 0 70.5 8t61 26t43 46t16.5 68q0 17 -3.5 39.5t-11.5 38.5q-70 -76 -181 -76q-56 0 -101 19.5t-77.5 53.5t-50 79.5t-17.5 96.5q0 52 17.5 97.5t50 79.5t77.5 53.5t101 19.5
t100 -18.5t80 -56.5v67h57v-397q9 -25 13.5 -50t4.5 -47q0 -54 -22.5 -92t-58.5 -62t-82 -35t-94 -11zM297 62q66 0 111.5 28t68.5 69v199q-23 42 -68.5 69.5t-111.5 27.5q-43 0 -77.5 -15.5t-59 -42t-37.5 -62.5t-13 -77t13 -76.5t37.5 -62t59 -42t77.5 -15.5z" />
    <glyph glyph-name="uni0437.locl" horiz-adv-x="463" 
d="M60 -42q8 -13 21 -30t32 -32.5t45 -26t61 -10.5q36 0 63.5 11.5t45.5 31.5t27 46t9 55q0 27 -8.5 53t-27 46.5t-47 33.5t-68.5 13h-84v53h82q27 0 51 10.5t41.5 28.5t28 42.5t10.5 51.5q0 20 -7 41.5t-21.5 39t-37 28.5t-53.5 11q-28 0 -50.5 -8t-40 -21t-31 -28
t-22.5 -28l-50 33q13 19 31.5 38t43 34t54 24t65.5 9q45 0 78 -14.5t55.5 -38.5t33.5 -55t11 -65q0 -30 -7.5 -54.5t-19.5 -43.5t-28 -33.5t-33 -25.5q27 -11 47.5 -29t34.5 -41.5t21 -50.5t7 -54q0 -43 -13 -79t-38.5 -62.5t-64 -41t-88.5 -14.5q-43 0 -75 9t-57 25
t-43.5 37.5t-33.5 45.5z" />
    <glyph glyph-name="uni0438.locl" horiz-adv-x="567" 
d="M418 70q-31 -44 -77 -61t-94 -17q-39 0 -73 13t-58.5 38t-38.5 60.5t-14 80.5v316h57v-308q0 -72 39.5 -109.5t102.5 -37.5t102.5 34t53.5 88v333h57v-500h-57v70z" />
    <glyph glyph-name="uni0439.aalt" horiz-adv-x="567" 
d="M418 70q-31 -44 -77 -61t-94 -17q-39 0 -73 13t-58.5 38t-38.5 60.5t-14 80.5v316h57v-308q0 -72 39.5 -109.5t102.5 -37.5t102.5 34t53.5 88v333h57v-500h-57v70zM429 710q-2 -71 -44.5 -109t-114.5 -38t-115 38.5t-44 108.5h52q1 -55 30.5 -80t76.5 -25q46 0 75.5 25
t31.5 80h52z" />
    <glyph glyph-name="uni043F.locl" horiz-adv-x="585" 
d="M92 500h57v-72q30 45 76 62.5t96 17.5q39 0 72.5 -13t58 -38t38.5 -60.5t14 -80.5v-316h-57v308q0 72 -39 109.5t-102 37.5q-65 0 -104 -34.5t-53 -88.5v-332h-57v500z" />
    <glyph glyph-name="uni0442.locl" horiz-adv-x="881" 
d="M743 308q0 71 -36 109t-93 38t-91.5 -33.5t-48.5 -87.5q1 -5 1 -9v-9v-316h-57v308q0 71 -36.5 109t-93.5 38q-53 0 -88.5 -30t-50.5 -78v-347h-57v500h57v-65q30 41 71.5 57t82.5 16q48 0 87.5 -23.5t61.5 -68.5q16 27 37 44.5t43.5 28t45.5 15t44 4.5q39 0 72 -13
t56.5 -38t36.5 -60.5t13 -80.5v-316h-57v308z" />
    <glyph glyph-name="uni0446.locl" horiz-adv-x="585" 
d="M475 115q0 -28 4.5 -44t21.5 -16h39v-184h-55v129q-29 5 -45 25t-16 46q-30 -41 -77.5 -60t-99.5 -19q-39 0 -73 13t-58.5 38t-38.5 60.5t-14 80.5v316h57v-308q0 -72 39.5 -109.5t102.5 -37.5t102.5 34t53.5 88v333h57v-385z" />
    <glyph glyph-name="uni0448.locl" horiz-adv-x="881" 
d="M138 192q0 -71 36 -109t93 -38t91.5 33.5t48.5 87.5q-1 5 -1 9v325h57v-308q0 -71 36.5 -109t93.5 -38q53 0 88.5 30t50.5 78v347h57v-500h-57v65q-30 -41 -71.5 -57t-82.5 -16q-48 0 -87.5 23.5t-61.5 68.5q-17 -27 -37.5 -44.5t-43 -28t-45.5 -15t-44 -4.5
q-39 0 -72 13t-56.5 38t-36.5 60.5t-13 80.5v316h57v-308z" />
    <glyph glyph-name="uni0449.locl" horiz-adv-x="899" 
d="M739 58q-30 -39 -67.5 -52.5t-83.5 -13.5q-48 0 -90.5 20t-68.5 72q-17 -27 -37.5 -44.5t-43 -28t-45.5 -15t-44 -4.5q-39 0 -72 13t-56.5 38t-36.5 60.5t-13 80.5v316h57v-308q0 -71 36 -109t93 -38t91.5 33.5t48.5 87.5q-1 5 -1 9v325h57v-308q0 -71 36.5 -109
t93.5 -38q53 0 88.5 30t50.5 78v347h57v-385q0 -28 4.5 -44t21.5 -16h39v-184h-55v129q-26 4 -41 20.5t-19 37.5z" />
    <glyph glyph-name="uni044E.locl" horiz-adv-x="818" 
d="M248 284q6 47 27 88t55 71t78 47.5t97 17.5q57 0 104.5 -20.5t82 -55.5t53.5 -82t19 -100t-19 -100t-53.5 -82t-82 -55.5t-104.5 -20.5q-54 0 -99.5 18.5t-79.5 50.5t-54.5 75t-24.5 93h-94v-229h-57v710h57v-426h95zM705 250q0 42 -14 79.5t-40.5 65t-63.5 44t-82 16.5
t-81.5 -16.5t-63 -44t-41 -65t-14.5 -79.5t14.5 -79.5t41 -65t63 -44t81.5 -16.5t82 16.5t63.5 44t40.5 65t14 79.5z" />
    <glyph glyph-name="uni044C.locl" horiz-adv-x="498" 
d="M282 46q124 0 124 97q0 98 -124 98h-134v-102q0 -48 32 -70.5t92 -22.5h10zM277 -8q-50 0 -85 10.5t-57.5 30t-33 46.5t-10.5 60v361h57v-205h123q52 0 88.5 -11t59.5 -31t33.5 -48t10.5 -62q0 -68 -42.5 -109.5t-143.5 -41.5z" />
    <glyph glyph-name="uni044A.aalt" horiz-adv-x="579" 
d="M363 46q124 0 124 97q0 98 -124 98h-134v-102q0 -48 32 -70.5t92 -22.5h10zM30 445v55h199v-205h123q52 0 88.5 -11t59.5 -31t33.5 -48t10.5 -62q0 -68 -42.5 -109.5t-143.5 -41.5q-50 0 -85 10.5t-57.5 30t-33 46.5t-10.5 60v306h-142z" />
    <glyph glyph-name="uni0431.locl" horiz-adv-x="616" 
d="M244 655q-43 0 -64.5 -23t-21.5 -56t23.5 -56t62.5 -23h72q57 0 102.5 -19.5t77.5 -53t49 -78.5t17 -96q0 -54 -18.5 -101.5t-52 -82t-80 -54.5t-103.5 -20t-103.5 20t-80 54.5t-52 82t-18.5 101.5q0 85 44 149q27 38 66 62l-14 10q-15 12 -26.5 28t-18.5 37.5t-7 49.5
q0 25 9 47.5t28 39.5t47.5 27t67.5 10h263l-13 -55h-256zM305 442q-42 0 -77 -14t-60.5 -39.5t-39.5 -60.5t-14 -78q0 -44 14 -81t39.5 -64t61 -42.5t79.5 -15.5t79.5 15.5t61 42.5t39.5 64t14 81q0 43 -14 78t-39.5 60.5t-60.5 39.5t-77 14h-6z" />
    <glyph glyph-name="uniF6D4" unicode="&#xf6d4;" horiz-adv-x="600" 
d="M448 710q-2 -71 -44.5 -109t-114.5 -38t-115 38.5t-44 108.5h52q1 -55 30.5 -80t76.5 -25q46 0 75.5 25t31.5 80h52z" />
    <glyph glyph-name="uniF6D1" unicode="&#xf6d1;" horiz-adv-x="600" 
d="M456 914q-2 -71 -44.5 -109t-114.5 -38t-115 38.5t-44 108.5h52q1 -55 30.5 -80t76.5 -25q46 0 75.5 25t31.5 80h52z" />
    <glyph glyph-name="uni20BD" unicode="&#x20bd;" horiz-adv-x="519" 
d="M258 353q91 0 136 38.5t45 111.5t-45 112t-136 39h-94v-301h94zM164 176v-176h-62v176h-81v57h81v63h-81v57h81v357h156q116 0 181 -53.5t65 -153.5q0 -97 -65 -152t-181 -55h-94v-63h184v-57h-184z" />
    <glyph glyph-name="uni20B4" unicode="&#x20b4;" horiz-adv-x="568" 
d="M303 -8q-53 0 -95 14.5t-71 40t-44 60t-15 75.5q0 52 32 91h-65v51h478v-51h-340q-11 -11 -20 -22q-22 -30 -22 -78q0 -56 44.5 -89t117.5 -33q29 0 54.5 7t47.5 18.5t40 26.5t31 31l47 -43q-15 -18 -37.5 -35.5t-51 -32t-61.5 -23t-70 -8.5zM45 424h295q43 22 63 47
q25 31 25 76q0 26 -11 47t-30 35.5t-43.5 22t-52.5 7.5q-55 0 -91 -20.5t-64 -53.5l-46 43q33 39 84 64.5t114 25.5q38 0 74.5 -12t65 -33.5t45.5 -52.5t17 -69q0 -44 -18 -83q-12 -25 -37 -44h88v-51h-478v51z" />
    <glyph glyph-name="uni20B8" unicode="&#x20b8;" horiz-adv-x="505" 
d="M221 559h-201v51h465v-51h-202v-559h-62v559zM20 710h465v-51h-465v51z" />
    <glyph glyph-name="uni0394" unicode="&#x394;" horiz-adv-x="771" 
d="M664 55l-279 538l-282 -538h561zM385 717l376 -717h-751z" />
    <glyph glyph-name="uni0394" unicode="&#x2206;" horiz-adv-x="771" 
d="M664 55l-279 538l-282 -538h561zM385 717l376 -717h-751z" />
    <glyph glyph-name="uni03A9" unicode="&#x3a9;" horiz-adv-x="848" 
d="M62 55h159q-36 23 -65.5 55t-50.5 70.5t-32.5 82.5t-11.5 92q0 77 28 143.5t77 115t115 76.5t143 28q76 0 142.5 -28t115.5 -76.5t77 -115t28 -143.5q0 -96 -43.5 -175t-115.5 -125h159v-55h-252v64q42 16 77.5 45t61 67t40 83.5t14.5 95.5q0 64 -23 120.5t-63.5 98
t-96 65.5t-121.5 24t-121.5 -24t-96 -65.5t-63 -98t-22.5 -120.5q0 -50 14 -95.5t39.5 -83.5t61 -67t78.5 -45v-64h-252v55z" />
    <glyph glyph-name="uni03A9" unicode="&#x2126;" horiz-adv-x="848" 
d="M62 55h159q-36 23 -65.5 55t-50.5 70.5t-32.5 82.5t-11.5 92q0 77 28 143.5t77 115t115 76.5t143 28q76 0 142.5 -28t115.5 -76.5t77 -115t28 -143.5q0 -96 -43.5 -175t-115.5 -125h159v-55h-252v64q42 16 77.5 45t61 67t40 83.5t14.5 95.5q0 64 -23 120.5t-63.5 98
t-96 65.5t-121.5 24t-121.5 -24t-96 -65.5t-63 -98t-22.5 -120.5q0 -50 14 -95.5t39.5 -83.5t61 -67t78.5 -45v-64h-252v55z" />
    <glyph glyph-name="pi" unicode="&#x3c0;" horiz-adv-x="624" 
d="M449 445h-274v-445h-57v445h-77v55h542v-55h-77v-445h-57v445z" />
    <glyph glyph-name="ellipsis" unicode="&#x2026;" horiz-adv-x="606" 
d="M102 -8q-25 0 -42 18t-17 41q0 25 17 43t42 18t42 -18t17 -43q0 -23 -17 -41t-42 -18zM303 -8q-25 0 -42 18t-17 41q0 25 17 43t42 18t42 -18t17 -43q0 -23 -17 -41t-42 -18zM505 -8q-25 0 -42 18t-17 41q0 25 17 43t42 18t42 -18t17 -43q0 -23 -17 -41t-42 -18z" />
    <glyph glyph-name="endash" unicode="&#x2013;" horiz-adv-x="514" 
d="M51 298h412v-55h-412v55z" />
    <glyph glyph-name="emdash" unicode="&#x2014;" horiz-adv-x="810" 
d="M51 298h708v-55h-708v55z" />
    <glyph glyph-name="guilsinglleft" unicode="&#x2039;" horiz-adv-x="276" 
d="M31 250l147 213l46 -30l-126 -183l126 -183l-46 -30z" />
    <glyph glyph-name="guilsinglright" unicode="&#x203a;" horiz-adv-x="276" 
d="M96 37l-46 30l126 183l-126 183l46 30l147 -213z" />
    <glyph glyph-name="quoteleft" unicode="&#x2018;" horiz-adv-x="252" 
d="M131 572h42v-103h-96v104l54 137h44z" />
    <glyph glyph-name="quoteright" unicode="&#x2019;" horiz-adv-x="252" 
d="M121 607h-42v103h96v-104l-54 -137h-44z" />
    <glyph glyph-name="quotedblleft" unicode="&#x201c;" horiz-adv-x="436" 
d="M131 572h42v-103h-96v104l54 137h44zM315 572h42v-103h-96v104l54 137h44z" />
    <glyph glyph-name="quotedblright" unicode="&#x201d;" horiz-adv-x="436" 
d="M121 607h-42v103h96v-104l-54 -137h-44zM305 607h-42v103h96v-104l-54 -137h-44z" />
    <glyph glyph-name="quotesinglbase" unicode="&#x201a;" horiz-adv-x="252" 
d="M121 0h-42v103h96v-104l-54 -137h-44z" />
    <glyph glyph-name="quotedblbase" unicode="&#x201e;" horiz-adv-x="436" 
d="M121 0h-42v103h96v-104l-54 -137h-44zM305 0h-42v103h96v-104l-54 -137h-44z" />
    <glyph glyph-name="bullet" unicode="&#x2022;" horiz-adv-x="418" 
d="M209 166q-28 0 -53 10.5t-43.5 29t-29 43.5t-10.5 53t10.5 53t29 43.5t43.5 29t53 10.5t53 -10.5t43.5 -29t29 -43.5t10.5 -53t-10.5 -53t-29 -43.5t-43.5 -29t-53 -10.5z" />
    <glyph glyph-name="dagger" unicode="&#x2020;" horiz-adv-x="590" 
d="M266 445h-191v55h191v210h58v-210h191v-55h-191v-543h-58v543z" />
    <glyph glyph-name="daggerdbl" unicode="&#x2021;" horiz-adv-x="590" 
d="M266 112h-191v55h191v278h-191v55h191v210h58v-210h191v-55h-191v-278h191v-55h-191v-210h-58v210z" />
    <glyph glyph-name="perthousand" unicode="&#x2030;" horiz-adv-x="812" 
d="M235 45q40 0 64 25.5t24 63.5q0 37 -24 63t-64 26q-38 0 -61.5 -26t-23.5 -63q0 -38 23.5 -63.5t61.5 -25.5zM235 -8q-30 0 -56.5 11t-46 30t-31 45t-11.5 56t11.5 56t31 45t46 29.5t56.5 10.5q31 0 57.5 -10.5t46.5 -29.5t31.5 -45t11.5 -56t-11.5 -56t-31.5 -45
t-46.5 -30t-57.5 -11zM235 487q40 0 64 26t24 63q0 38 -24 63.5t-64 25.5q-38 0 -61.5 -25.5t-23.5 -63.5q0 -37 23.5 -63t61.5 -26zM235 435q-30 0 -56.5 11t-46 29.5t-31 44.5t-11.5 56t11.5 56t31 45t46 30t56.5 11q31 0 57.5 -11t46.5 -30t31.5 -45t11.5 -56t-11.5 -56
t-31.5 -44.5t-46.5 -29.5t-57.5 -11zM101 380h620v-55h-620v55zM575 45q40 0 64 25.5t24 63.5q0 37 -24 63t-64 26q-38 0 -61.5 -26t-23.5 -63q0 -38 23.5 -63.5t61.5 -25.5zM575 -8q-30 0 -56.5 11t-46 30t-31 45t-11.5 56t11.5 56t31 45t46 29.5t56.5 10.5
q31 0 57.5 -10.5t46.5 -29.5t31.5 -45t11.5 -56t-11.5 -56t-31.5 -45t-46.5 -30t-57.5 -11z" />
    <glyph glyph-name="uni2117" unicode="&#x2117;" horiz-adv-x="808" 
d="M295 565h148q32 0 57 -10.5t42 -28t26 -41t9 -48.5q0 -26 -9 -49t-26 -41t-42 -28.5t-57 -10.5h-93v-161h-55v418zM440 361q21 0 35.5 6.5t24.5 17t14.5 24t4.5 26.5t-4.5 26.5t-14.5 24t-24.5 17t-35.5 6.5h-90v-148h90zM403 49q63 0 119 24t98 66t66 97.5t24 118.5
t-24 119t-66 98t-98 66t-119 24t-118.5 -24t-97.5 -66t-66 -98t-24 -119t24 -118.5t66 -97.5t97.5 -66t118.5 -24zM404 -8q-75 0 -141 28.5t-115.5 78t-78 115.5t-28.5 141t28.5 141t78 115.5t115.5 78t141 28.5t141 -28.5t115.5 -78t78 -115.5t28.5 -141t-28.5 -141
t-78 -115.5t-115.5 -78t-141 -28.5z" />
    <glyph glyph-name="trademark" unicode="&#x2122;" horiz-adv-x="896" 
d="M409 730l197 -204l195 204v-419h-53v296l-142 -148l-144 148v-296h-53v419zM178 660h-113v50h279v-50h-114v-349h-52v349z" />
    <glyph glyph-name="lozenge" unicode="&#x25ca;" horiz-adv-x="699" 
d="M554 355l-205 270l-204 -270l204 -271zM75 355l274 365l275 -365l-275 -364z" />
    <glyph glyph-name="uni2113" unicode="&#x2113;" horiz-adv-x="457" 
d="M258 -8q-24 0 -46.5 5t-40 21t-27.5 46.5t-10 81.5v70l-66 -54l-32 45l98 77v233q0 56 8.5 94.5t24 62t38 34t49.5 10.5q60 0 90 -44.5t30 -129.5q0 -80 -44.5 -144t-126.5 -127l-11 -9v-110q0 -63 17 -85.5t49 -22.5q27 0 48.5 12.5t36.5 27.5l28 -42
q-20 -19 -47.5 -35.5t-65.5 -16.5zM192 329l12 10q57 46 87.5 99t30.5 115q0 22 -4 42.5t-12.5 36.5t-21 26t-30.5 10q-36 0 -48.5 -37t-13.5 -100v-202z" />
    <glyph glyph-name="uni2116" unicode="&#x2116;" horiz-adv-x="1156" 
d="M775 342h291v-53h-291v53zM921 449q24 0 43.5 9t34 24t22 35t7.5 43t-7.5 43t-22 35t-34 24t-43.5 9t-43.5 -9t-34 -24t-22 -35t-7.5 -43t7.5 -43t22 -35t34 -24t43.5 -9zM921 405q-34 0 -62.5 12t-49.5 33t-32.5 49.5t-11.5 60.5t11.5 60.5t32.5 49.5t49.5 33t62.5 12
t62.5 -12t49 -33t32 -49.5t11.5 -60.5t-11.5 -60.5t-32 -49.5t-49 -33t-62.5 -12zM164 565v-565h-62v718l529 -573v565h62v-718z" />
    <glyph glyph-name="glyph511" horiz-adv-x="577" 
d="M289 -8q-53 0 -100 20.5t-82 55.5t-55.5 82t-20.5 100t20.5 100t55.5 82t82 55.5t100 20.5l-60 -151h88l-52 -137l188 194h-117l33 81q39 -13 71.5 -36.5t56 -56t37 -71t13.5 -81.5q0 -53 -20.5 -100t-55.5 -82t-82 -55.5t-100 -20.5z" />
    <glyph glyph-name="estimated" unicode="&#x212e;" horiz-adv-x="596" 
d="M305 -8q-58 0 -105 20t-80 55.5t-51 83t-18 101.5q0 57 19.5 104t53 81t79 52.5t98.5 18.5q58 0 103.5 -20t76.5 -54.5t47.5 -80.5t16.5 -98h-382v-194q21 -22 62 -36.5t88 -14.5q65 0 118.5 34.5t76.5 98.5h24q-11 -32 -31 -59.5t-48.5 -48t-65.5 -32t-82 -11.5z
M163 273h270v167q-23 23 -55.5 36.5t-77.5 13.5q-43 0 -78.5 -15t-58.5 -35v-167z" />
    <glyph glyph-name="minus" unicode="&#x2212;" horiz-adv-x="664" 
d="M112 298h440v-55h-440v55z" />
    <glyph glyph-name="lessequal" unicode="&#x2264;" horiz-adv-x="683" 
d="M86 308l477 208v-61l-330 -147l330 -147v-61zM86 55h477v-55h-477v55z" />
    <glyph glyph-name="greaterequal" unicode="&#x2265;" horiz-adv-x="683" 
d="M120 161l330 147l-330 147v61l477 -208l-477 -208v61zM120 55h477v-55h-477v55z" />
    <glyph glyph-name="notequal" unicode="&#x2260;" horiz-adv-x="673" 
d="M112 408h293l88 122l43 -30l-67 -92h92v-54h-131l-120 -167h251v-54h-290l-92 -128l-42 31l70 97h-95v54h134l120 167h-254v54z" />
    <glyph glyph-name="approxequal" unicode="&#x2248;" horiz-adv-x="643" 
d="M112 184l108 73l198 -76l113 74v-60l-109 -76l-198 76l-112 -76v65zM112 351l108 73l198 -76l113 74v-60l-109 -76l-198 76l-112 -76v65z" />
    <glyph glyph-name="partialdiff" unicode="&#x2202;" horiz-adv-x="622" 
d="M310 -8q-57 0 -104.5 20.5t-82 55.5t-53.5 82t-19 100t19 100t53.5 82t82 55.5t104.5 20.5t106.5 -20.5t82.5 -63.5q-12 52 -37.5 95.5t-62 75.5t-85 50t-106.5 18h-8v55h5q69 0 123 -19t95 -51t69 -74.5t45.5 -90t25.5 -97t8 -95.5q0 -70 -19.5 -125.5t-54 -94
t-82.5 -59t-105 -20.5zM310 45q45 0 82 16.5t63.5 44t40.5 65t14 79.5t-14 79.5t-40.5 65t-63.5 44t-82 16.5t-81.5 -16.5t-63 -44t-41 -65t-14.5 -79.5t14.5 -79.5t41 -65t63 -44t81.5 -16.5z" />
    <glyph glyph-name="product" unicode="&#x220f;" horiz-adv-x="689" 
d="M112 710h465v-894h-57v839h-351v-839h-57v894z" />
    <glyph glyph-name="radical" unicode="&#x221a;" horiz-adv-x="747" 
d="M149 264h-84v55h121l113 -224l271 680h132v-55h-92l-305 -749z" />
    <glyph glyph-name="summation" unicode="&#x2211;" horiz-adv-x="638" 
d="M75 -130l258 393l-258 393v54h483v-55h-411l254 -392l-254 -392h411v-55h-483v54z" />
    <glyph glyph-name="integral" unicode="&#x222b;" horiz-adv-x="384" 
d="M74 -129h11q26 0 41 2.5t23 10t10.5 22.5t2.5 40v643q0 33 5.5 56t19.5 37.5t38 21t62 6.5h23v-55h-11q-26 0 -41 -2.5t-23 -10t-10.5 -22.5t-2.5 -40v-643q0 -33 -5.5 -56t-19.5 -37.5t-38 -21t-62 -6.5h-23v55z" />
    <glyph glyph-name="infinity" unicode="&#x221e;" horiz-adv-x="879" 
d="M589 110q-51 0 -89 22t-60 59q-23 -37 -61.5 -59t-88.5 -22q-39 0 -71.5 13.5t-56 37t-37 55.5t-13.5 68t13.5 67.5t37 55t56 37t71.5 13.5q50 0 88.5 -22t61.5 -59q22 37 60 59t89 22q39 0 71.5 -13.5t56 -37t37 -55t13.5 -67.5t-13.5 -68t-37 -55.5t-56 -37
t-71.5 -13.5zM589 160q28 0 51 10t39 27t24.5 39.5t8.5 47.5q0 24 -8.5 46.5t-24.5 39.5t-39 27t-51 10t-51 -10t-39 -27t-24.5 -39.5t-8.5 -46.5q0 -25 8.5 -47.5t24.5 -39.5t39 -27t51 -10zM290 160q28 0 51 10t39 27t24.5 39.5t8.5 47.5q0 24 -8.5 46.5t-24.5 39.5
t-39 27t-51 10t-50.5 -10t-38.5 -27t-24.5 -39.5t-8.5 -46.5q0 -25 8.5 -47.5t24.5 -39.5t38.5 -27t50.5 -10z" />
    <glyph glyph-name="Euro" unicode="&#x20ac;" horiz-adv-x="715" 
d="M31 460h117q16 57 47.5 104.5t76 81.5t100 53t118.5 19q67 0 114 -14.5t89 -41.5l-25 -49q-35 23 -77.5 37.5t-100.5 14.5q-51 0 -96 -15t-81.5 -42t-63.5 -64.5t-42 -83.5h384l-24 -45h-371q-2 -15 -3.5 -30t-1.5 -30q0 -14 1 -28t3 -28h312l-23 -45h-279
q15 -47 42 -85.5t64 -66t82.5 -42.5t96.5 -15q68 0 126 26v-58q-59 -21 -126 -21q-63 0 -119 19.5t-101 54t-76.5 82.5t-46.5 106h-140l24 45h107q-2 14 -3 28t-1 28q0 15 1 30t3 30h-131z" />
    <glyph glyph-name="uniFB01" unicode="&#xfb01;" horiz-adv-x="593" 
d="M23 500h91q-19 16 -29.5 39.5t-10.5 50.5q0 53 40.5 86.5t108.5 33.5h101v-54h-104q-36 0 -62 -18t-26 -56q0 -41 25.5 -61.5t56.5 -20.5h110v-55h-146v-445h-57v445h-98v55zM446 627q-10 7 -16 17.5t-6 23.5q0 20 15 35t35 15t35 -15t15 -35q0 -13 -6 -23.5t-16 -17.5
h-56zM445 500h57v-500h-57v500z" />
    <glyph glyph-name="uniFB02" unicode="&#xfb02;" horiz-adv-x="595" 
d="M23 500h91q-19 16 -29.5 39.5t-10.5 50.5q0 53 40.5 86.5t108.5 33.5h101v-54h-104q-36 0 -62 -18t-26 -56q0 -41 25.5 -61.5t56.5 -20.5h110v-55h-146v-445h-57v445h-98v55zM446 710h57v-710h-57v710z" />
    <glyph glyph-name="breve" unicode="&#x2d8;" horiz-adv-x="338" 
d="M167 591q-66 0 -103.5 34.5t-41.5 84.5h53q4 -29 26.5 -51.5t66.5 -22.5q45 0 68 22.5t27 51.5h53q-5 -50 -42 -84.5t-107 -34.5z" />
    <glyph glyph-name="caron" unicode="&#x2c7;" horiz-adv-x="366" 
d="M175 585l-167 112l27 43l140 -95l139 95l27 -44z" />
    <glyph glyph-name="circumflex" unicode="&#x2c6;" horiz-adv-x="356" 
d="M8 606l167 112l166 -111l-27 -44l-139 95l-140 -95z" />
    <glyph glyph-name="dotaccent" unicode="&#x2d9;" horiz-adv-x="121" 
d="M61 580q-22 0 -37 15t-15 37t15 37t37 15t37 -15t15 -37t-15 -37t-37 -15z" />
    <glyph glyph-name="glyph534" horiz-adv-x="121" 
d="M61 -184q-22 0 -37 15t-15 37t15 37t37 15t37 -15t15 -37t-15 -37t-37 -15z" />
    <glyph glyph-name="hungarumlaut" unicode="&#x2dd;" horiz-adv-x="364" 
d="M102 710h81l-118 -165h-54zM262 710h81l-118 -165h-54z" />
    <glyph glyph-name="glyph536" horiz-adv-x="216" 
d="M102 -50h81l-118 -165h-54z" />
    <glyph glyph-name="ogonek" unicode="&#x2db;" horiz-adv-x="203" 
d="M127 -174q-20 0 -39 4.5t-33.5 14.5t-23.5 25t-9 36q0 17 8 31.5t21.5 26.5t30.5 21t35 15h62q-45 -20 -68 -39.5t-23 -42.5q0 -17 14 -29t43 -12q21 0 36 5v-49q-24 -7 -54 -7z" />
    <glyph glyph-name="ring" unicode="&#x2da;" horiz-adv-x="223" 
d="M113 610q22 0 37.5 15.5t15.5 38.5q0 22 -15.5 38t-37.5 16t-38 -16t-16 -38q0 -23 16 -38.5t38 -15.5zM113 573q-19 0 -36 7t-29.5 19.5t-19.5 29t-7 35.5t7 35.5t19.5 29t29.5 19.5t36 7q38 0 65 -26.5t27 -64.5t-27 -64.5t-65 -26.5z" />
    <glyph glyph-name="tilde" unicode="&#x2dc;" horiz-adv-x="396" 
d="M36 585q9 42 36.5 64t60.5 22q21 0 38 -7.5t32.5 -16t29.5 -16t28 -7.5q22 0 33.5 12t16.5 35h52l-3 -14q-8 -37 -33.5 -61t-62.5 -24q-21 0 -39 7.5t-33.5 16t-30 16t-28.5 7.5q-21 0 -32 -12t-16 -35h-52z" />
    <glyph glyph-name="uni032C" unicode="&#x32c;" horiz-adv-x="366" 
d="M175 -155l-167 112l27 43l140 -95l139 95l27 -44z" />
    <glyph glyph-name="glyph541" horiz-adv-x="500" 
d="M243 710h58l-42 -167h-41z" />
    <glyph glyph-name="zero.zero" horiz-adv-x="818" 
d="M409 -8q-77 0 -143 27.5t-115 76.5t-77 115.5t-28 143.5t28 143.5t77 115t115 76.5t143 28q76 0 142.5 -28t115.5 -76.5t77 -115t28 -143.5t-28 -143.5t-77 -115.5t-115.5 -76.5t-142.5 -27.5zM409 46q66 0 121.5 23.5t96 65t63.5 98t23 122.5q0 40 -9 76l-576 -196
q16 -42 43.5 -77t64 -60t80 -38.5t93.5 -13.5zM107 355q0 -18 1.5 -35t5.5 -33l574 196q-17 40 -44.5 73.5t-63.5 57.5t-79.5 37t-91.5 13q-66 0 -121 -23.5t-95.5 -65t-63 -98t-22.5 -122.5z" />
    <glyph glyph-name="one.oldstyle" horiz-adv-x="261" 
d="M102 498l57 58v-556h-57v498z" />
    <glyph glyph-name="two.oldstyle" horiz-adv-x="477" 
d="M38 0l197 216q-35 0 -65.5 13t-53.5 35.5t-36.5 52.5t-13.5 65t13.5 65t36.5 52.5t53.5 35.5t65.5 13t65.5 -13t53.5 -35.5t36.5 -52.5t13.5 -65q0 -32 -12.5 -63t-47.5 -69l-178 -195h234v-55h-362zM235 266q26 0 46.5 9.5t35 25.5t22 37t7.5 44t-7.5 44t-22 36.5
t-35 25t-46.5 9.5t-46.5 -9.5t-34.5 -25t-21.5 -36.5t-7.5 -44t7.5 -44t21.5 -37t34.5 -25.5t46.5 -9.5z" />
    <glyph glyph-name="three.oldstyle" horiz-adv-x="517" 
d="M220 -142q-65 0 -112 22t-79 53l36 41q28 -27 66 -45t89 -18q42 0 77.5 12t61 35.5t40 56.5t14.5 75q0 39 -13.5 70.5t-39 53t-63.5 32.5t-86 8h-3l128 231h-280v55h372l-133 -239q79 -17 128 -70t49 -141q0 -53 -19 -96t-52.5 -73t-79.5 -46.5t-101 -16.5z" />
    <glyph glyph-name="four.oldstyle" horiz-adv-x="579" 
d="M407 75h-428l485 473v-419h103v-54h-103v-209h-57v209zM407 129v289l-296 -289h296z" />
    <glyph glyph-name="five.oldstyle" horiz-adv-x="549" 
d="M242 -142q-31 0 -60 7t-54 18.5t-45.5 26.5t-34.5 31l36 41q30 -31 69 -51t89 -20q42 0 75 13.5t56.5 36.5t35.5 54t12 66q0 36 -12 67t-35 54.5t-56 36.5t-75 13t-73.5 -13.5t-51.5 -30.5l-35 20v312h355v-55h-298v-201q23 10 48.5 15.5t54.5 5.5q57 0 101.5 -17.5
t74.5 -48t46 -71.5t16 -87q0 -45 -16 -85.5t-47 -71t-75 -48.5t-101 -18z" />
    <glyph glyph-name="six.oldstyle" horiz-adv-x="505" 
d="M252 -8q-47 0 -86.5 17t-68 46t-44.5 68.5t-16 83.5q0 29 7 55t19 50l183 362h60l-137 -268q38 16 83 16q48 0 87.5 -17t68.5 -46.5t45 -68.5t16 -83t-16 -83.5t-45 -68.5t-68.5 -46t-87.5 -17zM252 45q36 0 65 13t49.5 35t32 51.5t11.5 62.5t-11.5 62t-32 51.5
t-49.5 35.5t-65 13q-35 0 -64 -13t-49.5 -35.5t-32 -51.5t-11.5 -62t11.5 -62.5t32 -51.5t49.5 -35t64 -13z" />
    <glyph glyph-name="seven.oldstyle" horiz-adv-x="504" 
d="M398 485h-367v55h454l-332 -674h-60z" />
    <glyph glyph-name="eight.oldstyle" horiz-adv-x="586" 
d="M293 -8q-45 0 -85 17.5t-70 47.5t-47.5 70t-17.5 85q0 66 35 119.5t92 79.5q-28 20 -44.5 51.5t-16.5 68.5q0 31 12.5 58.5t33.5 48t49 32.5t59 12t59 -12t49 -32.5t33.5 -48t12.5 -58.5q0 -37 -16.5 -68.5t-44.5 -51.5q57 -26 92 -79.5t35 -119.5q0 -45 -17.5 -85
t-47.5 -70t-70 -47.5t-85 -17.5zM293 45q34 0 63.5 13.5t51.5 36t34 53t12 64.5t-12 65t-34 53.5t-51.5 36t-63.5 13.5h-6q-33 -1 -61.5 -15t-49.5 -36.5t-32.5 -52.5t-11.5 -64t12 -64.5t34 -53t51 -36t64 -13.5zM293 432h4q39 2 64.5 30.5t25.5 68.5q0 42 -26.5 70
t-67.5 28t-67.5 -28.5t-26.5 -69.5q0 -40 25.5 -68.5t64.5 -30.5h4z" />
    <glyph glyph-name="nine.oldstyle" horiz-adv-x="505" 
d="M254 548q47 0 86.5 -17t68 -46t44.5 -68.5t16 -83.5q0 -29 -7 -55t-19 -50l-183 -362h-60l137 268q-38 -16 -83 -16q-48 0 -87.5 17t-68.5 46.5t-45 68.5t-16 83t16 83.5t45 68.5t68.5 46t87.5 17zM254 495q-36 0 -65 -13t-49.5 -35t-32 -51.5t-11.5 -62.5t11.5 -62
t32 -51.5t49.5 -35.5t65 -13q35 0 64 13t49.5 35.5t32 51.5t11.5 62t-11.5 62.5t-32 51.5t-49.5 35t-64 13z" />
    <glyph glyph-name="zero.oldstyle" horiz-adv-x="660" 
d="M330 45q51 0 91.5 17.5t69 48t44 71.5t15.5 88t-15.5 88t-44 71.5t-69 48t-91.5 17.5q-50 0 -90.5 -17.5t-69.5 -48t-44.5 -71.5t-15.5 -88t15.5 -88t44.5 -71.5t69.5 -48t90.5 -17.5zM330 -8q-62 0 -113 22t-88 59.5t-57.5 88.5t-20.5 108t20.5 108t57.5 88.5t88 59.5
t113 22q61 0 112.5 -22t88.5 -59.5t57.5 -88.5t20.5 -108t-20.5 -108t-57.5 -88.5t-88.5 -59.5t-112.5 -22z" />
    <glyph glyph-name="zero.oldstyle.zero" horiz-adv-x="660" 
d="M330 -8q-62 0 -113 22t-88 59.5t-57.5 88.5t-20.5 108t20.5 108t57.5 88.5t88 59.5t113 22q61 0 112.5 -22t88.5 -59.5t57.5 -88.5t20.5 -108t-20.5 -108t-57.5 -88.5t-88.5 -59.5t-112.5 -22zM110 270q0 -12 1 -24t3 -23l418 142q-24 58 -76 94t-126 36
q-50 0 -90.5 -17.5t-69.5 -48t-44.5 -71.5t-15.5 -88zM330 45q51 0 91.5 17.5t69 48t44 71.5t15.5 88q0 12 -1 24t-3 23l-418 -143q24 -58 76.5 -93.5t125.5 -35.5z" />
    <glyph glyph-name="one.tnum" horiz-adv-x="590" 
d="M186 710h144v-655h138v-55h-333v55h138v600h-87v55z" />
    <glyph glyph-name="two.tnum" horiz-adv-x="590" 
d="M362 320q-13 -5 -30 -9t-37 -4q-43 0 -80.5 15.5t-65.5 43t-44 65t-16 81.5q0 43 16 81t44 65.5t65.5 43.5t80.5 16q42 0 79.5 -16t65.5 -43.5t44.5 -65.5t16.5 -81q0 -35 -8 -66.5t-25 -64t-45 -67.5t-67 -77l-173 -182h319v-55h-446zM295 359q31 0 58.5 11.5t47 32
t31 48.5t11.5 61t-11.5 61t-31 48.5t-47 32t-58.5 11.5q-32 0 -59 -11.5t-47 -32t-31 -48.5t-11 -61t11 -61t31 -48.5t47 -32t59 -11.5z" />
    <glyph glyph-name="three.tnum" horiz-adv-x="590" 
d="M273 -8q-63 0 -117 32t-83 83l49 31q9 -19 24.5 -36t35 -29.5t43 -20t49.5 -7.5q37 0 68.5 13t55 36t37 55t13.5 70q0 40 -13 73t-36.5 57t-56.5 37.5t-73 13.5h-59l159 255h-268v55h362q-37 -61 -70 -113q-14 -22 -28 -44.5t-26 -42.5t-22 -35.5t-15 -23.5q49 -6 87 -27
t64 -52.5t40 -71t14 -81.5q0 -45 -17 -86t-48 -72.5t-74 -50t-95 -18.5z" />
    <glyph glyph-name="four.tnum" horiz-adv-x="590" 
d="M406 210h-419l476 508v-453h103v-55h-103v-210h-57v210zM406 265v315l-295 -315h295z" />
    <glyph glyph-name="five.tnum" horiz-adv-x="591" 
d="M283 -8q-63 0 -117 32t-83 83l49 31q19 -38 60 -65.5t92 -27.5q37 0 68.5 13t55 36t37 55t13.5 71t-13 72t-36.5 57t-56.5 37.5t-73 13.5q-42 0 -71.5 -18t-47.5 -35l-43 19v344h345v-55h-288v-231q21 12 48 20.5t57 8.5q56 0 100.5 -19t75 -51.5t47 -74.5t16.5 -88
q0 -45 -17 -86.5t-48 -73t-74.5 -50t-95.5 -18.5z" />
    <glyph glyph-name="six.tnum" horiz-adv-x="591" 
d="M295 -8q-48 0 -90 18t-73 49.5t-49 73t-18 89.5q0 35 11 67.5t28 61.5l220 359h64l-167 -270q17 6 35.5 9.5t38.5 3.5q48 0 90 -18t73.5 -49.5t49.5 -73.5t18 -90t-18 -89.5t-49.5 -73t-73.5 -49.5t-90 -18zM295 45q37 0 68.5 14t54.5 38t36 56t13 69t-13 69.5t-36 56.5
t-54.5 38t-68.5 14t-68.5 -14t-54 -38t-35.5 -56.5t-13 -69.5t13 -69t35.5 -56t54 -38t68.5 -14z" />
    <glyph glyph-name="seven.tnum" horiz-adv-x="590" 
d="M455 655h-367v55h454l-349 -710h-60z" />
    <glyph glyph-name="eight.tnum" horiz-adv-x="591" 
d="M295 -8q-48 0 -90 18t-73 49.5t-49 73t-18 89.5q0 70 37 126t97 83q-29 22 -46 54.5t-17 73.5q0 34 12.5 63t34 50.5t50.5 33.5t62 12t62 -12t51 -33.5t34.5 -50.5t12.5 -63q0 -41 -17.5 -73.5t-46.5 -54.5q60 -27 97.5 -83t37.5 -126q0 -48 -18 -89.5t-49.5 -73
t-73.5 -49.5t-90 -18zM295 45q37 0 68.5 14t54.5 38t36 56t13 69t-13 69.5t-36 57t-54.5 38.5t-68.5 14t-68.5 -14t-54 -38.5t-35.5 -57t-13 -69.5t13 -69t35.5 -56t54 -38t68.5 -14zM295 452h4q45 2 71 32.5t26 74.5q0 45 -27 75.5t-74 30.5t-73.5 -30.5t-26.5 -75.5
q0 -44 25 -74.5t70 -32.5h5z" />
    <glyph glyph-name="nine.tnum" horiz-adv-x="591" 
d="M370 270q-17 -6 -35.5 -9.5t-38.5 -3.5q-48 0 -90 18t-73.5 49.5t-49.5 73.5t-18 90t18 89.5t49.5 73t73.5 49.5t90 18t89.5 -18t73 -49.5t49.5 -73t18 -89.5q0 -35 -11 -67.5t-28 -61.5l-221 -359h-63zM296 310q37 0 68.5 14t54 38t35.5 56.5t13 69.5t-13 69t-35.5 56
t-54 38t-68.5 14t-68.5 -14t-54.5 -38t-36 -56t-13 -69t13 -69.5t36 -56.5t54.5 -38t68.5 -14z" />
    <glyph glyph-name="zero.tnum" horiz-adv-x="590" 
d="M295 45q51 0 91.5 17.5t69 48t44 71.5t15.5 88t-15.5 88t-44 71.5t-69 48t-91.5 17.5q-50 0 -90.5 -17.5t-69.5 -48t-44.5 -71.5t-15.5 -88t15.5 -88t44.5 -71.5t69.5 -48t90.5 -17.5zM295 -8q-62 0 -113 22t-88 59.5t-57.5 88.5t-20.5 108t20.5 108t57.5 88.5t88 59.5
t113 22q61 0 112.5 -22t88.5 -59.5t57.5 -88.5t20.5 -108t-20.5 -108t-57.5 -88.5t-88.5 -59.5t-112.5 -22z" />
    <glyph glyph-name="zero.tnum.zero" horiz-adv-x="590" 
d="M295 -8q-62 0 -113 22t-88 59.5t-57.5 88.5t-20.5 108t20.5 108t57.5 88.5t88 59.5t113 22q61 0 112.5 -22t88.5 -59.5t57.5 -88.5t20.5 -108t-20.5 -108t-57.5 -88.5t-88.5 -59.5t-112.5 -22zM75 270q0 -12 1 -24t3 -23l418 142q-24 58 -76 94t-126 36
q-50 0 -90.5 -17.5t-69.5 -48t-44.5 -71.5t-15.5 -88zM295 45q51 0 91.5 17.5t69 48t44 71.5t15.5 88q0 12 -1 24t-3 23l-418 -143q24 -58 76.5 -93.5t125.5 -35.5z" />
    <glyph glyph-name="one.case" horiz-adv-x="286" 
d="M112 656l62 62v-718h-62v656z" />
    <glyph glyph-name="two.case" horiz-adv-x="558" 
d="M347 320q-13 -5 -30 -9t-37 -4q-43 0 -80.5 15.5t-65.5 43t-44 65t-16 81.5q0 43 16 81t44 65.5t65.5 43.5t80.5 16q42 0 79.5 -16t65.5 -43.5t44.5 -65.5t16.5 -81q0 -35 -7 -66.5t-23.5 -64t-43.5 -67.5t-66 -77l-173 -178h314v-59h-446zM280 363q31 0 57 11.5t45 32
t30 47.5t11 58t-11 58t-30 47t-45 32t-57 12t-57 -12t-45 -32t-30 -47t-11 -58t11 -58t30 -47.5t45 -32t57 -11.5z" />
    <glyph glyph-name="three.case" horiz-adv-x="539" 
d="M248 -8q-64 0 -117 32t-83 85l52 33q21 -42 60.5 -67.5t87.5 -25.5q34 0 64.5 13.5t53.5 37t36 55t13 67.5t-13 68t-36 55.5t-53.5 37t-64.5 13.5h-75l159 255h-260v59h362q-37 -61 -70 -113q-28 -45 -54 -86.5t-37 -58.5q43 -5 80.5 -25t65 -50.5t43.5 -70.5t16 -84
q0 -47 -18 -89t-49.5 -73.5t-73 -49.5t-89.5 -18z" />
    <glyph glyph-name="four.case" horiz-adv-x="614" 
d="M427 208h-419l481 510v-451h103v-59h-103v-208h-62v208zM427 267v301l-284 -301h284z" />
    <glyph glyph-name="five.case" horiz-adv-x="559" 
d="M268 -8q-64 0 -117 32.5t-83 85.5l51 33q21 -42 60.5 -68t88.5 -26q34 0 64.5 13.5t53.5 37t36 55t13 67.5t-13 68t-36 55.5t-53.5 37t-64.5 13.5q-35 0 -66 -14t-54 -38l-51 22v344h345v-59h-283v-226q51 28 109 28q48 0 89.5 -18t73 -49.5t49.5 -73.5t18 -90
q0 -47 -18 -89t-49.5 -73.5t-73 -49.5t-89.5 -18z" />
    <glyph glyph-name="six.case" horiz-adv-x="580" 
d="M291 -8q-47 0 -89 18t-73.5 49.5t-49.5 73.5t-18 89q0 36 11.5 68.5t28.5 61.5l219 358h70l-165 -267q30 10 66 10q48 0 89.5 -18t73 -49.5t49.5 -73.5t18 -90q0 -47 -18 -89t-49.5 -73.5t-73 -49.5t-89.5 -18zM291 49q34 0 64.5 13.5t53.5 37t36 55t13 67.5t-13 68
t-36 55.5t-53.5 37t-64.5 13.5q-35 0 -65 -13.5t-53 -37t-36 -55.5t-13 -68t13 -67.5t36 -55t53 -37t65 -13.5z" />
    <glyph glyph-name="seven.case" horiz-adv-x="524" 
d="M401 651h-360v59h454l-349 -710h-65z" />
    <glyph glyph-name="eight.case" horiz-adv-x="582" 
d="M291 -8q-47 0 -89 18t-73.5 49.5t-49.5 73.5t-18 89q0 69 36.5 124t94.5 84q-29 22 -45.5 55t-16.5 72q0 33 12.5 62.5t34.5 51.5t51.5 34.5t62.5 12.5t62 -12.5t51 -34.5t34.5 -51.5t12.5 -62.5q0 -39 -16.5 -71.5t-44.5 -55.5q58 -28 94.5 -83.5t36.5 -124.5
q0 -47 -18 -89t-49.5 -73.5t-73 -49.5t-89.5 -18zM291 396q-35 0 -65 -13.5t-53 -37t-36 -55.5t-13 -68t13 -67.5t36 -55t53 -37t65 -13.5q34 0 64.5 13.5t53.5 37t36 55t13 67.5q0 35 -12.5 66t-34.5 54.5t-51.5 37.5t-62.5 16h-6zM291 453h4q42 2 67.5 31.5t25.5 72.5
q0 45 -26.5 74.5t-70.5 29.5q-45 0 -71.5 -29.5t-26.5 -74.5q0 -43 25.5 -72.5t67.5 -31.5h5z" />
    <glyph glyph-name="nine.case" horiz-adv-x="580" 
d="M355 267q-30 -10 -66 -10q-48 0 -89.5 18t-73 49.5t-49.5 73.5t-18 90q0 47 18 89t49.5 73.5t73 49.5t89.5 18q47 0 89 -18t73.5 -49.5t49.5 -73.5t18 -89q0 -36 -11.5 -68.5t-28.5 -61.5l-219 -358h-70zM289 314q34 0 64.5 13.5t53.5 37t36 55.5t13 68t-13 67.5t-36 55
t-53.5 37t-64.5 13.5q-35 0 -65 -13.5t-53 -37t-36 -55t-13 -67.5t13 -68t36 -55.5t53 -37t65 -13.5z" />
    <glyph glyph-name="zero.case" horiz-adv-x="838" 
d="M419 53q61 0 114.5 22.5t93 63t62 95.5t22.5 121t-22.5 121t-62 95.5t-93 63t-114.5 22.5q-62 0 -115 -22.5t-92.5 -63t-62 -95.5t-22.5 -121t22.5 -121t62 -95.5t92.5 -63t115 -22.5zM419 -8q-77 0 -143 27.5t-115 76.5t-77 115.5t-28 143.5t28 143.5t77 115t115 76.5
t143 28q76 0 142.5 -28t115.5 -76.5t77 -115t28 -143.5t-28 -143.5t-77 -115.5t-115.5 -76.5t-142.5 -27.5z" />
    <glyph glyph-name="zero.case.zero" horiz-adv-x="838" 
d="M419 -8q-77 0 -143 27.5t-115 76.5t-77 115.5t-28 143.5t28 143.5t77 115t115 76.5t143 28q76 0 142.5 -28t115.5 -76.5t77 -115t28 -143.5t-28 -143.5t-77 -115.5t-115.5 -76.5t-142.5 -27.5zM419 657q-62 0 -115 -22.5t-92.5 -63t-62 -95.5t-22.5 -121q0 -35 8 -72
l555 189q-16 42 -43 76t-62 58.5t-77.5 37.5t-88.5 13zM419 53q61 0 114.5 22.5t93 63t62 95.5t22.5 121q0 17 -2 33t-5 32l-554 -189q16 -41 43 -73.5t62 -56t76.5 -36t87.5 -12.5z" />
    <glyph glyph-name="uni21B2" unicode="&#x21b2;" horiz-adv-x="800" 
d="M16 248l306 306l33 -35l-246 -246h577v409h50v-459h-627l246 -247l-33 -34z" />
    <glyph glyph-name="uni21B3" unicode="&#x21b3;" horiz-adv-x="800" 
d="M478 -58l-33 34l246 247h-627v459h50v-409h577l-246 246l33 35l306 -306z" />
    <glyph glyph-name="uni21B0" unicode="&#x21b0;" horiz-adv-x="800" 
d="M686 -184v409h-577l246 -246l-33 -35l-306 306l306 306l33 -34l-246 -247h627v-459h-50z" />
    <glyph glyph-name="uni21B1" unicode="&#x21b1;" horiz-adv-x="800" 
d="M64 275h627l-246 247l33 34l306 -306l-306 -306l-33 35l246 246h-577v-409h-50v459z" />
    <glyph glyph-name="arrowleft" unicode="&#x2190;" horiz-adv-x="800" 
d="M40 250l306 306l33 -35l-246 -246h627v-50h-627l246 -247l-33 -34z" />
    <glyph glyph-name="arrowup" unicode="&#x2191;" horiz-adv-x="800" 
d="M375 627l-247 -246l-34 33l306 306l306 -306l-35 -33l-246 246v-627h-50v627z" />
    <glyph glyph-name="arrowright" unicode="&#x2192;" horiz-adv-x="800" 
d="M421 -21l246 246h-627v50h627l-246 247l33 34l306 -306l-306 -306z" />
    <glyph glyph-name="arrowdown" unicode="&#x2193;" horiz-adv-x="800" 
d="M400 -10l-306 306l34 33l247 -246v627h50v-627l246 246l35 -33z" />
    <glyph glyph-name="uni2196" unicode="&#x2196;" horiz-adv-x="800" 
d="M659 17l-473 472v-349h-47v432h433v-48h-351l473 -472z" />
    <glyph glyph-name="uni2197" unicode="&#x2197;" horiz-adv-x="800" 
d="M107 52l473 472h-351v48h433v-432h-47v349l-473 -472z" />
    <glyph glyph-name="uni2198" unicode="&#x2198;" horiz-adv-x="800" 
d="M226 0v48h351l-473 472l35 35l473 -472v349h47v-432h-433z" />
    <glyph glyph-name="uni2199" unicode="&#x2199;" horiz-adv-x="800" 
d="M139 432h47v-349l473 472l35 -35l-473 -472h351v-48h-433v432z" />
    <glyph glyph-name="uni219E" unicode="&#x219e;" horiz-adv-x="800" 
d="M332 225h-199l246 -247l-33 -34l-306 306l306 306l33 -35l-246 -246h199l281 281l33 -35l-247 -246h361v-50h-361l247 -247l-33 -34z" />
    <glyph glyph-name="uni219F" unicode="&#x219f;" horiz-adv-x="800" 
d="M94 147l281 281v199l-247 -246l-34 33l306 306l306 -306l-35 -33l-246 246v-199l281 -281l-35 -33l-246 247v-361h-50v361l-247 -247z" />
    <glyph glyph-name="uni21A0" unicode="&#x21a0;" horiz-adv-x="800" 
d="M187 -56l-33 34l247 247h-361v50h361l-247 246l33 35l281 -281h199l-246 246l33 35l306 -306l-306 -306l-33 34l246 247h-199z" />
    <glyph glyph-name="uni21A1" unicode="&#x21a1;" horiz-adv-x="800" 
d="M400 -10l-306 306l34 33l247 -246v199l-281 281l34 33l247 -247v361h50v-361l246 247l35 -33l-281 -281v-199l246 246l35 -33z" />
    <glyph glyph-name="uni21A2" unicode="&#x21a2;" horiz-adv-x="800" 
d="M760 -56l-281 281h-391l246 -246l-33 -35l-306 306l306 306l33 -34l-246 -247h391l281 281l33 -34l-272 -272l272 -271z" />
    <glyph glyph-name="uni21A3" unicode="&#x21a3;" horiz-adv-x="800" 
d="M1 -21l272 271l-272 272l33 34l281 -281h391l-246 247l33 34l306 -306l-306 -306l-33 35l246 246h-391l-281 -281z" />
    <glyph glyph-name="uni21A4" unicode="&#x21a4;" horiz-adv-x="800" 
d="M678 225h-577l246 -247l-33 -34l-306 306l306 306l33 -35l-246 -246h577v225h50v-500h-50v225z" />
    <glyph glyph-name="uni21A5" unicode="&#x21a5;" horiz-adv-x="800" 
d="M150 50h225v577l-247 -246l-34 33l306 306l306 -306l-35 -33l-246 246v-577h225v-50h-500v50z" />
    <glyph glyph-name="uni21A6" unicode="&#x21a6;" horiz-adv-x="800" 
d="M74 0v500h50v-225h577l-246 246l33 35l306 -306l-306 -306l-33 34l246 247h-577v-225h-50z" />
    <glyph glyph-name="uni21A7" unicode="&#x21a7;" horiz-adv-x="800" 
d="M150 660v50h500v-50h-225v-577l246 246l35 -33l-306 -306l-306 306l34 33l247 -246v577h-225z" />
    <glyph glyph-name="filledbox" unicode="&#x25a0;" horiz-adv-x="684" 
d="M92 500h500v-500h-500v500z" />
    <glyph glyph-name="H22073" unicode="&#x25a1;" horiz-adv-x="684" 
d="M92 500h500v-500h-500v500zM149 55h386v390h-386v-390z" />
    <glyph glyph-name="circle" unicode="&#x25cb;" 
d="M310 45q45 0 82 16.5t63.5 44t40.5 65t14 79.5t-14 79.5t-40.5 65t-63.5 44t-82 16.5t-81.5 -16.5t-63 -44t-41 -65t-14.5 -79.5t14.5 -79.5t41 -65t63 -44t81.5 -16.5zM310 -8q-57 0 -104.5 20.5t-82 55.5t-53.5 82t-19 100t19 100t53.5 82t82 55.5t104.5 20.5
t104.5 -20.5t82 -55.5t53.5 -82t19 -100t-19 -100t-53.5 -82t-82 -55.5t-104.5 -20.5z" />
    <glyph glyph-name="H18533" unicode="&#x25cf;" horiz-adv-x="619" 
d="M310 -8q-56 0 -103.5 20.5t-82 55.5t-54 82t-19.5 100t19.5 100t54 82t82 55.5t103.5 20.5t103 -20.5t81.5 -55.5t54 -82t19.5 -100t-19.5 -100t-54 -82t-81.5 -55.5t-103 -20.5z" />
    <glyph glyph-name="onethird" unicode="&#x2153;" horiz-adv-x="731" 
d="M78 677l47 47v-440h-47v393zM38 0l500 710h50l-500 -710h-50zM565 -5q-38 0 -71 18.5t-51 48.5l37 27q11 -21 33 -36t51 -15q42 0 69 26.5t27 69.5t-27 70.5t-72 27.5h-37l89 150h-153v44h226q-25 -42 -44 -75l-16 -28t-15 -25t-11 -18.5t-5 -8.5q54 -9 83.5 -47.5
t29.5 -89.5q0 -29 -10.5 -54t-29 -44t-45 -30t-58.5 -11z" />
    <glyph glyph-name="uni2155" unicode="&#x2155;" horiz-adv-x="730" 
d="M78 677l47 47v-440h-47v393zM38 0l500 710h50l-500 -710h-50zM566 -5q-38 0 -71.5 18.5t-51.5 48.5l37 27q11 -21 33.5 -36t51.5 -15q42 0 68.5 26.5t26.5 68.5t-26 70t-71 28q-25 0 -41.5 -11t-26.5 -22l-33 14v214h213v-44h-166v-122q11 6 25.5 10t29.5 4
q34 0 60.5 -11t45 -30.5t28.5 -45t10 -54.5q0 -28 -10 -53t-29 -44t-45 -30t-58 -11z" />
    <glyph glyph-name="uni2159" unicode="&#x2159;" horiz-adv-x="724" 
d="M78 677l47 47v-440h-47v393zM38 0l500 710h50l-500 -710h-50zM563 -5q-29 0 -54.5 11t-44.5 29.5t-30 44t-11 54.5q0 22 6.5 41.5t17.5 36.5l129 214h52l-96 -159q15 6 33 6q29 -1 54.5 -12t44 -30t29.5 -44t11 -53q0 -29 -11 -54.5t-30 -44t-44.5 -29.5t-55.5 -11z
M563 38q42 0 67.5 28t25.5 68q0 39 -25.5 67t-67.5 28q-41 0 -66.5 -28t-25.5 -67q0 -40 25.5 -68t66.5 -28z" />
    <glyph glyph-name="oneeighth" unicode="&#x215b;" horiz-adv-x="753" 
d="M78 677l47 47v-440h-47v393zM38 0l500 710h50l-500 -710h-50zM578 -5q-29 0 -53.5 10.5t-43.5 29t-29.5 43.5t-10.5 54q0 39 18.5 70.5t49.5 48.5q-16 14 -25 33.5t-9 43.5q0 22 8 41t22 32.5t33 21.5t40 8t40 -8t33 -21.5t22 -32.5t8 -41q0 -24 -9 -43.5t-25 -33.5
q31 -17 49.5 -48.5t18.5 -70.5q0 -29 -10.5 -54t-29.5 -43.5t-44 -29t-53 -10.5zM578 39q38 0 63.5 27t25.5 66q0 19 -7 36.5t-19 30t-28 20t-35 7.5q-38 0 -63 -27.5t-25 -66.5t25 -66t63 -27zM582 269q23 2 37.5 18t14.5 41q0 26 -16 42.5t-40 16.5t-40 -16.5t-16 -42.5
t16 -42.5t40 -16.5h4z" />
    <glyph glyph-name="twothirds" unicode="&#x2154;" horiz-adv-x="865" 
d="M196 466q-14 -3 -26 -3q-27 1 -49.5 11t-39 27t-25.5 39t-9 48q0 27 10 50t27 40t40 27t50 10t50.5 -10t40.5 -27t27 -40t10 -50q0 -39 -18.5 -73t-58.5 -78l-100 -109h178v-44h-277zM174 505q35 0 58.5 23.5t23.5 59.5t-23.5 60t-58.5 24t-57.5 -24t-22.5 -60
t22.5 -59.5t57.5 -23.5zM172 0l500 710h50l-500 -710h-50zM699 -5q-38 0 -71 18.5t-51 48.5l37 27q11 -21 33 -36t51 -15q42 0 69 26.5t27 69.5t-27 70.5t-72 27.5h-37l89 150h-153v44h226q-25 -42 -44 -75l-16 -28t-15 -25t-11 -18.5t-5 -8.5q54 -9 83.5 -47.5t29.5 -89.5
q0 -29 -10.5 -54t-29 -44t-45 -30t-58.5 -11z" />
    <glyph glyph-name="uni2156" unicode="&#x2156;" horiz-adv-x="864" 
d="M196 466q-14 -3 -26 -3q-27 1 -49.5 11t-39 27t-25.5 39t-9 48q0 27 10 50t27 40t40 27t50 10t50.5 -10t40.5 -27t27 -40t10 -50q0 -39 -18.5 -73t-58.5 -78l-100 -109h178v-44h-277zM174 505q35 0 58.5 23.5t23.5 59.5t-23.5 60t-58.5 24t-57.5 -24t-22.5 -60
t22.5 -59.5t57.5 -23.5zM172 0l500 710h50l-500 -710h-50zM700 -5q-38 0 -71.5 18.5t-51.5 48.5l37 27q11 -21 33.5 -36t51.5 -15q42 0 68.5 26.5t26.5 68.5t-26 70t-71 28q-25 0 -41.5 -11t-26.5 -22l-33 14v214h213v-44h-166v-122q11 6 25.5 10t29.5 4q34 0 60.5 -11
t45 -30.5t28.5 -45t10 -54.5q0 -28 -10 -53t-29 -44t-45 -30t-58 -11z" />
    <glyph glyph-name="uni2157" unicode="&#x2157;" horiz-adv-x="835" 
d="M162 279q-38 0 -71 18.5t-51 48.5l37 27q11 -21 33 -36t51 -15q42 0 69 26.5t27 69.5t-27 70.5t-72 27.5h-37l89 150h-153v44h226q-25 -42 -44 -75l-16 -28t-15 -25t-11 -18.5t-5 -8.5q54 -9 83.5 -47.5t29.5 -89.5q0 -29 -10.5 -54t-29 -44t-45 -30t-58.5 -11zM143 0
l500 710h50l-500 -710h-50zM671 -5q-38 0 -71.5 18.5t-51.5 48.5l37 27q11 -21 33.5 -36t51.5 -15q42 0 68.5 26.5t26.5 68.5t-26 70t-71 28q-25 0 -41.5 -11t-26.5 -22l-33 14v214h213v-44h-166v-122q11 6 25.5 10t29.5 4q34 0 60.5 -11t45 -30.5t28.5 -45t10 -54.5
q0 -28 -10 -53t-29 -44t-45 -30t-58 -11z" />
    <glyph glyph-name="threeeighths" unicode="&#x215c;" horiz-adv-x="859" 
d="M162 279q-38 0 -71 18.5t-51 48.5l37 27q11 -21 33 -36t51 -15q42 0 69 26.5t27 69.5t-27 70.5t-72 27.5h-37l89 150h-153v44h226q-25 -42 -44 -75l-16 -28t-15 -25t-11 -18.5t-5 -8.5q54 -9 83.5 -47.5t29.5 -89.5q0 -29 -10.5 -54t-29 -44t-45 -30t-58.5 -11zM143 0
l500 710h50l-500 -710h-50zM683 -5q-29 0 -53.5 10.5t-43.5 29t-29.5 43.5t-10.5 54q0 39 18.5 70.5t49.5 48.5q-16 14 -25 33.5t-9 43.5q0 22 8 41t22 32.5t33 21.5t40 8t40 -8t33 -21.5t22 -32.5t8 -41q0 -24 -9 -43.5t-25 -33.5q31 -17 49.5 -48.5t18.5 -70.5
q0 -29 -10.5 -54t-29.5 -43.5t-44 -29t-53 -10.5zM683 39q38 0 63.5 27t25.5 66q0 19 -7 36.5t-19 30t-28 20t-35 7.5q-38 0 -63 -27.5t-25 -66.5t25 -66t63 -27zM687 269q23 2 37.5 18t14.5 41q0 26 -16 42.5t-40 16.5t-40 -16.5t-16 -42.5t16 -42.5t40 -16.5h4z" />
    <glyph glyph-name="uni2158" unicode="&#x2158;" horiz-adv-x="838" 
d="M218 404h-243l290 320v-277h57v-43h-57v-120h-47v120zM218 447v161l-146 -161h146zM146 0l500 710h50l-500 -710h-50zM674 -5q-38 0 -71.5 18.5t-51.5 48.5l37 27q11 -21 33.5 -36t51.5 -15q42 0 68.5 26.5t26.5 68.5t-26 70t-71 28q-25 0 -41.5 -11t-26.5 -22l-33 14
v214h213v-44h-166v-122q11 6 25.5 10t29.5 4q34 0 60.5 -11t45 -30.5t28.5 -45t10 -54.5q0 -28 -10 -53t-29 -44t-45 -30t-58 -11z" />
    <glyph glyph-name="uni215A" unicode="&#x215a;" horiz-adv-x="828" 
d="M163 279q-38 0 -71.5 18.5t-51.5 48.5l37 27q11 -21 33.5 -36t51.5 -15q42 0 68.5 26.5t26.5 68.5t-26 70t-71 28q-25 0 -41.5 -11t-26.5 -22l-33 14v214h213v-44h-166v-122q11 6 25.5 10t29.5 4q34 0 60.5 -11t45 -30.5t28.5 -45t10 -54.5q0 -28 -10 -53t-29 -44
t-45 -30t-58 -11zM142 0l500 710h50l-500 -710h-50zM667 -5q-29 0 -54.5 11t-44.5 29.5t-30 44t-11 54.5q0 22 6.5 41.5t17.5 36.5l129 214h52l-96 -159q15 6 33 6q29 -1 54.5 -12t44 -30t29.5 -44t11 -53q0 -29 -11 -54.5t-30 -44t-44.5 -29.5t-55.5 -11zM667 38
q42 0 67.5 28t25.5 68q0 39 -25.5 67t-67.5 28q-41 0 -66.5 -28t-25.5 -67q0 -40 25.5 -68t66.5 -28z" />
    <glyph glyph-name="fiveeighths" unicode="&#x215d;" horiz-adv-x="857" 
d="M163 279q-38 0 -71.5 18.5t-51.5 48.5l37 27q11 -21 33.5 -36t51.5 -15q42 0 68.5 26.5t26.5 68.5t-26 70t-71 28q-25 0 -41.5 -11t-26.5 -22l-33 14v214h213v-44h-166v-122q11 6 25.5 10t29.5 4q34 0 60.5 -11t45 -30.5t28.5 -45t10 -54.5q0 -28 -10 -53t-29 -44
t-45 -30t-58 -11zM142 0l500 710h50l-500 -710h-50zM682 -5q-29 0 -53.5 10.5t-43.5 29t-29.5 43.5t-10.5 54q0 39 18.5 70.5t49.5 48.5q-16 14 -25 33.5t-9 43.5q0 22 8 41t22 32.5t33 21.5t40 8t40 -8t33 -21.5t22 -32.5t8 -41q0 -24 -9 -43.5t-25 -33.5
q31 -17 49.5 -48.5t18.5 -70.5q0 -29 -10.5 -54t-29.5 -43.5t-44 -29t-53 -10.5zM682 39q38 0 63.5 27t25.5 66q0 19 -7 36.5t-19 30t-28 20t-35 7.5q-38 0 -63 -27.5t-25 -66.5t25 -66t63 -27zM686 269q23 2 37.5 18t14.5 41q0 26 -16 42.5t-40 16.5t-40 -16.5t-16 -42.5
t16 -42.5t40 -16.5h4z" />
    <glyph glyph-name="seveneighths" unicode="&#x215e;" horiz-adv-x="801" 
d="M235 666h-207v44h277l-205 -426h-50zM85 0l500 710h50l-500 -710h-50zM625 -5q-29 0 -53.5 10.5t-43.5 29t-29.5 43.5t-10.5 54q0 39 18.5 70.5t49.5 48.5q-16 14 -25 33.5t-9 43.5q0 22 8 41t22 32.5t33 21.5t40 8t40 -8t33 -21.5t22 -32.5t8 -41q0 -24 -9 -43.5
t-25 -33.5q31 -17 49.5 -48.5t18.5 -70.5q0 -29 -10.5 -54t-29.5 -43.5t-44 -29t-53 -10.5zM625 39q38 0 63.5 27t25.5 66q0 19 -7 36.5t-19 30t-28 20t-35 7.5q-38 0 -63 -27.5t-25 -66.5t25 -66t63 -27zM629 269q23 2 37.5 18t14.5 41q0 26 -16 42.5t-40 16.5t-40 -16.5
t-16 -42.5t16 -42.5t40 -16.5h4z" />
    <glyph glyph-name="uni215F" unicode="&#x215f;" horiz-adv-x="403" 
d="M78 677l47 47v-440h-47v393zM38 0l500 710h50l-500 -710h-50z" />
    <glyph glyph-name="fraction" unicode="&#x2044;" horiz-adv-x="180" 
d="M-185 0l500 710h50l-500 -710h-50z" />
    <glyph glyph-name="a.superior" horiz-adv-x="375" 
d="M279 442q-42 -37 -99 -37q-33 0 -61.5 12t-48.5 33t-31.5 49t-11.5 61t11.5 61t31.5 49t48.5 33t61.5 12q57 0 99 -37v32h47v-300h-47v32zM181 449q34 0 59 14.5t39 36.5v120q-14 22 -39 36.5t-59 14.5q-47 0 -76 -32.5t-29 -78.5t29 -78.5t76 -32.5z" />
    <glyph glyph-name="b.superior" horiz-adv-x="375" 
d="M49 836h47v-158q40 37 99 37q33 0 61.5 -12t48.5 -33t31.5 -49t11.5 -61t-11.5 -61t-31.5 -49t-48.5 -33t-61.5 -12q-59 0 -99 37v-32h-47v426zM194 671q-34 0 -59 -14.5t-39 -36.5v-120q14 -22 39 -36.5t59 -14.5q47 0 76 32.5t29 78.5t-29 78.5t-76 32.5z" />
    <glyph glyph-name="c.superior" horiz-adv-x="318" 
d="M181 405q-33 0 -61.5 12t-49 33t-32 49.5t-11.5 60.5t11.5 60.5t32 49.5t49 33t61.5 12q38 0 66 -13.5t48 -33.5l-30 -33q-15 15 -35.5 25.5t-48.5 10.5q-23 0 -42 -9t-33 -24t-22 -35t-8 -43t8 -43t22 -35t33 -24t42 -9q28 0 48.5 10.5t35.5 25.5l30 -33
q-20 -20 -48 -33.5t-66 -13.5z" />
    <glyph glyph-name="d.superior" horiz-adv-x="375" 
d="M180 405q-33 0 -61.5 12t-48.5 33t-31.5 49t-11.5 61t11.5 61t31.5 49t48.5 33t61.5 12q57 0 99 -37v-58q-14 22 -39 36.5t-59 14.5q-47 0 -76 -32.5t-29 -78.5t29 -78.5t76 -32.5q34 0 59 14.5t39 36.5v-58q-42 -37 -99 -37zM279 410v32l6 6l1 66q-4 -10 -7 -14v120
l7 -14l-1 66l-6 6v158h47v-426h-47z" />
    <glyph glyph-name="e.superior" horiz-adv-x="346" 
d="M181 405q-33 0 -61.5 12t-49 33t-32 49.5t-11.5 60.5q0 33 11.5 61t32 49t47.5 33t59 12q62 0 102.5 -42t42.5 -122h-247q3 -43 32.5 -72.5t73.5 -29.5q29 0 51.5 11t37.5 26l30 -33q-20 -20 -50 -34t-69 -14zM174 672q-35 0 -61.5 -22t-34.5 -58h191q-5 39 -32 59.5
t-63 20.5z" />
    <glyph glyph-name="f.superior" horiz-adv-x="214" 
d="M13 710h51q-22 20 -22 53q0 32 24 52.5t64 20.5h68v-43h-62q-20 0 -34 -10t-14 -30q0 -22 15 -32.5t32 -10.5h63v-43h-84v-257h-47v257h-54v43z" />
    <glyph glyph-name="g.superior" horiz-adv-x="368" 
d="M175 294q-32 0 -66.5 9t-60.5 26l25 40q19 -14 46.5 -23t58.5 -9q20 0 38.5 4t33 13.5t23.5 24.5t9 37q0 9 -1.5 20.5t-6.5 20.5q-38 -39 -99 -39q-33 0 -60.5 11.5t-47 31.5t-30 47t-10.5 58t10.5 58.5t30 47.5t47 31.5t60.5 11.5q58 0 98 -38v33h47v-239q11 -31 11 -58
q0 -33 -13.5 -55.5t-35.5 -36.5t-50 -20.5t-57 -6.5zM176 462q34 0 59 14.5t38 36.5v107q-13 22 -38 36.5t-59 14.5q-45 0 -72.5 -30t-27.5 -75q0 -44 27.5 -74t72.5 -30z" />
    <glyph glyph-name="h.superior" horiz-adv-x="348" 
d="M49 836h47v-161q17 22 42.5 31t52.5 9q51 0 82.5 -32t31.5 -88v-185h-47v181q0 36 -21 58t-56 22q-34 0 -55.5 -17.5t-29.5 -47.5v-196h-47v426z" />
    <glyph glyph-name="i.superior" horiz-adv-x="144" 
d="M49 778q-12 10 -12 27q0 15 10 25.5t25 10.5t25 -10.5t10 -25.5q0 -17 -12 -27h-46zM48 710h47v-300h-47v300z" />
    <glyph glyph-name="j.superior" horiz-adv-x="146" 
d="M-13 343h19q25 0 34.5 12.5t9.5 35.5v319h47v-324q0 -86 -87 -86h-23v43zM50 779q-11 9 -11 27q0 14 10 24.5t24 10.5q15 0 25 -10.5t10 -24.5q0 -18 -11 -27h-47z" />
    <glyph glyph-name="k.superior" horiz-adv-x="308" 
d="M49 836h47v-261l137 135h59l-144 -142l158 -158h-62l-148 149v-149h-47v426z" />
    <glyph glyph-name="l.superior" horiz-adv-x="144" 
d="M49 836h47v-426h-47v426z" />
    <glyph glyph-name="m.superior" horiz-adv-x="526" 
d="M437 591q0 35 -19.5 57.5t-51.5 22.5q-29 0 -49 -17.5t-28 -47.5q0 -3 0.5 -5.5t0.5 -5.5v-185h-47v181q0 35 -19.5 57.5t-52.5 22.5q-27 0 -46.5 -16t-28.5 -43v-202h-47v300h47v-35q17 22 40 31t46 9q30 0 53.5 -13.5t37.5 -37.5q21 29 48.5 40t51.5 11q51 0 81 -32
t30 -88v-185h-47v181z" />
    <glyph glyph-name="uni207F" unicode="&#x207f;" horiz-adv-x="348" 
d="M49 710h47v-35q17 22 42.5 31t52.5 9q51 0 82.5 -32t31.5 -88v-185h-47v181q0 36 -21 58t-56 22q-34 0 -55.5 -17.5t-29.5 -47.5v-196h-47v300z" />
    <glyph glyph-name="o.superior" horiz-adv-x="365" 
d="M183 449q24 0 43.5 9t34 24t22 35t7.5 43t-7.5 43t-22 35t-34 24t-43.5 9t-43.5 -9t-34 -24t-22 -35t-7.5 -43t7.5 -43t22 -35t34 -24t43.5 -9zM183 405q-34 0 -62.5 12t-49.5 33t-32.5 49.5t-11.5 60.5t11.5 60.5t32.5 49.5t49.5 33t62.5 12t62.5 -12t49 -33t32 -49.5
t11.5 -60.5t-11.5 -60.5t-32 -49.5t-49 -33t-62.5 -12z" />
    <glyph glyph-name="p.superior" horiz-adv-x="375" 
d="M49 710h47v-32q40 37 99 37q33 0 61.5 -12t48.5 -33t31.5 -49t11.5 -61t-11.5 -61t-31.5 -49t-48.5 -33t-61.5 -12q-59 0 -99 37v-142h-47v410zM194 671q-34 0 -59 -14.5t-39 -36.5v-120q14 -22 39 -36.5t59 -14.5q47 0 76 32.5t29 78.5t-29 78.5t-76 32.5z" />
    <glyph glyph-name="q.superior" horiz-adv-x="375" 
d="M279 442q-42 -37 -99 -37q-33 0 -61.5 12t-48.5 33t-31.5 49t-11.5 61t11.5 61t31.5 49t48.5 33t61.5 12q57 0 99 -37v32h47v-410h-47v142zM181 449q34 0 59 14.5t39 36.5v120q-14 22 -39 36.5t-59 14.5q-47 0 -76 -32.5t-29 -78.5t29 -78.5t76 -32.5z" />
    <glyph glyph-name="r.superior" horiz-adv-x="215" 
d="M49 410v300h47v-37q15 20 37 30t47 10q5 0 10.5 -0.5t10.5 -1.5v-49q-6 2 -12.5 3t-14.5 1q-26 0 -46.5 -13t-31.5 -37v-206h-47z" />
    <glyph glyph-name="s.superior" horiz-adv-x="252" 
d="M123 405q-33 0 -60.5 15t-44.5 45l38 25q11 -20 27 -31t41 -11q24 0 40.5 11t16.5 29q0 19 -12.5 30t-40.5 22l-25 9q-40 14 -55 38t-15 50q0 32 25.5 55t66.5 23q29 0 52.5 -13.5t36.5 -41.5l-37 -20q-16 32 -52 32q-18 0 -31.5 -9t-13.5 -26q0 -15 9 -27t36 -22l26 -9
q77 -27 77 -89q0 -35 -28 -60t-77 -25z" />
    <glyph glyph-name="t.superior" horiz-adv-x="220" 
d="M1 710h59v67l47 25v-92h91l-9 -43h-82v-166q0 -23 10 -35.5t36 -12.5h39v-43h-43q-43 0 -66 21t-23 64v172h-50z" />
    <glyph glyph-name="u.superior" horiz-adv-x="341" 
d="M245 410v35q-18 -23 -43.5 -31.5t-51.5 -8.5q-51 0 -82.5 32t-31.5 88v185h46v-181q0 -36 21.5 -58t56.5 -22q34 0 55 17.5t30 47.5v196h47v-300h-47z" />
    <glyph glyph-name="v.superior" horiz-adv-x="320" 
d="M3 710h53l104 -210l104 210h53l-157 -305z" />
    <glyph glyph-name="w.superior" horiz-adv-x="432" 
d="M14 710h49l69 -224l84 230l84 -230l70 224h48l-95 -300h-37l-70 192l-69 -192h-38z" />
    <glyph glyph-name="x.superior" horiz-adv-x="324" 
d="M134 563l-112 147h54l87 -113l86 113h54l-112 -147l117 -153h-55l-91 119l-92 -119h-54z" />
    <glyph glyph-name="y.superior" horiz-adv-x="306" 
d="M128 437l-124 273h51l98 -222l98 222h51l-188 -410h-49z" />
    <glyph glyph-name="z.superior" horiz-adv-x="302" 
d="M198 667h-162v43h244l-180 -257h175v-43h-258z" />
    <glyph glyph-name="uni2074" unicode="&#x2074;" horiz-adv-x="353" 
d="M240 530h-243l290 320v-277h57v-43h-57v-120h-47v120zM240 573v167l-151 -167h151z" />
    <glyph glyph-name="uni2075" unicode="&#x2075;" horiz-adv-x="325" 
d="M155 405q-38 0 -72 18.5t-52 48.5l38 27q11 -21 33.5 -36t51.5 -15q41 0 68 26.5t27 68.5t-26.5 70t-71.5 28q-24 0 -41 -11t-27 -22l-32 14v214h212v-44h-165v-122q11 6 25 10t29 4q34 0 60.5 -11t45 -30.5t28.5 -45t10 -54.5q0 -28 -10 -53t-29 -44t-45 -30t-57 -11z
" />
    <glyph glyph-name="uni2076" unicode="&#x2076;" horiz-adv-x="329" 
d="M164 405q-29 0 -54.5 11t-44.5 29.5t-30 44t-11 54.5q0 22 7 41.5t17 36.5l129 214h52l-96 -159q15 6 33 6q29 -1 54.5 -12t44 -30t29.5 -44t11 -53q0 -29 -11 -54.5t-30 -44t-44.5 -29.5t-55.5 -11zM164 448q42 0 67.5 28t25.5 68q0 39 -25.5 67t-67.5 28
q-41 0 -66.5 -28t-25.5 -67q0 -40 25.5 -68t66.5 -28z" />
    <glyph glyph-name="uni2077" unicode="&#x2077;" horiz-adv-x="303" 
d="M224 792h-206v44h277l-205 -426h-50z" />
    <glyph glyph-name="uni2078" unicode="&#x2078;" horiz-adv-x="331" 
d="M166 405q-29 0 -54 10.5t-43.5 29t-29.5 43.5t-11 54q0 39 19 70.5t50 48.5q-16 14 -25 33.5t-9 43.5q0 22 8 41t22 32.5t33 21.5t40 8t39.5 -8t33 -21.5t22.5 -32.5t8 -41q0 -24 -9.5 -43.5t-25.5 -33.5q31 -17 50 -48.5t19 -70.5q0 -29 -11 -54t-29.5 -43.5t-43.5 -29
t-53 -10.5zM162 636q-37 -2 -61 -29t-24 -65q0 -39 25.5 -66t63.5 -27t63 27t25 66q0 38 -24.5 65t-60.5 29h-3h-4zM166 679q23 0 39.5 16.5t16.5 42.5t-16.5 42.5t-39.5 16.5q-24 0 -40.5 -16.5t-16.5 -42.5t16.5 -42.5t40.5 -16.5z" />
    <glyph glyph-name="uni2079" unicode="&#x2079;" horiz-adv-x="329" 
d="M197 569q-17 -6 -35 -6q-29 1 -54 12t-44 29.5t-29.5 43.5t-10.5 54t11 54.5t30 44t44.5 29.5t54.5 11q30 0 55.5 -11t44.5 -29.5t30 -44t11 -54.5q0 -22 -7 -41.5t-18 -36.5l-128 -214h-52zM164 607q42 0 67.5 28t25.5 67q0 40 -25.5 68t-67.5 28q-41 0 -66.5 -28
t-25.5 -68q0 -39 25.5 -67t66.5 -28z" />
    <glyph glyph-name="uni2070" unicode="&#x2070;" horiz-adv-x="477" 
d="M238 449q37 0 68.5 13.5t54 36.5t35.5 55t13 69t-13 69t-35.5 55t-54 36.5t-68.5 13.5t-68 -13.5t-53.5 -36.5t-35 -55t-12.5 -69t12.5 -69t35 -55t53.5 -36.5t68 -13.5zM238 405q-46 0 -85.5 17t-69 46t-46.5 69t-17 86t17 86t46.5 69t69 46t85.5 17t86 -17t69.5 -46
t46.5 -69t17 -86t-17 -86t-46.5 -69t-69.5 -46t-86 -17z" />
    <glyph glyph-name="uni2070.aalt" horiz-adv-x="477" 
d="M238 405q-46 0 -85.5 17t-69 46t-46.5 69t-17 86t17 86t46.5 69t69 46t85.5 17t86 -17t69.5 -46t46.5 -69t17 -86t-17 -86t-46.5 -69t-69.5 -46t-86 -17zM238 449q37 0 68.5 13.5t54 36.5t35.5 55t13 69q0 18 -3 35l-323 -109q20 -45 60.5 -72.5t94.5 -27.5zM69 623
v-17.5t2 -16.5l322 109q-20 45 -60.5 72t-94.5 27q-37 0 -68 -13.5t-53.5 -36.5t-35 -55t-12.5 -69z" />
    <glyph glyph-name="period.superior" horiz-adv-x="153" 
d="M77 405q-17 0 -29.5 13t-12.5 30t12.5 29.5t29.5 12.5t29 -13t12 -30t-12 -29.5t-29 -12.5z" />
    <glyph glyph-name="hyphen.superior" horiz-adv-x="200" 
d="M28 638h143v-49h-143v49z" />
    <glyph glyph-name="comma.superior" horiz-adv-x="148" 
d="M69 410h-29v71h69v-72l-34 -84h-32z" />
    <glyph glyph-name="uni207C" unicode="&#x207c;" horiz-adv-x="326" 
d="M29 572h268v-44h-268v44zM29 699h268v-44h-268v44z" />
    <glyph glyph-name="uni207A" unicode="&#x207a;" horiz-adv-x="321" 
d="M28 636h110v105h45v-105h110v-45h-110v-107h-45v107h-110v45z" />
    <glyph glyph-name="uni207B" unicode="&#x207b;" horiz-adv-x="322" 
d="M29 634h264v-41h-264v41z" />
    <glyph glyph-name="uni207D" unicode="&#x207d;" horiz-adv-x="144" 
d="M99 297q-32 66 -48.5 130.5t-16.5 144.5t16.5 144.5t48.5 130.5l38 -16q-31 -64 -45.5 -127.5t-14.5 -131.5q0 -67 14.5 -131t45.5 -127l-38 -17v0z" />
    <glyph glyph-name="uni207E" unicode="&#x207e;" horiz-adv-x="144" 
d="M45 297l-38 17q59 124 59 258t-59 259l38 16q32 -66 48 -130.5t16 -144.5t-16 -144.5t-48 -130.5z" />
    <glyph glyph-name="a.inferior" horiz-adv-x="375" 
d="M279 -82q-42 -37 -99 -37q-33 0 -61.5 12t-48.5 33t-31.5 49t-11.5 61t11.5 61t31.5 49t48.5 33t61.5 12q57 0 99 -37v32h47v-300h-47v32zM181 -75q34 0 59 14.5t39 36.5v120q-14 22 -39 36.5t-59 14.5q-47 0 -76 -32.5t-29 -78.5t29 -78.5t76 -32.5z" />
    <glyph glyph-name="b.inferior" horiz-adv-x="375" 
d="M49 312h47v-158q40 37 99 37q33 0 61.5 -12t48.5 -33t31.5 -49t11.5 -61t-11.5 -61t-31.5 -49t-48.5 -33t-61.5 -12q-59 0 -99 37v-32h-47v426zM194 147q-34 0 -59 -14.5t-39 -36.5v-120q14 -22 39 -36.5t59 -14.5q47 0 76 32.5t29 78.5t-29 78.5t-76 32.5z" />
    <glyph glyph-name="c.inferior" horiz-adv-x="318" 
d="M181 -119q-33 0 -61.5 12t-49 33t-32 49.5t-11.5 60.5t11.5 60.5t32 49.5t49 33t61.5 12q38 0 66 -13.5t48 -33.5l-30 -33q-15 15 -35.5 25.5t-48.5 10.5q-23 0 -42 -9t-33 -24t-22 -35t-8 -43t8 -43t22 -35t33 -24t42 -9q28 0 48.5 10.5t35.5 25.5l30 -33
q-20 -20 -48 -33.5t-66 -13.5z" />
    <glyph glyph-name="d.inferior" horiz-adv-x="375" 
d="M180 -119q-33 0 -61.5 12t-48.5 33t-31.5 49t-11.5 61t11.5 61t31.5 49t48.5 33t61.5 12q57 0 99 -37v-58q-14 22 -39 36.5t-59 14.5q-47 0 -76 -32.5t-29 -78.5t29 -78.5t76 -32.5q34 0 59 14.5t39 36.5v-58q-42 -37 -99 -37zM279 -114v32l6 6l1 66q-4 -10 -7 -14v120
l7 -14l-1 66l-6 6v158h47v-426h-47z" />
    <glyph glyph-name="e.inferior" horiz-adv-x="346" 
d="M181 -119q-33 0 -61.5 12t-49 33t-32 49.5t-11.5 60.5q0 33 11.5 61t32 49t47.5 33t59 12q62 0 102.5 -42t42.5 -122h-247q3 -43 32.5 -72.5t73.5 -29.5q29 0 51.5 11t37.5 26l30 -33q-20 -20 -50 -34t-69 -14zM174 148q-35 0 -61.5 -22t-34.5 -58h191q-5 39 -32 59.5
t-63 20.5z" />
    <glyph glyph-name="f.inferior" horiz-adv-x="214" 
d="M13 186h51q-22 20 -22 53q0 32 24 52.5t64 20.5h68v-43h-62q-20 0 -34 -10t-14 -30q0 -22 15 -32.5t32 -10.5h63v-43h-84v-257h-47v257h-54v43z" />
    <glyph glyph-name="g.inferior" horiz-adv-x="368" 
d="M175 -230q-32 0 -66.5 9t-60.5 26l25 40q19 -14 46.5 -23t58.5 -9q20 0 38.5 4t33 13.5t23.5 24.5t9 37q0 9 -1.5 20.5t-6.5 20.5q-38 -39 -99 -39q-33 0 -60.5 11.5t-47 31.5t-30 47t-10.5 58t10.5 58.5t30 47.5t47 31.5t60.5 11.5q58 0 98 -38v33h47v-239
q11 -31 11 -58q0 -33 -13.5 -55.5t-35.5 -36.5t-50 -20.5t-57 -6.5zM176 -62q34 0 59 14.5t38 36.5v107q-13 22 -38 36.5t-59 14.5q-45 0 -72.5 -30t-27.5 -75q0 -44 27.5 -74t72.5 -30z" />
    <glyph glyph-name="h.inferior" horiz-adv-x="348" 
d="M49 312h47v-161q17 22 42.5 31t52.5 9q51 0 82.5 -32t31.5 -88v-185h-47v181q0 36 -21 58t-56 22q-34 0 -55.5 -17.5t-29.5 -47.5v-196h-47v426z" />
    <glyph glyph-name="i.inferior" horiz-adv-x="144" 
d="M49 254q-12 10 -12 27q0 15 10 25.5t25 10.5t25 -10.5t10 -25.5q0 -17 -12 -27h-46zM48 186h47v-300h-47v300z" />
    <glyph glyph-name="j.inferior" horiz-adv-x="146" 
d="M-13 -181h19q25 0 34.5 12.5t9.5 35.5v319h47v-324q0 -86 -87 -86h-23v43zM50 255q-11 9 -11 27q0 14 10 24.5t24 10.5q15 0 25 -10.5t10 -24.5q0 -18 -11 -27h-47z" />
    <glyph glyph-name="k.inferior" horiz-adv-x="308" 
d="M49 312h47v-261l137 135h59l-144 -142l158 -158h-62l-148 149v-149h-47v426z" />
    <glyph glyph-name="l.inferior" horiz-adv-x="144" 
d="M49 312h47v-426h-47v426z" />
    <glyph glyph-name="m.inferior" horiz-adv-x="526" 
d="M437 67q0 35 -19.5 57.5t-51.5 22.5q-29 0 -49 -17.5t-28 -47.5q0 -3 0.5 -5.5t0.5 -5.5v-185h-47v181q0 35 -19.5 57.5t-52.5 22.5q-27 0 -46.5 -16t-28.5 -43v-202h-47v300h47v-35q17 22 40 31t46 9q30 0 53.5 -13.5t37.5 -37.5q21 29 48.5 40t51.5 11q51 0 81 -32
t30 -88v-185h-47v181z" />
    <glyph glyph-name="n.inferior" horiz-adv-x="348" 
d="M49 186h47v-35q17 22 42.5 31t52.5 9q51 0 82.5 -32t31.5 -88v-185h-47v181q0 36 -21 58t-56 22q-34 0 -55.5 -17.5t-29.5 -47.5v-196h-47v300z" />
    <glyph glyph-name="o.inferior" horiz-adv-x="365" 
d="M183 -75q24 0 43.5 9t34 24t22 35t7.5 43t-7.5 43t-22 35t-34 24t-43.5 9t-43.5 -9t-34 -24t-22 -35t-7.5 -43t7.5 -43t22 -35t34 -24t43.5 -9zM183 -119q-34 0 -62.5 12t-49.5 33t-32.5 49.5t-11.5 60.5t11.5 60.5t32.5 49.5t49.5 33t62.5 12t62.5 -12t49 -33t32 -49.5
t11.5 -60.5t-11.5 -60.5t-32 -49.5t-49 -33t-62.5 -12z" />
    <glyph glyph-name="p.inferior" horiz-adv-x="375" 
d="M49 186h47v-32q40 37 99 37q33 0 61.5 -12t48.5 -33t31.5 -49t11.5 -61t-11.5 -61t-31.5 -49t-48.5 -33t-61.5 -12q-59 0 -99 37v-142h-47v410zM194 147q-34 0 -59 -14.5t-39 -36.5v-120q14 -22 39 -36.5t59 -14.5q47 0 76 32.5t29 78.5t-29 78.5t-76 32.5z" />
    <glyph glyph-name="q.inferior" horiz-adv-x="375" 
d="M279 -82q-42 -37 -99 -37q-33 0 -61.5 12t-48.5 33t-31.5 49t-11.5 61t11.5 61t31.5 49t48.5 33t61.5 12q57 0 99 -37v32h47v-410h-47v142zM181 -75q34 0 59 14.5t39 36.5v120q-14 22 -39 36.5t-59 14.5q-47 0 -76 -32.5t-29 -78.5t29 -78.5t76 -32.5z" />
    <glyph glyph-name="r.inferior" horiz-adv-x="215" 
d="M49 -114v300h47v-37q15 20 37 30t47 10q5 0 10.5 -0.5t10.5 -1.5v-49q-6 2 -12.5 3t-14.5 1q-26 0 -46.5 -13t-31.5 -37v-206h-47z" />
    <glyph glyph-name="s.inferior" horiz-adv-x="252" 
d="M123 -119q-33 0 -60.5 15t-44.5 45l38 25q11 -20 27 -31t41 -11q24 0 40.5 11t16.5 29q0 19 -12.5 30t-40.5 22l-25 9q-40 14 -55 38t-15 50q0 32 25.5 55t66.5 23q29 0 52.5 -13.5t36.5 -41.5l-37 -20q-16 32 -52 32q-18 0 -31.5 -9t-13.5 -26q0 -15 9 -27t36 -22l26 -9
q77 -27 77 -89q0 -35 -28 -60t-77 -25z" />
    <glyph glyph-name="t.inferior" horiz-adv-x="220" 
d="M1 186h59v67l47 25v-92h91l-9 -43h-82v-166q0 -23 10 -35.5t36 -12.5h39v-43h-43q-43 0 -66 21t-23 64v172h-50z" />
    <glyph glyph-name="u.inferior" horiz-adv-x="341" 
d="M245 -114v35q-18 -23 -43.5 -31.5t-51.5 -8.5q-51 0 -82.5 32t-31.5 88v185h46v-181q0 -36 21.5 -58t56.5 -22q34 0 55 17.5t30 47.5v196h47v-300h-47z" />
    <glyph glyph-name="v.inferior" horiz-adv-x="320" 
d="M3 186h53l104 -210l104 210h53l-157 -305z" />
    <glyph glyph-name="w.inferior" horiz-adv-x="432" 
d="M14 186h49l69 -224l84 230l84 -230l70 224h48l-95 -300h-37l-70 192l-69 -192h-38z" />
    <glyph glyph-name="x.inferior" horiz-adv-x="324" 
d="M134 39l-112 147h54l87 -113l86 113h54l-112 -147l117 -153h-55l-91 119l-92 -119h-54z" />
    <glyph glyph-name="y.inferior" horiz-adv-x="306" 
d="M128 -87l-124 273h51l98 -222l98 222h51l-188 -410h-49z" />
    <glyph glyph-name="z.inferior" horiz-adv-x="302" 
d="M198 143h-162v43h244l-180 -257h175v-43h-258z" />
    <glyph glyph-name="uni2081" unicode="&#x2081;" horiz-adv-x="176" 
d="M65 274l47 52v-440h-47v388z" />
    <glyph glyph-name="uni2082" unicode="&#x2082;" horiz-adv-x="327" 
d="M164 107q35 0 58.5 23.5t23.5 59.5t-23.5 60t-58.5 24t-57.5 -24t-22.5 -60t22.5 -59.5t57.5 -23.5zM186 68q-14 -3 -26 -3q-27 1 -49.5 11t-39 27t-25.5 39t-9 48q0 27 10 50t27 40t40 27t50 10t50.5 -10t40.5 -27t27 -40t10 -50q0 -39 -18.5 -73t-58.5 -78l-100 -109
h178v-44h-277z" />
    <glyph glyph-name="uni2083" unicode="&#x2083;" horiz-adv-x="312" 
d="M142 -119q-38 0 -71 18.5t-51 48.5l37 27q11 -21 33 -36t51 -15q42 0 69 26.5t27 69.5t-27 70.5t-72 27.5h-37l89 150h-153v44h226q-25 -42 -44 -75l-16 -28t-15 -25t-11 -18.5t-5 -8.5q54 -9 83.5 -47.5t29.5 -89.5q0 -29 -10.5 -54t-29 -44t-45 -30t-58.5 -11z" />
    <glyph glyph-name="uni2084" unicode="&#x2084;" horiz-adv-x="353" 
d="M240 6h-243l290 320v-277h57v-43h-57v-120h-47v120zM240 49v167l-151 -167h151z" />
    <glyph glyph-name="uni2085" unicode="&#x2085;" horiz-adv-x="325" 
d="M155 -119q-38 0 -72 18.5t-52 48.5l38 27q11 -21 33.5 -36t51.5 -15q41 0 68 26.5t27 68.5t-26.5 70t-71.5 28q-24 0 -41 -11t-27 -22l-32 14v214h212v-44h-165v-122q11 6 25 10t29 4q34 0 60.5 -11t45 -30.5t28.5 -45t10 -54.5q0 -28 -10 -53t-29 -44t-45 -30t-57 -11z
" />
    <glyph glyph-name="uni2086" unicode="&#x2086;" horiz-adv-x="329" 
d="M164 -119q-29 0 -54.5 11t-44.5 29.5t-30 44t-11 54.5q0 22 7 41.5t17 36.5l129 214h52l-96 -159q15 6 33 6q29 -1 54.5 -12t44 -30t29.5 -44t11 -53q0 -29 -11 -54.5t-30 -44t-44.5 -29.5t-55.5 -11zM164 -76q42 0 67.5 28t25.5 68q0 39 -25.5 67t-67.5 28
q-41 0 -66.5 -28t-25.5 -67q0 -40 25.5 -68t66.5 -28z" />
    <glyph glyph-name="uni2087" unicode="&#x2087;" horiz-adv-x="303" 
d="M224 268h-206v44h277l-205 -426h-50z" />
    <glyph glyph-name="uni2088" unicode="&#x2088;" horiz-adv-x="331" 
d="M166 -119q-29 0 -54 10.5t-43.5 29t-29.5 43.5t-11 54q0 39 19 70.5t50 48.5q-16 14 -25 33.5t-9 43.5q0 22 8 41t22 32.5t33 21.5t40 8t39.5 -8t33 -21.5t22.5 -32.5t8 -41q0 -24 -9.5 -43.5t-25.5 -33.5q31 -17 50 -48.5t19 -70.5q0 -29 -11 -54t-29.5 -43.5t-43.5 -29
t-53 -10.5zM162 112q-37 -2 -61 -29t-24 -65q0 -39 25.5 -66t63.5 -27t63 27t25 66q0 38 -24.5 65t-60.5 29h-3h-4zM166 155q23 0 39.5 16.5t16.5 42.5t-16.5 42.5t-39.5 16.5q-24 0 -40.5 -16.5t-16.5 -42.5t16.5 -42.5t40.5 -16.5z" />
    <glyph glyph-name="uni2089" unicode="&#x2089;" horiz-adv-x="329" 
d="M197 45q-17 -6 -35 -6q-29 1 -54 12t-44 29.5t-29.5 43.5t-10.5 54t11 54.5t30 44t44.5 29.5t54.5 11q30 0 55.5 -11t44.5 -29.5t30 -44t11 -54.5q0 -22 -7 -41.5t-18 -36.5l-128 -214h-52zM164 83q42 0 67.5 28t25.5 67q0 40 -25.5 68t-67.5 28q-41 0 -66.5 -28
t-25.5 -68q0 -39 25.5 -67t66.5 -28z" />
    <glyph glyph-name="uni2080" unicode="&#x2080;" horiz-adv-x="477" 
d="M238 -75q37 0 68.5 13.5t54 36.5t35.5 55t13 69t-13 69t-35.5 55t-54 36.5t-68.5 13.5t-68 -13.5t-53.5 -36.5t-35 -55t-12.5 -69t12.5 -69t35 -55t53.5 -36.5t68 -13.5zM238 -119q-46 0 -85.5 17t-69 46t-46.5 69t-17 86t17 86t46.5 69t69 46t85.5 17t86 -17t69.5 -46
t46.5 -69t17 -86t-17 -86t-46.5 -69t-69.5 -46t-86 -17z" />
    <glyph glyph-name="uni2080.aalt" horiz-adv-x="477" 
d="M238 -119q-46 0 -85.5 17t-69 46t-46.5 69t-17 86t17 86t46.5 69t69 46t85.5 17t86 -17t69.5 -46t46.5 -69t17 -86t-17 -86t-46.5 -69t-69.5 -46t-86 -17zM238 -75q37 0 68.5 13.5t54 36.5t35.5 55t13 69q0 18 -3 35l-323 -109q20 -45 60.5 -72.5t94.5 -27.5zM69 99
v-17.5t2 -16.5l322 109q-20 45 -60.5 72t-94.5 27q-37 0 -68 -13.5t-53.5 -36.5t-35 -55t-12.5 -69z" />
    <glyph glyph-name="period.inferior" horiz-adv-x="153" 
d="M77 -119q-17 0 -29.5 13t-12.5 30t12.5 29.5t29.5 12.5t29 -13t12 -30t-12 -29.5t-29 -12.5z" />
    <glyph glyph-name="hyphen.inferior" horiz-adv-x="200" 
d="M28 114h143v-49h-143v49z" />
    <glyph glyph-name="comma.inferior" horiz-adv-x="148" 
d="M69 -114h-29v71h69v-72l-34 -84h-32z" />
    <glyph glyph-name="equal.inferior" horiz-adv-x="326" 
d="M29 48h268v-44h-268v44zM29 175h268v-44h-268v44z" />
    <glyph glyph-name="plus.inferior" horiz-adv-x="321" 
d="M28 112h110v105h45v-105h110v-45h-110v-107h-45v107h-110v45z" />
    <glyph glyph-name="minus.inferior" horiz-adv-x="322" 
d="M29 110h264v-41h-264v41z" />
    <glyph glyph-name="uni208D" unicode="&#x208d;" horiz-adv-x="144" 
d="M99 -227q-32 66 -48.5 130.5t-16.5 144.5t16.5 144.5t48.5 130.5l38 -16q-31 -64 -45.5 -127.5t-14.5 -131.5q0 -67 14.5 -131t45.5 -127l-38 -17v0z" />
    <glyph glyph-name="uni208E" unicode="&#x208e;" horiz-adv-x="144" 
d="M45 -227l-38 17q59 124 59 258t-59 259l38 16q32 -66 48 -130.5t16 -144.5t-16 -144.5t-48 -130.5z" />
    <glyph glyph-name="one.numr" horiz-adv-x="223" 
d="M78 677l47 47v-440h-47v393z" />
    <glyph glyph-name="two.numr" horiz-adv-x="357" 
d="M196 466q-14 -3 -26 -3q-27 1 -49.5 11t-39 27t-25.5 39t-9 48q0 27 10 50t27 40t40 27t50 10t50.5 -10t40.5 -27t27 -40t10 -50q0 -39 -18.5 -73t-58.5 -78l-100 -109h178v-44h-277zM174 505q35 0 58.5 23.5t23.5 59.5t-23.5 60t-58.5 24t-57.5 -24t-22.5 -60
t22.5 -59.5t57.5 -23.5z" />
    <glyph glyph-name="three.numr" horiz-adv-x="328" 
d="M162 279q-38 0 -71 18.5t-51 48.5l37 27q11 -21 33 -36t51 -15q42 0 69 26.5t27 69.5t-27 70.5t-72 27.5h-37l89 150h-153v44h226q-25 -42 -44 -75l-16 -28t-15 -25t-11 -18.5t-5 -8.5q54 -9 83.5 -47.5t29.5 -89.5q0 -29 -10.5 -54t-29 -44t-45 -30t-58.5 -11z" />
    <glyph glyph-name="four.numr" horiz-adv-x="331" 
d="M218 404h-243l290 320v-277h57v-43h-57v-120h-47v120zM218 447v161l-146 -161h146z" />
    <glyph glyph-name="five.numr" horiz-adv-x="327" 
d="M163 279q-38 0 -71.5 18.5t-51.5 48.5l37 27q11 -21 33.5 -36t51.5 -15q42 0 68.5 26.5t26.5 68.5t-26 70t-71 28q-25 0 -41.5 -11t-26.5 -22l-33 14v214h213v-44h-166v-122q11 6 25.5 10t29.5 4q34 0 60.5 -11t45 -30.5t28.5 -45t10 -54.5q0 -28 -10 -53t-29 -44
t-45 -30t-58 -11z" />
    <glyph glyph-name="six.numr" horiz-adv-x="321" 
d="M160 279q-29 0 -54.5 11t-44.5 29.5t-30 44t-11 54.5q0 22 6.5 41.5t17.5 36.5l129 214h52l-96 -159q15 6 33 6q29 -1 54.5 -12t44 -30t29.5 -44t11 -53q0 -29 -11 -54.5t-30 -44t-44.5 -29.5t-55.5 -11zM160 322q42 0 67.5 28t25.5 68q0 39 -25.5 67t-67.5 28
q-41 0 -66.5 -28t-25.5 -67q0 -40 25.5 -68t66.5 -28z" />
    <glyph glyph-name="seven.numr" horiz-adv-x="270" 
d="M235 666h-207v44h277l-205 -426h-50z" />
    <glyph glyph-name="eight.numr" horiz-adv-x="350" 
d="M175 279q-29 0 -53.5 10.5t-43.5 29t-29.5 43.5t-10.5 54q0 39 18.5 70.5t49.5 48.5q-16 14 -25 33.5t-9 43.5q0 22 8 41t22 32.5t33 21.5t40 8t40 -8t33 -21.5t22 -32.5t8 -41q0 -24 -9 -43.5t-25 -33.5q31 -17 49.5 -48.5t18.5 -70.5q0 -29 -10.5 -54t-29.5 -43.5
t-44 -29t-53 -10.5zM175 323q38 0 63.5 27t25.5 66q0 19 -7 36.5t-19 30t-28 20t-35 7.5q-38 0 -63 -27.5t-25 -66.5t25 -66t63 -27zM179 553q23 2 37.5 18t14.5 41q0 26 -16 42.5t-40 16.5t-40 -16.5t-16 -42.5t16 -42.5t40 -16.5h4z" />
    <glyph glyph-name="nine.numr" horiz-adv-x="321" 
d="M192 443q-15 -6 -34 -6q-29 1 -54.5 12t-44 29.5t-29 43.5t-10.5 54t11 54.5t30 44t44.5 29.5t54.5 11q30 0 55.5 -11t44.5 -29.5t30 -44t11 -54.5q0 -22 -7 -41.5t-18 -36.5l-128 -214h-52zM160 481q41 0 67 28t26 67q0 40 -26 68t-67 28t-66.5 -28t-25.5 -68
q0 -39 25.5 -67t66.5 -28z" />
    </font>
</defs>
</svg>
