<svg xmlns="http://www.w3.org/2000/svg" xmlns:xlink="http://www.w3.org/1999/xlink" viewBox="625 429 602 237"><defs><style>.a,.b{fill:none;}.a{clip-rule:evenodd;}.c{clip-path:url(#a);}.d{clip-path:url(#b);}.e{fill:#fff;}.f{clip-path:url(#c);}.g{clip-path:url(#e);}.h{clip-path:url(#g);}.i{clip-path:url(#h);}.j{clip-path:url(#i);}.k{clip-path:url(#j);}.l{clip-path:url(#l);}.m{clip-path:url(#n);}.n{clip-path:url(#p);}.o{clip-path:url(#r);}.p{clip-path:url(#t);}.q{clip-path:url(#v);}</style><clipPath id="a"><path class="a" d="M5.669-207.9H19.394c9.569,0,14.839-4.516,14.839-12.716s-5.27-12.714-14.839-12.714H5.669Zm15.25,3.617L46-174H41.289L16.342-204.221H5.669V-174H2v-63H18.965c11.912,0,19.025,6.126,19.025,16.388C37.99-210.923,31.651-204.921,20.919-204.278Z" transform="translate(0 237)"/></clipPath><clipPath id="b"><path class="b" d="M-419,3241H1021V-631H-419Z" transform="translate(0 237)"/></clipPath><clipPath id="c"><path class="a" d="M297.5-171,326-237h-4.054L297.5-180.361,273.053-237H269Z" transform="translate(0 237)"/></clipPath><clipPath id="e"><path class="a" d="M0,0H602V-237H0Z" transform="translate(0 237)"/></clipPath><clipPath id="g"><rect class="b" width="602" height="237"/></clipPath><clipPath id="h"><path class="a" d="M157-174h4v-63h-4Z" transform="translate(0 237)"/></clipPath><clipPath id="i"><path class="b" d="M0,0H602V-237H0Z" transform="translate(0 237)"/></clipPath><clipPath id="j"><path class="a" d="M422-174h36v-3.674H425.735V-204.65h27.033v-3.675H425.735v-25H458V-237H422Z" transform="translate(0 237)"/></clipPath><clipPath id="l"><path class="a" d="M561.669-207.9v-25.43h13.725c9.57,0,14.839,4.516,14.839,12.714S584.964-207.9,575.394-207.9Zm15.25,3.617c10.732-.643,17.071-6.645,17.071-16.334,0-10.262-7.113-16.388-19.025-16.388H558v63h3.669v-30.221h10.672L597.289-174H602Z" transform="translate(0 237)"/></clipPath><clipPath id="n"><path class="a" d="M182.545-54.65,185-57.513l-.824-.672A31.334,31.334,0,0,0,164.152-65C146.123-65,132-50.725,132-32.5S146.123,0,164.152,0a31.673,31.673,0,0,0,20.017-6.811l.772-.617-2.147-2.96-.829.653a28.459,28.459,0,0,1-17.812,6.022c-15.923,0-28.395-12.646-28.395-28.789s12.472-28.786,28.395-28.786a27.41,27.41,0,0,1,17.625,6.01Z" transform="translate(0 237)"/></clipPath><clipPath id="p"><path class="a" d="M323.958-1H328L298-67,268-1h4.042l9.84-21.673,1.709-3.725L298-58.223,312.409-26.4l1.709,3.725Z" transform="translate(0 237)"/></clipPath><clipPath id="r"><path class="a" d="M439.947-33.18h-14.3V-60.326h14.3c9.453,0,15.325,5.2,15.325,13.574S449.4-33.18,439.947-33.18M439.607-64H422V-1h3.644V-29.5h14.048C453.928-29.5,459-38.415,459-46.752S453.905-64,439.607-64" transform="translate(0 237)"/></clipPath><clipPath id="t"><path class="a" d="M598-64H562V-1h36V-4.674H565.733V-31.65h27.036v-3.674H565.733v-25H598Z" transform="translate(0 237)"/></clipPath><clipPath id="v"><path class="a" d="M3.029-12.5,0-10.062l.577.792A23.14,23.14,0,0,0,18.989,0C31.144,0,39-6.463,39-16.464c0-9.815-8.281-14.557-15.492-17.593L16.95-36.83C9-40.187,5.606-44.258,5.606-50.445c0-6.787,6.894-10.842,13.56-10.842,5.68,0,10.165,2.039,12.966,5.9l.645.887,3.05-2.456-.633-.8A19.882,19.882,0,0,0,19.427-65C9.532-65,1.779-58.607,1.779-50.445c0,7.613,4.256,12.953,13.394,16.813l6.554,2.773c9.422,4.006,13.443,8.337,13.443,14.483,0,7.811-6.2,12.664-16.181,12.664A19.052,19.052,0,0,1,3.669-11.6Z" transform="translate(0 237)"/></clipPath></defs><g transform="translate(-34 9)"><g class="c" transform="translate(659 420)"><g class="d"><path class="e" d="M-3-242H51v73H-3Z" transform="translate(0 237)"/></g></g><g class="f" transform="translate(659 420)"><g class="d"><path class="e" d="M264-242h67v76H264Z" transform="translate(0 237)"/></g></g><g class="g" transform="translate(659 420)"><g class="d"><g class="h"><g class="i"><g class="j"><path class="e" d="M152-242h14v73H152Z" transform="translate(0 237)"/></g></g><g class="k"><g class="j"><path class="e" d="M417-242h46v73H417Z" transform="translate(0 237)"/></g></g><g class="l"><g class="j"><path class="e" d="M553-242h54v73H553Z" transform="translate(0 237)"/></g></g><g class="m"><g class="j"><path class="e" d="M127-70h63V5H127Z" transform="translate(0 237)"/></g></g><g class="n"><g class="j"><path class="e" d="M263-72h70V4H263Z" transform="translate(0 237)"/></g></g><g class="o"><g class="j"><path class="e" d="M417-69h47V4H417Z" transform="translate(0 237)"/></g></g><g class="p"><g class="j"><path class="e" d="M557-69h46V4H557Z" transform="translate(0 237)"/></g></g><g class="q"><g class="j"><path class="e" d="M-5-70H44V5H-5Z" transform="translate(0 237)"/></g></g></g></g></g></g></svg>