<svg xmlns="http://www.w3.org/2000/svg" viewBox="0 0 205.05 78.76"><defs><style>.cls-1{fill:#009a93;}</style></defs><title>pixello_logo</title><g id="Layer_2" data-name="Layer 2"><g id="Layer_1-2" data-name="Layer 1"><path id="_Compound_Path_" data-name="&lt;Compound Path&gt;" class="cls-1" d="M136.7,0h11.25V78.76H136.7ZM154,78.76h11.25V0H154Zm28.55-11.25H193.8V33.75H182.54Zm-11.25-45H205V78.76H171.29ZM108.15,45H119.4V33.75H108.15Zm22.5,22.5V78.76H96.9V22.5h33.75V56.25h-22.5V67.5ZM57.1,45H68.35V22.5H57.1ZM68.35,56.25H79.6V45H68.35ZM79.6,78.76H90.85V56.25H79.6ZM90.85,22.5H79.6V45H90.85ZM68.35,56.25H57.1v22.5H68.35ZM39.8,78.76H51.05v-45H39.8Zm0-56.26H51.05V11.25H39.8ZM11.35,33.65H22.5V11.35H11.35ZM33.75,0V45H11.25V78.76H0V0Z"/></g></g></svg>